<svg width="420" height="954" viewBox="0 0 420 954" fill="none" xmlns="http://www.w3.org/2000/svg">
<path fill-rule="evenodd" clip-rule="evenodd" d="M39.252 921.641C39.252 904.733 124.277 891.024 229.161 891.024C334.047 891.024 419.071 904.733 419.071 921.641C419.071 928.634 422.767 944.474 398.293 949.629C363.587 956.94 290.671 952.258 229.161 952.258C124.277 952.258 39.252 938.552 39.252 921.641Z" fill="#12130F"/>
<path fill-rule="evenodd" clip-rule="evenodd" d="M91.9627 873.036C91.9627 873.036 38.2787 902.391 43.9374 907.545C49.5961 912.7 101.563 920.681 109.421 917.755C117.277 914.829 138.416 898.86 143.424 903.224C148.432 907.584 180.52 906.821 183.083 902.421C185.648 898.021 178.431 867.148 178.431 867.148L91.9627 873.036Z" fill="#360B1E"/>
<path fill-rule="evenodd" clip-rule="evenodd" d="M111.669 861.354L60.7012 892.155C60.7012 892.155 99.5399 888.861 109.289 893.467C119.039 898.072 140.183 903.687 145.504 902.587C150.827 901.486 177.252 871.125 177.252 871.125L111.669 861.354Z" fill="#FBFBFB"/>
<path fill-rule="evenodd" clip-rule="evenodd" d="M109.94 403.561L104.929 604.871L110.776 844.599L99.916 872.999L182.523 873.781L179.788 836.209L194.201 808.632L183.813 733.673L213.741 556.559L258.417 758.211L281.936 839.001L298.921 896.069C298.921 896.069 337.003 887.747 348.093 885.627C359.184 883.507 374.575 885.013 374.575 885.013L359.492 767.668L337.269 637.645L321.631 390.561L109.94 403.561Z" fill="#360B1E"/>
<path fill-rule="evenodd" clip-rule="evenodd" d="M309.628 887.922C309.628 887.922 303.896 921.112 306.912 922.54C309.928 923.968 323.056 929.318 326.789 927.97C330.524 926.623 334.336 922.242 335.089 925.388C335.841 928.534 336.499 936.063 338.452 937.851C340.404 939.64 395.311 948.516 399.863 941.195C404.416 933.875 395.639 918.979 391.409 916.54C387.179 914.102 366.741 885.607 365.335 879.836C363.929 874.064 309.628 887.922 309.628 887.922Z" fill="#360B1E"/>
<path fill-rule="evenodd" clip-rule="evenodd" d="M310.26 899.334C310.26 899.334 321.868 924.421 324.922 924.333C327.977 924.242 348.204 916.029 359.08 916.843C369.957 917.657 390.602 916.259 390.602 916.259L368.076 886.973C368.076 886.973 343.14 887.611 335.162 892.773C327.188 897.934 310.26 899.334 310.26 899.334Z" fill="#FBFBFB"/>
<path fill-rule="evenodd" clip-rule="evenodd" d="M176.64 169.601C176.64 169.601 173.672 138.348 176.808 137.241C179.944 136.121 256.232 140.241 261.393 143.908C266.553 147.588 269.807 166.481 255.016 174.561C240.225 182.641 176.64 169.601 176.64 169.601Z" fill="#360B1E"/>
<path fill-rule="evenodd" clip-rule="evenodd" d="M259.754 89.9609C259.754 89.9609 268.467 89.3877 269.507 82.5743C270.549 75.7477 271.113 68.8276 271.113 68.8276L261.749 70.5209L259.754 89.9609Z" fill="#FFCDB2"/>
<path fill-rule="evenodd" clip-rule="evenodd" d="M182.998 113.521L179.52 159.934C179.52 159.934 214.884 191.095 219.197 199.641C223.513 208.175 220.396 272.815 227.829 264.508C235.26 256.201 261.15 173.775 261.15 173.775C261.15 173.775 257.736 164.521 256.85 155.441C255.705 143.721 255.777 125.068 256.048 120.641C256.526 112.788 182.998 113.521 182.998 113.521Z" fill="#FFCDB2"/>
<path fill-rule="evenodd" clip-rule="evenodd" d="M183.183 111.108L181.328 134.615C181.328 134.615 200.739 160.162 213.204 159.935C225.669 159.695 245.567 146.535 245.567 146.535L254.524 121.042L183.183 111.108Z" fill="#360B1E"/>
<path fill-rule="evenodd" clip-rule="evenodd" d="M187.472 71.4013C187.472 71.4013 145.209 62.2947 155.466 41.9481C162.269 28.4548 200.761 51.8814 224.065 60.5748C247.369 69.2681 260.541 69.6947 260.541 69.6947L187.472 71.4013Z" fill="#360B1E"/>
<path fill-rule="evenodd" clip-rule="evenodd" d="M181.573 50.1752L182.369 70.8018C182.369 70.8018 178.551 53.4686 173.019 61.7086C167.487 69.9619 172.833 91.8819 176.135 91.9086C179.437 91.9352 181.405 90.4819 181.405 90.4819C181.405 90.4819 179.097 116.149 181.108 119.709C183.121 123.255 204.323 143.948 208.401 146.628C212.479 149.308 224.964 148.202 230.052 145.989C235.141 143.775 253.904 130.482 255.469 122.455C257.033 114.429 263.896 59.0951 263.896 59.0951C263.896 59.0951 233.079 67.0818 216.545 62.3218C200.009 57.5485 187.315 49.3086 181.573 50.1752Z" fill="#FFCDB2"/>
<path fill-rule="evenodd" clip-rule="evenodd" d="M182.095 67.8014C182.095 67.8014 191.968 93.0681 199.961 94.5614C207.954 96.0681 225.386 96.3348 234.214 97.1481C243.041 97.9481 250.867 93.9081 250.867 93.9081L263.484 64.6148C263.484 64.6148 257.819 122.161 255.339 125.681C252.858 129.201 233.47 146.788 229.181 147.961C224.892 149.148 209.822 149.268 207.833 148.508C205.844 147.748 179.626 123.268 178.405 119.121C177.181 114.975 182.095 67.8014 182.095 67.8014Z" fill="#C49D88"/>
<path fill-rule="evenodd" clip-rule="evenodd" d="M239.394 72.3207C236.422 72.0807 235.57 69.3874 237.286 66.5741C239 63.7741 242.786 62.1874 242.786 62.1874L241.878 66.9607C241.878 66.9607 244.879 61.894 248.843 60.7474C252.806 59.6007 272.53 58.054 268.759 65.054C264.988 72.054 255.855 68.894 251.124 70.0807C246.395 71.2674 242.363 72.574 239.394 72.3207Z" fill="#360B1E"/>
<path fill-rule="evenodd" clip-rule="evenodd" d="M214.495 45.668C214.495 45.668 283.196 39.5881 289.744 53.4148C292.688 59.6415 289.155 68.0948 279.972 70.7481C260.739 76.3081 235.948 65.8281 228.155 63.8148C218.058 61.2015 187.938 46.8548 187.938 46.8548L214.495 45.668Z" fill="#360B1E"/>
<path fill-rule="evenodd" clip-rule="evenodd" d="M174.02 41.6543C174.02 41.6543 184.29 -0.892381 196.457 0.0142854C208.624 0.934285 223.849 7.97429 233.685 6.21429C243.521 4.46762 248.394 -4.5191 255.038 3.89423C261.683 12.3076 269.932 50.1876 267.725 52.8276C265.52 55.4809 235.224 56.5742 226.178 56.8942C217.134 57.2009 178.593 45.9076 174.02 41.6543Z" fill="#360B1E"/>
<path fill-rule="evenodd" clip-rule="evenodd" d="M212.418 70.428C215.389 70.188 216.241 67.4814 214.526 64.6814C212.811 61.8814 209.026 60.2947 209.026 60.2947L209.934 65.0547C209.934 65.0547 206.933 59.9881 202.969 58.8414C199.005 57.6947 179.282 56.1613 183.053 63.1613C186.822 70.1613 195.958 66.9881 200.686 68.1747C205.415 69.3747 209.446 70.668 212.418 70.428Z" fill="#360B1E"/>
<path fill-rule="evenodd" clip-rule="evenodd" d="M188.446 72.7748C188.446 72.7748 196.489 70.2681 201.297 71.6014C206.105 72.9347 211.218 73.4682 211.158 75.5748C211.098 77.6948 203.077 78.3348 198.425 78.1082C193.773 77.8948 183.546 73.6415 188.446 72.7748Z" fill="white"/>
<path fill-rule="evenodd" clip-rule="evenodd" d="M222.735 67.3618L225.699 88.0017L221.817 95.8551L221.088 100.228L216.395 102.655L217.516 105.802L237.263 106.495L237.599 102.402L233.8 100.175L231.54 95.2951L236.852 88.2818L233.707 66.9485L222.735 67.3618Z" fill="#FFCDB2"/>
<path fill-rule="evenodd" clip-rule="evenodd" d="M187.604 72.9084C187.604 72.9084 197.078 70.495 201.726 71.2817C208.485 72.4283 213.141 74.7483 211.998 76.1216C210.856 77.495 202.597 78.415 202.597 78.415C202.597 78.415 211.329 76.4549 210.773 75.4683C210.218 74.4949 204.989 75.0016 201.505 74.4683C196.926 73.7483 187.604 72.9084 187.604 72.9084Z" fill="#360B1E"/>
<path fill-rule="evenodd" clip-rule="evenodd" d="M200.844 71.9608C200.844 71.9608 201.016 77.2275 203.968 77.2275C208.374 77.2275 208.374 73.8942 208.374 73.8942L200.844 71.9608Z" fill="#360B1E"/>
<path d="M210.19 124.548C209.925 124.548 209.666 124.415 209.521 124.175C209.298 123.801 209.416 123.335 209.785 123.108C210.08 122.935 217.188 118.734 231.481 118.348C231.918 118.374 232.272 118.681 232.282 119.108C232.294 119.535 231.953 119.895 231.522 119.908C217.685 120.281 210.661 124.401 210.592 124.441C210.466 124.521 210.328 124.548 210.19 124.548Z" fill="#360B1E"/>
<path fill-rule="evenodd" clip-rule="evenodd" d="M55.0883 350.294L29.4122 349.415C29.4122 349.415 1.09227 316.041 1.80827 296.055C2.15894 286.308 17.6643 272.001 17.6643 272.001C17.6643 272.001 45.5589 179.641 63.6923 171.268C72.0816 167.401 92.6603 166.468 112.678 165.215C135.915 163.748 158.292 162.294 158.292 162.294L172.016 142.015L176.492 137.241C176.492 137.241 173.39 147.414 178.394 157.694C179.794 160.574 182.538 162.401 185.015 164.321C196.347 173.041 215.614 185.055 217.503 195.241C219.392 205.428 225.058 254.535 226.947 264.721C228.836 274.908 229.214 305.108 229.214 305.108C229.214 305.108 228.456 199.241 230.726 192.694C232.991 186.148 241.303 180.681 250.746 173.041C260.191 165.401 261.702 143.215 261.702 143.215L266.796 147.028L277.511 164.801L279.308 173.975C279.308 173.975 356.635 189.561 362.028 209.508C367.422 229.455 367.67 301.148 367.67 301.148C367.67 301.148 379.792 332.748 378.247 341.881C376.702 351.001 375.164 384.374 365.987 385.228C360.582 385.734 333.551 379.588 327.464 377.708C316.028 374.175 323.063 399.455 319.199 400.148C309.788 401.855 237.142 421.201 203.884 421.201C170.626 421.201 143.054 418.388 104.362 409.201C98.3696 407.774 101.031 386.948 94.8163 385.188C59.2043 375.121 55.0883 350.294 55.0883 350.294Z" fill="#F4F0EE"/>
<path d="M181.356 75.748C181.024 75.748 180.717 75.5346 180.611 75.2013C179.751 72.5079 177.677 68.0679 175.776 67.6013C175.453 67.5213 174.945 67.4814 174.244 68.1747C173.936 68.4814 173.441 68.468 173.139 68.1613C172.837 67.8546 172.843 67.3613 173.151 67.0547C174.313 65.9213 175.424 65.8947 176.153 66.0814C179.516 66.908 181.845 73.9346 182.1 74.7346C182.231 75.1346 182.004 75.5747 181.593 75.708L181.356 75.748Z" fill="#360B1E"/>
<path fill-rule="evenodd" clip-rule="evenodd" d="M214.719 120.241C214.719 120.241 211.614 118.574 207.295 121.587C202.976 124.601 178.74 141.801 179.539 145.401C180.336 149.014 185.348 152.187 193.392 145.747C201.439 139.321 221.74 121.467 214.719 120.241Z" fill="#360B1E"/>
<path d="M169.667 415.095C169.347 415.095 169.045 414.895 168.931 414.575C157.331 382.228 157.635 173.601 157.655 164.735C157.655 164.308 158.004 163.961 158.436 163.961H158.437C158.868 163.961 159.217 164.308 159.217 164.735C159.212 166.908 158.893 381.948 170.403 414.041C170.548 414.455 170.336 414.895 169.931 415.041L169.667 415.095Z" fill="#FC9F07"/>
<path d="M137.904 373.095C137.538 373.095 137.212 372.828 137.138 372.455C133.626 354.721 135.576 176.721 135.66 169.148C135.664 168.721 136.019 168.375 136.45 168.375C136.882 168.388 137.227 168.735 137.223 169.161C137.202 171.015 135.19 354.575 138.671 372.161C138.755 372.575 138.479 372.988 138.056 373.068L137.904 373.095Z" fill="#FC9F07"/>
<path d="M185.498 408.135C185.133 408.135 184.806 407.868 184.733 407.495C181.221 389.775 178.834 198.121 178.734 189.975C178.729 189.535 179.076 189.188 179.506 189.175C179.99 189.201 180.292 189.521 180.297 189.948C180.321 191.948 182.781 389.615 186.265 407.201C186.349 407.615 186.074 408.028 185.65 408.108L185.498 408.135Z" fill="#FC9F07"/>
<path d="M203.884 414.295C203.519 414.295 203.192 414.042 203.119 413.668C199.607 395.935 199.961 210.708 199.979 202.828C199.979 202.402 200.329 202.042 200.76 202.042H200.761C201.192 202.042 201.541 202.402 201.541 202.828C201.537 204.762 201.169 395.788 204.651 413.362C204.735 413.788 204.46 414.202 204.036 414.282L203.884 414.295Z" fill="#FC9F07"/>
<path d="M115.911 377.908C115.547 377.908 115.219 377.655 115.146 377.281C115.037 376.735 104.233 320.575 104.554 263.001C104.774 223.615 112.773 185.015 118.463 172.295C118.639 171.895 119.102 171.721 119.495 171.895C119.889 172.068 120.066 172.535 119.889 172.935C114.255 185.535 106.335 223.841 106.117 263.015C105.797 320.428 116.57 376.428 116.679 376.988C116.763 377.401 116.487 377.815 116.065 377.895L115.911 377.908Z" fill="#FC9F07"/>
<path d="M64.6272 281.428C64.2619 281.428 63.9352 281.174 63.8618 280.801C60.3232 262.948 90.2779 179.534 95.8885 171.828C96.1419 171.481 96.6285 171.401 96.9805 171.654C97.3285 171.908 97.4058 172.401 97.1512 172.748C91.5938 180.374 61.9019 262.881 65.3939 280.508C65.4779 280.921 65.2032 281.334 64.7792 281.414L64.6272 281.428Z" fill="#FC9F07"/>
<path d="M38.1447 265.095C37.778 265.095 37.4527 264.841 37.3793 264.468C33.83 246.561 68.2954 176.601 69.7634 173.641C69.9554 173.255 70.4233 173.095 70.81 173.281C71.1967 173.468 71.3554 173.935 71.1647 174.335C70.8074 175.055 35.466 246.775 38.9114 264.161C38.9954 264.588 38.7194 265.001 38.2967 265.081L38.1447 265.095Z" fill="#FC9F07"/>
<path fill-rule="evenodd" clip-rule="evenodd" d="M58.226 265.588C58.226 265.588 49.1434 297.228 65.0127 304.855C80.882 312.481 99.0927 298.628 97.9941 285.148C96.8954 271.668 68.382 245.908 58.226 265.588Z" fill="#360B1E"/>
<path fill-rule="evenodd" clip-rule="evenodd" d="M207.635 121.641C207.635 121.641 211.391 117.307 213.789 118.387C216.189 119.467 217.58 120.481 219.517 120.121C221.457 119.761 213.124 123.067 213.124 123.067L207.635 121.641Z" fill="#360B1E"/>
<path fill-rule="evenodd" clip-rule="evenodd" d="M55.0879 244.828C55.0879 244.828 55.8225 294.934 72.2639 295.988C88.7052 297.041 105.811 284.934 115.705 272.894C125.601 260.841 140.128 244.054 146.268 242.174C152.41 240.294 163.687 233.961 159.733 227.948C155.781 221.934 138.691 228.734 134.307 232.428C129.923 236.121 114.856 250.481 111.704 247.588C108.553 244.694 66.6092 230.401 55.0879 244.828Z" fill="#C39D87"/>
<path fill-rule="evenodd" clip-rule="evenodd" d="M153.299 162.361C153.299 162.361 146.359 190.814 145.047 210.667C143.732 230.521 140.85 234.187 143.598 241.361C145.712 246.894 135.042 334.601 148.334 395.947C151.348 409.854 162.821 423.841 162.821 423.841L146.716 421.201C146.716 421.201 132.246 403.334 131.098 395.974C123.934 349.961 124.856 264.081 124.596 255.587C124.283 245.361 122.544 233.174 126.392 219.547C130.243 205.921 138.505 163.067 138.505 163.067L153.299 162.361Z" fill="#360B1E"/>
<path fill-rule="evenodd" clip-rule="evenodd" d="M88.1245 219.748C88.1245 219.748 105.767 205.948 112.055 204.601C118.345 203.241 140.471 198.948 141.91 202.415C143.344 205.895 132.69 214.681 127.814 216.535C122.937 218.388 114.745 218.708 114.745 218.708L109.842 218.975C109.842 218.975 132.633 233.228 137.759 237.295C142.887 241.361 147.058 248.721 141.69 250.041C136.324 251.375 126.24 245.108 126.24 245.108C126.24 245.108 137.09 259.401 131.667 260.335C126.243 261.268 91.6418 239.508 93.7152 241.001C95.7898 242.508 109.994 269.828 104.742 271.935C99.4912 274.041 82.0432 254.788 82.0432 254.788C82.0432 254.788 70.8219 256.215 68.0499 258.388C65.2779 260.548 54.7458 263.868 53.9711 261.388C53.1965 258.921 51.2578 244.308 54.4058 241.895C57.5525 239.481 60.0071 237.268 60.0071 237.268C60.0071 237.268 58.6325 231.401 63.1632 229.295C67.6952 227.201 70.2325 226.948 70.2325 226.948C70.2325 226.948 71.1645 220.668 76.7325 220.015C82.3005 219.361 88.1245 219.748 88.1245 219.748Z" fill="#FFCDB2"/>
<path d="M205.207 202.388L205.015 202.361C204.597 202.254 204.343 201.828 204.449 201.414C206.15 194.668 211.118 187.414 212.722 185.188C209.043 182.788 191.677 171.388 182.446 164.108C178.975 161.374 177.03 158.254 176.667 154.841C176.134 149.801 179.221 146.014 179.353 145.854C179.629 145.521 180.119 145.481 180.451 145.761C180.783 146.028 180.83 146.521 180.557 146.854C180.529 146.894 177.751 150.321 178.222 154.681C178.545 157.668 180.291 160.428 183.413 162.881C193.666 170.961 214.062 184.201 214.267 184.334C214.45 184.441 214.574 184.628 214.611 184.854C214.65 185.068 214.597 185.281 214.465 185.454C214.399 185.548 207.882 194.188 205.965 201.801C205.874 202.148 205.557 202.388 205.207 202.388Z" fill="#360B1E"/>
<path d="M132.992 257.708C132.608 257.708 132.274 257.415 132.219 257.028C131.204 249.775 118.435 239.068 110.804 232.681C108.884 231.068 107.227 229.681 106.12 228.655C101.8 224.641 78.5763 227.615 69.9923 229.095C69.563 229.175 69.1617 228.881 69.0897 228.468C69.0163 228.041 69.3003 227.628 69.7257 227.561C72.963 227.001 101.514 222.255 107.183 227.508C108.262 228.508 109.904 229.881 111.808 231.481C120.115 238.441 132.668 248.961 133.767 256.815C133.827 257.241 133.528 257.641 133.102 257.695L132.992 257.708Z" fill="#360B1E"/>
<path d="M139.036 237.588C138.908 237.588 138.778 237.548 138.658 237.481C137.719 236.961 135.362 235.481 132.379 233.601C125.016 228.974 111.311 220.348 108.794 220.041C105.216 219.615 78.939 220.521 78.6736 220.521C78.2256 220.535 77.8804 220.201 77.8657 219.775C77.851 219.348 78.1883 218.975 78.6203 218.961C79.707 218.935 105.283 218.055 108.98 218.495C111.627 218.815 121.951 225.201 133.211 232.281C136.174 234.148 138.515 235.615 139.416 236.121C139.794 236.335 139.93 236.801 139.72 237.175C139.578 237.441 139.311 237.588 139.036 237.588Z" fill="#360B1E"/>
<path d="M103.869 273.441C101.562 273.441 96.0634 269.388 89.0874 262.521C79.7301 253.308 80.3288 248.255 80.3594 248.041C80.4194 247.615 80.8141 247.321 81.2434 247.375C81.6661 247.441 81.9621 247.828 81.9074 248.255C81.8994 248.348 81.5581 252.908 90.1848 261.401C99.0728 270.148 103.03 271.948 103.847 271.881C104.123 271.641 104.543 271.628 104.842 271.855C105.183 272.121 105.245 272.615 104.979 272.948C104.821 273.161 104.521 273.401 103.987 273.441H103.869Z" fill="#360B1E"/>
<path d="M175.689 188.534C175.51 188.534 175.33 188.468 175.184 188.348C160.381 175.761 157.781 162.414 157.677 161.854C157.6 161.428 157.88 161.014 158.304 160.934C158.736 160.867 159.136 161.148 159.214 161.561C159.238 161.694 161.844 174.961 176.196 187.161C176.524 187.428 176.565 187.934 176.285 188.254C176.13 188.441 175.91 188.534 175.689 188.534Z" fill="#360B1E"/>
<path fill-rule="evenodd" clip-rule="evenodd" d="M291.811 176.335C291.811 176.335 275.283 230.428 275.474 270.748C275.594 295.868 278.892 344.135 275.794 380.161C273.918 401.948 265.018 421.948 265.018 421.948H289.899C289.899 421.948 297.392 402.881 297.4 395.935C297.435 365.535 290.182 295.802 291.826 264.695C293.843 226.508 303.766 180.442 303.766 180.442L291.811 176.335Z" fill="#360B1E"/>
<path d="M237.22 377.428C236.815 377.428 236.472 377.108 236.442 376.694C236.358 375.548 227.926 260.801 222.424 225.361C217.024 190.574 212.854 185.108 212.678 184.894C212.41 184.561 212.452 184.068 212.778 183.801C213.103 183.521 213.584 183.548 213.864 183.868C214.048 184.081 218.428 189.428 223.968 225.121C229.479 260.628 237.916 375.428 238 376.588C238.032 377.014 237.71 377.388 237.279 377.414L237.22 377.428Z" fill="#360B1E"/>
<path d="M25.9532 250.734L25.7212 250.694C25.3092 250.561 25.0785 250.121 25.2078 249.708C26.1665 246.628 48.8852 174.068 65.0798 169.454C80.9598 164.934 154.877 161.774 158.016 161.641C158.46 161.601 158.811 161.961 158.829 162.388C158.848 162.814 158.513 163.188 158.081 163.201C157.315 163.228 81.2105 166.494 65.5078 170.961C50.1185 175.334 26.9319 249.428 26.6999 250.174C26.5959 250.508 26.2865 250.734 25.9532 250.734Z" fill="#360B1E"/>
<path fill-rule="evenodd" clip-rule="evenodd" d="M262.704 72.4149L261.896 80.6816C261.896 80.6816 264.034 75.2683 266.334 75.0549C268.635 74.8416 270.552 74.6282 270.552 74.6282L270.695 72.5216L262.704 72.4149Z" fill="#360B1E"/>
<path d="M269.385 73.2812C263.411 73.2812 252.857 72.2545 235.985 67.5212C225.112 64.4812 213.881 58.7212 203.02 53.1479C188.556 45.7346 174.892 38.7212 163.508 38.7212H163.399C155.463 38.7479 154.46 47.0412 154.421 47.3879C154.375 47.8145 153.999 48.1346 153.559 48.0812C153.131 48.0279 152.821 47.6412 152.868 47.2146C152.879 47.1212 154.079 37.1878 163.392 37.1612H163.508C175.269 37.1612 189.096 44.2412 203.733 51.7612C214.525 57.2945 225.685 63.0145 236.407 66.0278C264.961 74.0145 275.283 71.2145 275.383 71.1879C275.799 71.0679 276.231 71.2946 276.352 71.7079C276.473 72.1346 276.239 72.5612 275.827 72.6812C275.648 72.7346 273.723 73.2812 269.385 73.2812Z" fill="#FC9F07"/>
<path d="M230.348 208.708C229.958 208.708 229.621 208.415 229.573 208.015C229.226 205.135 227.676 190.628 231.19 187.975C231.688 187.601 232.526 187.255 233.698 187.748C236.605 188.975 238.658 192.535 240.469 195.668C242.268 198.775 243.968 201.708 245.753 201.081C250.634 199.335 277.762 177.975 278.493 172.375C279.3 166.201 267.397 147.201 263.754 145.815C263.352 145.668 263.148 145.215 263.301 144.801C263.454 144.401 263.905 144.201 264.309 144.348C268.556 145.961 280.949 165.641 280.042 172.575C279.178 179.188 251.078 200.828 246.278 202.548C243.261 203.628 241.249 200.135 239.116 196.441C237.428 193.521 235.514 190.215 233.09 189.188C232.572 188.975 232.316 189.081 232.13 189.228C229.964 190.855 230.364 201.508 231.124 207.828C231.176 208.268 230.87 208.655 230.441 208.708H230.348Z" fill="#360B1E"/>
<path fill-rule="evenodd" clip-rule="evenodd" d="M289.804 368.654L289.773 377.534L274.126 383.388L243.986 380.868L274.605 379.734L286.658 374.388L289.804 368.654Z" fill="#FFF8EF"/>
<path fill-rule="evenodd" clip-rule="evenodd" d="M298.727 299.601L294.817 376.614L277.488 383.388L249.564 380.054L237.752 371.601L239.48 294.934L254.747 289.334L284.891 290.908L298.727 299.601Z" fill="#F9C74F"/>
<path d="M280.132 308.882L248.48 306.335L241.182 297.068L250.02 305.815L281.403 308.228L282.812 307.682L283.29 307.722C282.166 308.122 281.099 308.508 280.132 308.882Z" fill="#FFFFFE"/>
<path d="M281.393 365.841L249.185 364.134L243.092 359.507L243.558 329.667L255.494 334.227L274.252 335.641C273.89 335.801 273.532 335.947 273.174 336.094C266.968 338.627 256.91 342.601 254.604 347.841C254.016 348.134 253.689 348.307 253.689 348.307C253.689 348.307 253.881 348.547 254.246 348.934C254.16 349.307 254.117 349.707 254.122 350.107C254.162 353.081 257.329 354.161 261.244 354.161C264.662 354.161 268.65 353.334 271.624 352.241C272.772 351.827 274.029 351.227 275.337 350.521C282.069 348.507 289.142 346.041 290.852 345.761C290.965 345.747 291.077 345.734 291.188 345.734C291.317 345.734 291.445 345.747 291.572 345.774L290.304 361.774L281.393 365.841Z" fill="#FBAA1A"/>
<path d="M281.374 332.534L243.56 329.641V329.667L243.404 329.614L255.972 326.854L280.635 328.708L285.68 330.641C284.29 331.241 282.843 331.881 281.374 332.534Z" fill="#DAA421"/>
<path d="M274.252 335.642L255.495 334.228L243.559 329.668V329.642L281.372 332.535C279.016 333.588 276.6 334.668 274.252 335.642Z" fill="#DB9D13"/>
<path d="M295.722 350.708C295.691 350.628 293.994 346.215 291.572 345.775L291.823 342.615C292.106 342.628 292.395 342.641 292.688 342.641C293.82 342.641 295.027 342.521 296.258 342.308L295.723 350.708H295.722Z" fill="#C5982C"/>
<path d="M275.337 350.521C281.061 347.441 287.741 342.468 290.417 342.468C290.521 342.468 290.619 342.481 290.709 342.495C291.068 342.548 291.44 342.588 291.823 342.615L291.572 345.775C291.445 345.748 291.317 345.735 291.188 345.735C291.077 345.735 290.965 345.748 290.852 345.761C289.143 346.041 282.069 348.508 275.337 350.521ZM254.247 348.935C253.881 348.548 253.689 348.308 253.689 348.308C253.689 348.308 254.016 348.135 254.604 347.842C254.448 348.202 254.328 348.561 254.247 348.935Z" fill="#C58E19"/>
<path d="M297.734 319.147L297.83 317.227C297.838 317.227 297.848 317.227 297.856 317.241L297.734 319.147Z" fill="#C3A767"/>
<path d="M286.43 330.308C286.019 328.748 284.355 326.868 280.82 326.294C275.058 325.374 265.746 324.627 264.018 322.201C265.715 323.401 268.335 323.801 270.971 323.801C272.763 323.801 274.562 323.614 276.083 323.348C285.595 321.694 291.346 316.294 293.547 316.294C294.46 316.294 296.119 316.694 297.832 317.228L297.736 319.148L297.306 325.894C295.959 326.694 294.543 327.374 293.215 327.761C291.29 328.321 288.962 329.228 286.43 330.308Z" fill="#C5982C"/>
<path fill-rule="evenodd" clip-rule="evenodd" d="M365.581 345.548C365.581 345.548 359.92 336.534 356.025 334.628C352.132 332.734 347.413 331.721 345.431 330.108C343.451 328.494 342.19 323.214 338.722 321.348C335.254 319.481 335.417 318.588 333.745 316.974C332.074 315.374 328.109 309.788 325.25 308.228C322.392 306.668 318.058 306.841 313.93 305.761C308.452 304.334 304.039 302.228 299.277 302.908C294.514 303.601 278.231 309.361 275.638 310.708C273.045 312.068 261.148 315.081 262.253 319.681C263.358 324.281 271.171 324.214 276.082 323.348C285.594 321.694 291.345 316.294 293.546 316.294C295.749 316.281 302.293 318.614 303.486 319.601C304.682 320.588 298.301 326.281 293.214 327.761C288.13 329.241 280.247 333.201 273.175 336.094C266.105 338.974 254.039 343.748 254.123 350.108C254.198 355.681 265.249 354.588 271.625 352.241C278 349.908 287.722 341.988 290.71 342.494C294.058 343.054 298.52 341.961 302.364 340.868C306.762 339.614 310.351 338.361 310.542 339.588C310.898 341.881 294.526 347.361 295.339 352.588C296.151 357.814 297.484 359.414 301.125 359.068C304.766 358.734 323.706 354.641 323.706 354.641C328.109 354.014 327.586 355.814 323.993 357.428C320.403 359.041 307.09 362.494 307.356 364.828C307.62 367.161 307.413 370.868 312.938 371.174C315.051 371.294 318.369 371.068 321.956 370.841C327.75 370.468 334.249 370.094 337.507 371.201C342.785 372.961 349.261 376.361 353.287 373.668C357.314 370.988 359.393 370.401 362.023 369.721C364.653 369.041 370.055 365.908 369.762 357.414C369.469 348.934 365.581 345.548 365.581 345.548Z" fill="#FFCDB2"/>
<path d="M282.81 307.682L249.741 305.095L240.696 296.455L241.18 297.068L240.205 296.108L254.676 290.442L284.897 292.122L296.244 299.922L290.457 304.775L282.81 307.682Z" fill="#FBDE98"/>
<path d="M281.403 308.228L250.02 305.814L241.181 297.067L240.697 296.454L249.743 305.094L282.812 307.681L281.403 308.228Z" fill="#FFFFFE"/>
<path d="M332.39 316.548C332.163 316.548 331.941 316.441 331.786 316.254C330.149 314.268 325.295 308.921 322.527 308.068C318.474 306.814 303.359 304.121 300.37 303.601C295.383 302.708 273.675 312.014 265.729 315.668C265.337 315.841 264.874 315.668 264.693 315.281C264.513 314.881 264.684 314.428 265.076 314.241C266.262 313.695 294.154 300.908 300.642 302.054C303.647 302.588 318.845 305.295 322.987 306.575C326.769 307.735 332.741 314.961 332.993 315.268C333.267 315.601 333.218 316.094 332.885 316.361C332.741 316.481 332.565 316.548 332.39 316.548Z" fill="#360B1E"/>
<path d="M254.123 350.882H254.116C253.69 350.882 253.344 350.535 253.342 350.108C253.34 349.882 253.439 344.375 264.76 338.935C276.062 333.508 301.264 323.962 306.246 323.215C306.67 323.148 307.071 323.442 307.135 323.868C307.199 324.295 306.904 324.695 306.478 324.762C301.587 325.495 276.655 334.962 265.436 340.348C255.139 345.282 254.906 350.068 254.904 350.108C254.894 350.535 254.547 350.882 254.123 350.882Z" fill="#360B1E"/>
<path d="M70.0255 326.921C66.8001 326.921 63.3281 326.241 59.6414 324.614C49.2961 320.028 43.2028 313.574 41.5321 305.428C38.0974 288.694 54.3735 270.947 55.0681 270.201C55.3628 269.881 55.8574 269.868 56.1721 270.161C56.4881 270.454 56.5055 270.947 56.2121 271.267C56.0481 271.441 39.7881 289.174 43.0628 305.121C44.6281 312.734 50.4188 318.814 60.2748 323.188C80.5628 332.174 93.7148 310.907 94.2655 310.001C94.4881 309.627 94.9681 309.507 95.3375 309.734C95.7068 309.947 95.8254 310.427 95.6028 310.801C95.4854 311.001 85.6601 326.921 70.0255 326.921Z" fill="#360B1E"/>
<path d="M356.98 304.255C356.564 304.255 356.219 303.922 356.2 303.508C355.96 298.122 348.667 218.868 348.593 218.068C348.553 217.641 348.869 217.268 349.3 217.228C349.736 217.201 350.109 217.495 350.149 217.935C350.449 221.201 357.52 298.015 357.761 303.442C357.78 303.868 357.445 304.228 357.015 304.255H356.98Z" fill="#FC9F07"/>
<path d="M341.369 317.935C340.945 317.935 340.597 317.601 340.588 317.175C340.515 313.508 340.46 309.828 340.405 306.161C340.056 282.801 339.728 260.748 334.708 245.708C334.572 245.295 334.793 244.855 335.201 244.708C335.611 244.575 336.055 244.801 336.189 245.215C341.287 260.481 341.617 282.655 341.967 306.135C342.023 309.801 342.077 313.481 342.151 317.148C342.16 317.575 341.817 317.935 341.385 317.935H341.369Z" fill="#FC9F07"/>
<path fill-rule="evenodd" clip-rule="evenodd" d="M246.957 74.3742C246.957 74.3742 239.851 75.9875 240.351 77.6008C240.606 78.4275 244.966 80.4009 250.186 80.2809C255.206 80.1609 259.89 77.5475 260.027 76.8275C260.306 75.3608 246.957 74.3742 246.957 74.3742Z" fill="white"/>
<path fill-rule="evenodd" clip-rule="evenodd" d="M238.164 76.481C238.164 76.481 243.992 72.6276 249.016 73.2676C254.041 73.8943 262.719 77.1343 262.719 77.1343C262.719 77.1343 252.849 75.8543 249.023 75.8543C245.196 75.8543 240.137 77.001 241.488 78.0144C242.837 79.0277 249.7 80.3877 249.7 80.3877C249.7 80.3877 238.547 80.2144 238.164 76.481Z" fill="#360B1E"/>
<path fill-rule="evenodd" clip-rule="evenodd" d="M248.248 74.535C248.248 74.535 248.537 78.8018 252.193 78.7084C255.848 78.6151 255.579 75.4817 255.579 75.4817L248.248 74.535Z" fill="#360B1E"/>
<path fill-rule="evenodd" clip-rule="evenodd" d="M261.031 76.8544C261.031 76.8544 258.315 79.0944 256.528 79.5477C254.744 80.0144 252.752 79.961 252.752 79.961C252.752 79.961 260.203 77.2677 259.741 76.6943C259.281 76.121 261.031 76.8544 261.031 76.8544Z" fill="#360B1E"/>
<path fill-rule="evenodd" clip-rule="evenodd" d="M214.906 76.7481C214.906 76.7481 208.723 82.5347 205.64 83.4547C202.558 84.3881 192.707 79.8415 192.707 79.8415C192.707 79.8415 201.366 80.5481 204.839 79.8148C208.312 79.0681 214.906 76.7481 214.906 76.7481Z" fill="#C49D88"/>
<path fill-rule="evenodd" clip-rule="evenodd" d="M236.449 79.8946C236.449 79.8946 242.632 85.6679 245.715 86.6012C248.797 87.5346 258.648 82.988 258.648 82.988C258.648 82.988 249.991 83.6946 246.516 82.948C243.043 82.2146 236.449 79.8946 236.449 79.8946Z" fill="#C49D88"/>
<path d="M239.102 358.348L240.382 302.081L243.567 301.974L239.102 358.348Z" fill="#FEFAF0"/>
<path fill-rule="evenodd" clip-rule="evenodd" d="M217.068 105.614L237.631 106.601C237.631 106.601 232.038 109.708 227.514 108.948C222.992 108.188 217.068 105.614 217.068 105.614Z" fill="#360B1E"/>
<path fill-rule="evenodd" clip-rule="evenodd" d="M265.421 33.6682C265.421 33.6682 266.052 36.0416 266.939 40.7216C267.827 45.4016 268.967 52.375 268.967 52.375C268.967 52.375 253.548 58.7349 236.555 57.0682C219.561 55.3882 195.336 48.0682 195.336 48.0682L174.336 39.5349L177.233 30.2816C177.233 30.2816 207.587 38.2949 233.743 39.1349C259.899 39.9749 265.421 33.6682 265.421 33.6682Z" fill="#FC9F07"/>
<path d="M129.037 416.201L128.945 416.188C127.962 416.068 104.829 413.308 101.462 406.801C98.029 400.161 90.697 359.895 94.7023 327.321C94.7543 326.895 95.1423 326.575 95.573 326.641C96.001 326.695 96.3063 327.081 96.253 327.508C92.3557 359.215 99.5757 399.748 102.85 406.081C105.329 410.881 122.658 413.881 129.126 414.641C129.554 414.681 129.862 415.081 129.812 415.508C129.766 415.908 129.428 416.201 129.037 416.201Z" fill="#360B1E"/>
<path d="M40.1812 351.335C35.5812 351.335 31.9653 351.042 30.2719 350.428C23.1506 347.802 2.68794 312.162 0.682609 298.908C-1.34139 285.522 37.1213 264.468 38.7586 263.575C39.1372 263.362 39.6133 263.508 39.8186 263.882C40.0239 264.268 39.8839 264.735 39.5053 264.948C39.1133 265.162 0.366588 286.362 2.22792 298.668C4.29859 312.375 24.7786 346.735 30.8119 348.962C37.1252 351.282 74.2679 348.348 81.6906 344.068C82.0653 343.855 82.5426 343.988 82.7573 344.362C82.9733 344.735 82.8439 345.215 82.4693 345.428C76.6119 348.802 53.9839 351.335 40.1812 351.335Z" fill="#360B1E"/>
</svg>
