<svg width="343" height="971" viewBox="0 0 343 971" fill="none" xmlns="http://www.w3.org/2000/svg">
<path fill-rule="evenodd" clip-rule="evenodd" d="M69.5293 950.602C69.5293 939.81 130.526 931.061 205.795 931.061C281.047 931.061 342.044 939.81 342.044 950.602C342.044 961.392 281.047 970.141 205.795 970.141C130.526 970.141 69.5293 961.392 69.5293 950.602Z" fill="#360B1E"/>
<path fill-rule="evenodd" clip-rule="evenodd" d="M193.612 901.183C193.612 901.183 145.957 933.286 136.113 932.978C126.284 932.668 113.909 936.362 113.953 941.538C113.998 946.716 178.198 947.786 189.308 948.083C200.462 948.383 204.781 941.042 204.781 941.042L209.949 949.839L229.994 950.605L238.289 899.308L193.612 901.183Z" fill="#979C16"/>
<path fill-rule="evenodd" clip-rule="evenodd" d="M255.043 422.551C255.043 422.551 274.43 454.474 275.61 516.039C277.714 625.362 260.567 811.977 244.631 890.859C238.804 919.757 192.146 906.704 187.06 906.704C173.939 906.704 176.875 786.966 170.292 678.677C165.131 593.885 148.938 514.739 148.938 514.739C148.938 514.739 231.57 357.323 255.043 422.551Z" fill="#360B1E"/>
<path fill-rule="evenodd" clip-rule="evenodd" d="M85.1759 411.436C79.0809 428.83 37.242 686.867 47.6906 709.481C58.1245 732.092 201.69 899.306 201.69 899.306L216.404 811.234L131.221 670.939L181.192 515.881L198.134 394.652C198.134 394.652 91.2562 394.042 85.1759 411.436Z" fill="#360B1E"/>
<path fill-rule="evenodd" clip-rule="evenodd" d="M145.229 53.0831C145.229 53.0831 168.513 -5.42733 196.217 0.41622C223.937 6.25977 240.508 61.0094 246.846 60.6498C253.154 60.2752 145.229 53.0831 145.229 53.0831Z" fill="#360B1E"/>
<path fill-rule="evenodd" clip-rule="evenodd" d="M160.47 24.4273C160.47 24.4273 181.68 28.9288 192.665 33.9071C203.635 38.8854 219.389 39.0493 219.389 39.0493L232.387 37.8122L240.376 52.6278C240.376 52.6278 206.422 53.1644 195.675 50.9435C184.899 48.7376 152.48 37.7525 152.48 37.7525L157.012 29.7783L160.47 24.4273Z" fill="#979C16"/>
<path fill-rule="evenodd" clip-rule="evenodd" d="M78.369 421.559L78.077 342.764C78.077 342.764 15.3026 358.832 4.86835 335.955C-5.55052 313.08 13.1818 281.854 22.4174 253.778C31.6377 225.687 43.6086 167.953 55.6871 161.822C67.7656 155.69 106.122 162.221 115.834 156.428C125.53 150.619 140.682 133.915 149.687 136.543C158.677 139.171 223.88 130.027 231.072 138.095C234.944 142.428 238.74 146.916 241.26 151.28C243.442 155.045 244.287 158.887 248.39 160.254C257.257 163.205 302.836 157.55 302.221 181.553C301.606 205.556 315.683 360.578 311.533 370.053C309.136 375.598 309.52 397.615 299.778 417.668C292.34 432.966 280.569 446.864 279.969 448.736C278.617 453.244 271.702 472.996 266.016 476.435C260.33 479.877 202.058 486.937 195.051 480.31C188.059 473.681 148.95 421.396 147.982 428.629C146.983 435.863 146.045 460.917 146.045 460.917C146.045 460.917 78.5841 429.991 78.369 421.559Z" fill="#979C16"/>
<path fill-rule="evenodd" clip-rule="evenodd" d="M149.711 140.153C149.711 140.153 180.132 267.302 184.424 262.593C186.296 260.558 195.535 238.263 205.354 213.293C218.217 180.555 232.031 143.213 231.333 140.896C230.145 136.826 226.936 135.013 226.936 135.013C226.936 135.013 197.243 171.108 188.702 171.435C180.132 171.762 156.232 156.685 149.711 140.153Z" fill="white"/>
<path fill-rule="evenodd" clip-rule="evenodd" d="M214.768 154.207C214.768 154.207 228.488 139.123 226.842 135.875C225.21 132.611 149.092 129.319 147.846 135.489C147.416 137.551 150.575 145.352 155.499 150.87C165.422 161.979 181.93 172.925 186.736 172.614C193.929 172.139 214.768 154.207 214.768 154.207Z" fill="#360B1E"/>
<path fill-rule="evenodd" clip-rule="evenodd" d="M155.888 150.354L152.963 117.509L219.23 101.448L215.61 153.62C215.61 153.62 192.96 173.035 186.99 173.005C181.006 172.99 155.888 150.354 155.888 150.354Z" fill="#FFCDB2"/>
<path fill-rule="evenodd" clip-rule="evenodd" d="M145.376 87.3942C145.376 87.3942 68.5139 60.4373 113.972 45.5671C159.429 30.6818 166.978 44.5989 210.998 50.6952C255.019 56.7764 276.605 50.544 270.222 68.0312C263.808 85.5033 240.315 104.397 215.446 108.754C190.591 113.126 146.964 89.2851 145.376 87.3942Z" fill="#12130F"/>
<path fill-rule="evenodd" clip-rule="evenodd" d="M153.238 121.164L155.29 143.954C155.29 143.954 172.294 157.179 188.987 152.544C208.958 146.98 216.751 110.876 216.751 110.876L153.238 121.164Z" fill="#360B1E"/>
<path fill-rule="evenodd" clip-rule="evenodd" d="M151.098 53.4894C151.098 53.4894 141.591 89.8011 145.411 105.771C149.217 121.74 159.903 140.903 171.156 141.843C207.946 144.873 223.378 97.4127 223.378 97.4127C223.378 97.4127 237.288 107.457 241.123 81.6373C243.571 65.0261 227.169 72.5631 227.169 72.5631C227.169 72.5631 226.378 75.0853 226.766 68.1006C227.169 60.683 207.244 51.4745 187.991 53.2207C168.753 54.9519 151.098 53.4894 151.098 53.4894Z" fill="#FFCDB2"/>
<path fill-rule="evenodd" clip-rule="evenodd" d="M226.394 84.6179L224.889 92.3509C224.889 92.3509 231.624 92.634 235.572 87.4339C239.506 82.2189 239.55 76.989 238.075 76.7506C236.6 76.5122 230.7 77.6298 226.394 84.6179Z" fill="#C49D88"/>
<path d="M226.297 85.297C226.163 85.297 226.014 85.2672 225.895 85.1927C225.522 84.9842 225.403 84.4927 225.612 84.1203C225.791 83.8224 229.991 76.8072 237.706 75.9731C238.123 75.9136 238.525 76.2413 238.555 76.6732C238.614 77.0902 238.302 77.4775 237.87 77.5222C230.914 78.2669 226.997 84.8501 226.967 84.9097C226.818 85.1629 226.565 85.297 226.297 85.297Z" fill="#360B1E"/>
<path d="M153.737 336.329C153.481 336.329 153.255 336.209 153.104 335.998C152.848 335.651 152.923 335.154 153.285 334.912C163.898 327.36 254.856 229.151 259.559 221.765C260.493 220.303 260.75 218.961 260.388 217.665C259.348 214.062 253.544 211.303 248.434 208.861C246.64 208.002 244.922 207.188 243.49 206.374C242.977 206.088 241.44 205.213 241.485 203.781C241.56 201.807 244.59 200.359 248.796 198.34C252.896 196.38 258.006 193.938 260.554 190.667C264.564 185.511 246.188 158.528 232.32 140.891C230.028 148.278 219.22 182.994 208.201 212.479C195.855 245.522 154.989 324.014 154.567 324.797C154.371 325.174 153.903 325.325 153.511 325.129C153.135 324.933 152.984 324.466 153.18 324.074C153.602 323.29 194.408 244.889 206.739 211.937C219.069 178.954 231.129 139.414 231.249 139.007C231.34 138.736 231.566 138.525 231.852 138.48C232.139 138.419 232.44 138.525 232.606 138.751C236.254 143.334 267.955 183.702 261.79 191.631C259.016 195.174 253.725 197.721 249.474 199.756C246.474 201.188 243.083 202.817 243.053 203.842C243.037 204.143 243.49 204.58 244.258 205.017C245.645 205.816 247.334 206.615 249.097 207.459C254.509 210.037 260.644 212.946 261.895 217.228C262.378 218.961 262.046 220.77 260.87 222.609C256.167 230.026 164.847 328.611 154.175 336.179C154.054 336.284 153.888 336.329 153.737 336.329Z" fill="#360B1E"/>
<path d="M207.988 204.435C207.752 204.435 207.502 204.302 207.355 204.082C198.587 191.165 188.347 177.056 186.611 176.409H186.582C184.684 176.409 174.283 186.354 165.279 196.049C164.985 196.358 164.485 196.387 164.161 196.093C163.852 195.799 163.837 195.299 164.132 194.99C170.046 188.619 184.066 173.908 187.097 174.923C190.039 175.894 205.56 198.653 208.65 203.214C208.885 203.567 208.797 204.052 208.429 204.302C208.297 204.391 208.15 204.435 207.988 204.435Z" fill="#360B1E"/>
<path fill-rule="evenodd" clip-rule="evenodd" d="M130.709 249.441C130.709 249.441 136.787 235.595 141.53 225.949C146.257 216.318 149.634 213.426 158.663 203.501C167.663 193.59 177.559 175.796 179.806 181.698C182.067 187.615 165.314 209.52 170.057 208.962C174.828 208.404 181.215 204.558 186.354 197.995C191.492 191.417 193.709 173.035 197.997 178.879C202.284 184.708 200.419 198.641 202.21 208.566C204.016 218.506 197.791 248.281 195.178 255.123C192.594 261.95 165.197 286.101 159.589 288.406C153.965 290.712 142.234 293.443 142.234 293.443C142.234 293.443 135.025 254.858 130.709 249.441Z" fill="#FFCDB2"/>
<path d="M36.9303 348.434C21.002 348.434 6.40803 345.205 3.09321 333.94C-3.07723 312.918 4.72918 294.966 13.0091 275.952C16.9696 266.84 21.0593 257.427 23.8145 247.267C24.6755 244.038 25.5938 240.566 26.5552 236.921C35.1221 204.505 46.846 160.106 60.3636 159.303C60.7941 159.303 61.1672 159.618 61.1816 160.049C61.2103 160.479 60.8945 160.838 60.4497 160.867C48.0657 161.598 36.0406 207.174 28.0764 237.323C27.115 240.967 26.1966 244.455 25.3212 247.683C22.5517 257.943 18.419 267.414 14.444 276.584C6.29331 295.325 -1.41265 313.018 4.59995 333.495C10.8421 354.776 61.9564 345.162 78.7457 341.991C98.032 338.36 140.995 320.939 147.84 318.141C146.979 316.749 145.501 313.449 143.995 306.03C143.765 304.882 143.478 303.39 143.134 301.653C140.436 287.906 134.093 255.705 130.721 249.821C128.267 245.574 111.507 252.634 99.2805 257.786C93.9136 260.039 88.8624 262.162 84.9879 263.454C71.4704 267.917 55.743 277.631 55.5851 277.732C55.2264 277.962 54.7384 277.847 54.5232 277.474C54.2792 277.115 54.394 276.627 54.7527 276.397C54.9249 276.297 70.7959 266.482 84.4857 261.961C88.3171 260.699 93.3395 258.589 98.6633 256.351C113.544 250.08 128.927 243.608 132.084 249.046C135.586 255.145 141.713 286.356 144.669 301.352C145.013 303.088 145.3 304.566 145.53 305.728C147.568 315.859 149.577 317.883 149.605 317.912C149.792 318.084 149.878 318.356 149.821 318.629C149.778 318.887 149.605 319.103 149.376 319.203C148.874 319.404 100.084 339.566 79.0327 343.526C70.4372 345.148 53.0022 348.434 36.9303 348.434Z" fill="#360B1E"/>
<path d="M195.184 481.766C194.965 481.766 194.76 481.677 194.613 481.504C192.521 479.144 143.266 423.58 142.344 412.279C141.451 401.182 144.978 333.264 145.124 330.381C145.153 329.957 145.548 329.635 145.944 329.649C146.383 329.664 146.719 330.03 146.69 330.469C146.646 331.171 143.002 401.16 143.909 412.153C144.787 422.939 195.257 479.891 195.77 480.466C196.062 480.788 196.033 481.283 195.696 481.568C195.55 481.701 195.374 481.766 195.184 481.766Z" fill="#360B1E"/>
<path d="M161.328 189.68C161.04 189.68 160.751 189.521 160.621 189.233C151.375 169.773 147.566 135.93 147.537 135.584C147.494 135.151 147.797 134.776 148.23 134.718C148.648 134.675 149.052 134.992 149.095 135.411C149.124 135.757 152.889 169.34 162.035 188.569C162.223 188.959 162.049 189.42 161.66 189.608L161.328 189.68Z" fill="#360B1E"/>
<path d="M130.032 243.449C129.688 243.449 129.387 243.22 129.272 242.876C129.229 242.675 123.318 222.058 119.301 210.739C118.454 208.372 118.684 206.349 119.946 204.699C123.504 200.108 134.623 200.165 139.013 200.381C135.097 195.302 122.271 177.512 122.07 161.63C121.826 142.98 147.177 134.989 148.267 134.659C148.683 134.544 149.099 134.773 149.242 135.175C149.357 135.591 149.128 136.036 148.712 136.165C148.468 136.237 123.404 144.127 123.619 161.616C123.849 179.42 141.136 200.553 141.337 200.768C141.524 201.012 141.553 201.356 141.409 201.629C141.266 201.916 140.95 202.074 140.649 202.045C140.491 202.031 125.039 200.682 121.18 205.66C120.233 206.865 120.104 208.357 120.764 210.223C124.81 221.585 130.735 242.244 130.778 242.445C130.907 242.861 130.663 243.292 130.247 243.421L130.032 243.449Z" fill="#360B1E"/>
<path fill-rule="evenodd" clip-rule="evenodd" d="M187.421 171.318C187.421 171.318 201.286 153.019 207.421 157.616C213.57 162.213 220.251 194.791 211.22 193.949C202.188 193.106 187.052 177.349 187.052 177.349C187.052 177.349 174.576 195.176 167.658 191.185C160.74 187.194 155.212 155.177 164.332 154.157C173.438 153.152 187.421 171.318 187.421 171.318Z" fill="#360B1E"/>
<path fill-rule="evenodd" clip-rule="evenodd" d="M151.179 52.7227L149.178 61.5576C149.178 61.5576 185.036 57.57 193.189 57.6886C212.785 57.9851 226.541 87.5431 226.541 87.5431L227.075 65.3376C227.075 65.3376 220.375 55.7319 208.709 53.4195C197.117 51.107 183.227 52.0705 170.375 52.6042C157.938 53.1378 151.179 52.7227 151.179 52.7227Z" fill="#C49D88"/>
<path fill-rule="evenodd" clip-rule="evenodd" d="M182.156 173.83C182.346 170.849 184.947 168.583 187.958 168.773C190.969 168.949 193.279 171.506 193.103 174.474C192.913 177.441 190.326 179.706 187.315 179.531C184.29 179.355 181.98 176.797 182.156 173.83Z" fill="#360B1E"/>
<path d="M163.426 336.915C162.312 336.915 161.212 337.321 160.402 338.044C159.577 338.768 159.099 339.752 159.041 340.793V340.808C158.969 341.864 159.331 342.892 160.054 343.702C160.85 344.599 161.979 345.149 163.223 345.222C164.439 345.294 165.654 344.874 166.537 344.093C167.362 343.369 167.839 342.385 167.897 341.329C167.955 340.273 167.593 339.245 166.884 338.435C166.074 337.523 164.96 336.988 163.701 336.915H163.426ZM163.527 346.784C163.383 346.784 163.267 346.784 163.137 346.77C161.472 346.683 159.968 345.959 158.882 344.744C157.884 343.615 157.392 342.183 157.479 340.707C157.565 339.245 158.231 337.87 159.36 336.872C160.561 335.801 162.138 335.266 163.802 335.353C165.466 335.454 166.971 336.177 168.057 337.393C169.055 338.522 169.547 339.954 169.46 341.43C169.373 342.892 168.708 344.252 167.579 345.265C166.465 346.249 165.032 346.784 163.527 346.784Z" fill="#360B1E"/>
<path d="M158.484 400.832C157.343 400.832 156.246 401.236 155.437 401.958C154.629 402.68 154.152 403.662 154.08 404.716V404.731C154.008 405.776 154.369 406.806 155.091 407.622C155.899 408.524 157.026 409.06 158.268 409.134C159.509 409.213 160.708 408.797 161.589 408.01C162.398 407.284 162.874 406.306 162.946 405.25C163.076 402.969 161.199 400.976 158.759 400.832H158.484ZM158.556 410.706C158.441 410.706 158.311 410.702 158.167 410.693C156.52 410.596 155.004 409.872 153.935 408.657C152.939 407.528 152.419 406.098 152.52 404.63C152.607 403.157 153.286 401.799 154.398 400.788C155.596 399.734 157.228 399.185 158.86 399.272C162.152 399.474 164.679 402.189 164.506 405.342C164.419 406.813 163.741 408.175 162.629 409.178C161.502 410.169 160.073 410.706 158.556 410.706Z" fill="#360B1E"/>
<path d="M217.036 336.747C215.926 336.747 214.831 337.147 214.002 337.872C213.188 338.597 212.715 339.574 212.641 340.639C212.522 342.919 214.387 344.902 216.844 345.05C218.057 345.124 219.271 344.709 220.144 343.925C220.958 343.2 221.461 342.223 221.506 341.172C221.58 340.107 221.21 339.085 220.499 338.272C219.7 337.369 218.575 336.821 217.317 336.747H217.036ZM217.125 346.618C217.007 346.618 216.873 346.618 216.755 346.604C213.44 346.411 210.909 343.688 211.087 340.551C211.176 339.071 211.842 337.709 212.966 336.703C214.18 335.637 215.749 335.09 217.421 335.193C219.079 335.297 220.588 336.007 221.669 337.236C222.675 338.36 223.163 339.796 223.074 341.261C222.986 342.726 222.32 344.088 221.195 345.094C220.07 346.086 218.649 346.618 217.125 346.618Z" fill="#360B1E"/>
<path d="M208.91 403.047C208.791 405.336 210.668 407.316 213.106 407.464C215.515 407.606 217.643 405.865 217.791 403.573C217.924 401.29 216.047 399.308 213.594 399.165C212.368 399.087 211.171 399.492 210.269 400.291C209.456 401.017 208.969 401.994 208.91 403.047ZM213.387 409.033C213.269 409.033 213.136 409.032 213.018 409.023C209.708 408.826 207.181 406.104 207.343 402.957C207.447 401.488 208.112 400.126 209.235 399.124C210.447 398.045 212.028 397.504 213.698 397.605C217.008 397.8 219.535 400.52 219.342 403.669C219.165 406.697 216.52 409.033 213.387 409.033Z" fill="#360B1E"/>
<path d="M269.925 401.156C269.638 401.156 269.321 401.023 269.094 400.655C266.27 396.104 261.982 350.215 261.498 344.996C261.453 344.566 261.77 344.187 262.208 344.146C262.631 344.115 263.009 344.423 263.054 344.853C264.217 357.536 267.448 389.085 269.713 397.828C270.74 386.172 269.638 330.163 268.536 292.109C268.52 291.686 268.868 291.324 269.291 291.309C269.713 291.278 270.076 291.641 270.091 292.064C270.106 292.335 270.876 319.26 271.344 345.937C272.28 400.481 271.103 400.835 270.166 401.119L269.925 401.156Z" fill="#360B1E"/>
<path d="M272.121 418.685C271.803 418.685 271.532 418.512 271.396 418.221C270.973 417.263 265.776 416.703 262.665 416.366C258.737 415.943 255.037 415.544 253.405 414.491C252.71 414.05 252.574 413.479 252.559 413.078C252.514 411.359 255.097 409.449 259.296 406.477C261.97 404.605 264.976 402.484 265.958 400.953C264.054 400.315 253.692 402.551 244.75 405.105C244.327 405.223 243.904 404.983 243.783 404.569C243.662 404.153 243.904 403.721 244.312 403.602C252.227 401.348 265.716 397.888 267.362 400.066C267.559 400.336 267.831 400.913 267.302 401.737C266.184 403.54 263.148 405.682 260.203 407.755C257.771 409.472 254.085 412.069 254.115 413.044L254.251 413.177C255.565 414.029 259.432 414.446 262.831 414.813C268.541 415.43 272.075 415.892 272.831 417.586C272.997 417.981 272.831 418.443 272.423 418.617L272.121 418.685Z" fill="#360B1E"/>
<path fill-rule="evenodd" clip-rule="evenodd" d="M272.108 398.995L271.213 445.225C271.213 445.225 282.799 427.744 282.708 419.991C282.602 412.236 276.233 386.109 275.702 382.399C275.201 378.691 272.593 362.258 272.593 362.258L272.108 398.995Z" fill="#360B1E"/>
<path fill-rule="evenodd" clip-rule="evenodd" d="M215.419 68.4695C215.419 68.4695 186.344 70.4039 185.547 73.1652C184.779 75.9264 182.165 82.1874 187.54 88.404C192.871 94.5615 212.791 91.3868 216.364 84.8158C216.94 83.7822 216.955 81.9363 214.725 81.2423C209.704 79.6771 199.043 79.4704 199.294 75.4392C199.486 72.3678 217.752 68.5876 215.419 68.4695Z" fill="#C49D88"/>
<path fill-rule="evenodd" clip-rule="evenodd" d="M186.203 71.0496C186.203 71.0496 191.413 66.2976 196.239 65.6335C201.05 64.9694 207.307 66.7403 210.347 66.3714C213.402 66.0025 216.338 66.3123 216.265 68.4079C216.161 70.4887 209.033 73.2779 204.665 73.7944C200.326 74.3109 193.213 74.2667 190.203 74.1487C187.163 74.0454 183.827 73.0714 186.203 71.0496Z" fill="#360B1E"/>
<path fill-rule="evenodd" clip-rule="evenodd" d="M172.502 67.8132C171.778 69.8134 168.879 72.1324 167.154 72.1034C165.415 72.0889 153.413 70.3787 151.863 70.1178C150.326 69.8424 147.456 70.3642 147.674 68.8133C147.862 67.2624 146.094 64.6099 153.269 63.6388C160.458 62.6677 173.416 65.3201 172.502 67.8132Z" fill="#360B1E"/>
<path fill-rule="evenodd" clip-rule="evenodd" d="M197.979 80.9957C197.979 80.9957 186.296 82.9109 186.311 83.3971C186.311 83.8685 201.897 84.6935 205.448 84.2073C208.983 83.7064 212.21 81.8355 210.899 81.5114C209.617 81.1725 198.082 81.1725 197.979 80.9957Z" fill="white"/>
<path fill-rule="evenodd" clip-rule="evenodd" d="M157.419 78.4505C157.419 78.4505 145.544 79.0007 145.529 79.4786C145.486 79.9565 158.838 81.9984 162.415 81.9115C165.977 81.8391 171.35 80.391 170.09 79.9131C168.845 79.4352 157.477 78.6388 157.419 78.4505Z" fill="white"/>
<path fill-rule="evenodd" clip-rule="evenodd" d="M186.117 83.423C186.117 83.423 189.314 82.495 193.35 82.4508C197.401 82.3919 203.824 81.8174 206.461 81.7143C209.112 81.5964 212.014 81.4196 212.014 81.4196C212.014 81.4196 203.294 80.1528 200.303 80.3148C197.313 80.4621 188.931 81.8762 186.117 83.423Z" fill="#360B1E"/>
<path fill-rule="evenodd" clip-rule="evenodd" d="M145.178 79.6245C145.178 79.6245 148.436 78.9873 152.476 79.3059C156.501 79.6244 162.96 79.639 165.595 79.7693C168.231 79.8996 171.156 79.9865 171.156 79.9865C171.156 79.9865 162.583 77.9303 159.6 77.8144C156.603 77.6986 148.117 78.3357 145.178 79.6245Z" fill="#360B1E"/>
<path fill-rule="evenodd" clip-rule="evenodd" d="M193.342 82.0981C193.342 82.0981 193.342 83.8896 194.429 84.433C195.53 84.9616 200.743 84.6825 201.932 84.4182C203.136 84.1686 204.429 81.5695 204.429 81.5695L193.342 82.0981Z" fill="#360B1E"/>
<path fill-rule="evenodd" clip-rule="evenodd" d="M152.491 78.9583C152.491 78.9583 152.333 80.7481 153.357 81.3832C154.411 82.0183 159.622 82.206 160.849 82.0616C162.076 81.9173 163.591 79.449 163.591 79.449L152.491 78.9583Z" fill="#360B1E"/>
<path fill-rule="evenodd" clip-rule="evenodd" d="M169.301 105.159C169.301 105.159 176.349 106.604 179.895 106.4C183.456 106.21 189.497 103.933 189.497 103.933C189.497 103.933 183.675 109.712 179.253 109.552C174.846 109.406 169.301 105.159 169.301 105.159Z" fill="#360B1E"/>
<path fill-rule="evenodd" clip-rule="evenodd" d="M178.703 122.668C178.703 122.668 185.769 115.617 192.249 115.969C198.773 116.306 200.429 114.444 200.429 114.444C200.429 114.444 196.325 118.549 191.956 118.314C187.602 118.08 178.703 122.668 178.703 122.668Z" fill="#360B1E"/>
<path d="M221.344 104.035C221.211 104.035 221.077 104.006 220.944 103.931C220.573 103.709 220.454 103.219 220.677 102.863C227.546 91.306 226.374 54.1714 226.359 53.8005C226.344 53.3703 226.685 53.0143 227.115 52.9995C227.59 52.9401 227.902 53.311 227.931 53.7413C227.976 55.2842 229.118 91.7213 222.027 103.649C221.878 103.902 221.611 104.035 221.344 104.035Z" fill="#360B1E"/>
<path d="M180.894 228.623C180.718 228.623 180.512 228.55 180.366 228.418C180.057 228.11 180.043 227.625 180.336 227.302C180.527 227.112 199.532 207.05 200.442 199.375C201.366 191.612 197.991 180.297 197.947 180.18C197.829 179.769 198.064 179.328 198.475 179.211C198.886 179.079 199.326 179.314 199.444 179.725C199.59 180.194 202.951 191.48 201.997 199.566C201.029 207.74 182.273 227.552 181.466 228.388C181.305 228.55 181.114 228.623 180.894 228.623Z" fill="#360B1E"/>
<path d="M187.214 241.265C187.023 241.265 186.803 241.191 186.656 241.03C186.347 240.721 186.362 240.237 186.67 239.928C186.788 239.811 199.344 227.563 201.195 222.305C203.03 217.062 200.064 202.127 200.035 201.965C199.946 201.539 200.225 201.128 200.651 201.055C201.063 200.967 201.474 201.231 201.562 201.657C201.679 202.288 204.646 217.18 202.678 222.819C200.695 228.429 188.286 240.531 187.772 241.045C187.61 241.191 187.419 241.265 187.214 241.265Z" fill="#360B1E"/>
<path d="M170.354 209.783C170.237 209.783 170.12 209.769 170.018 209.754C169.462 209.666 169.038 209.359 168.804 208.862C167.678 206.552 171.568 199.489 172.781 197.383C173.001 197.003 173.483 196.871 173.849 197.09C174.229 197.31 174.346 197.778 174.127 198.158C171.509 202.72 169.637 207.517 170.222 208.204C172.752 208.555 183.734 201.697 186.41 196.871C189.174 191.928 192.786 180.946 192.83 180.844C192.962 180.434 193.4 180.2 193.81 180.347C194.234 180.478 194.453 180.917 194.307 181.326C194.161 181.78 190.607 192.557 187.785 197.631C184.977 202.676 174.083 209.783 170.354 209.783Z" fill="#360B1E"/>
<path fill-rule="evenodd" clip-rule="evenodd" d="M82.837 379.067C82.1706 386.42 65.2539 484.38 65.2539 484.38L142.946 494.832L160.332 440.103L207.977 494.704L279.43 500.945L274.599 448.483L186.926 427.356L134.95 429.066C134.95 429.066 83.5033 371.715 82.837 379.067Z" fill="#979C16"/>
<path fill-rule="evenodd" clip-rule="evenodd" d="M241.135 824.886C241.135 824.886 273.628 824.376 275.414 832.353C277.215 840.33 271.903 862.433 271.903 862.433L260.795 871.643L267.923 896.962C267.923 896.962 277.715 947.138 267.227 948.895C256.709 950.653 242.588 950.603 242.588 950.603C242.588 950.603 238.063 944.358 242.059 938.493C246.054 932.629 251.669 924.635 251.669 924.635L222.611 880.655L241.135 824.886Z" fill="#979C16"/>
</svg>
