<svg width="360" height="972" viewBox="0 0 360 972" fill="none" xmlns="http://www.w3.org/2000/svg">
<path fill-rule="evenodd" clip-rule="evenodd" d="M155.076 140.741L155.116 132.888C155.116 132.888 163.863 141.941 163.396 142.301C162.943 142.661 159.423 151.315 159.423 151.315L155.076 140.741Z" fill="#360B1E"/>
<path fill-rule="evenodd" clip-rule="evenodd" d="M20.7832 945.866C20.7832 931.896 81.1965 920.573 155.717 920.573C230.25 920.573 290.663 931.896 290.663 945.866C290.663 959.836 230.25 971.158 155.717 971.158C81.1965 971.158 20.7832 959.836 20.7832 945.866Z" fill="#12130F"/>
<path fill-rule="evenodd" clip-rule="evenodd" d="M99.4241 863.466C97.5708 864.738 84.5307 886.185 78.8641 899.21C73.1974 912.233 53.7841 937.786 63.1175 941.634C72.4241 945.478 102.437 938.818 113.877 922.663C125.317 906.507 131.064 882.979 131.197 877.174C131.304 871.366 101.291 862.194 99.4241 863.466Z" fill="#12130F"/>
<path fill-rule="evenodd" clip-rule="evenodd" d="M148.475 150.711C148.475 150.711 144.209 165.723 134.967 168.581C125.738 171.438 48.4908 172.094 42.0649 186.669C35.6527 201.243 -3.42223 338.744 0.241906 354.754C3.93338 370.778 28.5843 398.97 41.2857 397.575C53.9734 396.194 62.0262 388.552 62.0262 388.552C62.0262 388.552 53.0163 513.034 45.1959 561.797C37.3754 610.56 15.0487 726.828 29.76 733.266C44.4848 739.705 71.1729 741.547 71.1729 741.547C71.1729 741.547 71.1729 829.87 75.3155 842.752C79.4445 855.633 91.8588 874.495 91.8588 874.495C91.8588 874.495 132.807 890.137 136.485 880.016C140.163 869.894 134.844 754.402 135.787 745.069C135.938 743.703 157.54 747.33 157.54 747.33C157.54 747.33 154.887 834.471 152.126 856.553C149.377 878.635 141.543 935.678 154.887 943.498C168.231 951.317 225.285 951.317 228.498 925.557C231.711 899.795 245.52 760.867 245.52 760.867C245.52 760.867 293.058 776.582 294.029 765.44C294.999 754.298 297.857 620.842 297.57 598.278C297.255 575.714 289.872 503.726 289.872 503.726C289.872 503.726 337.438 528.307 340.828 522.88C344.219 517.451 360.407 404.452 359.04 374.538C357.659 344.609 326.842 200.669 315.972 191.194C305.089 181.706 259.739 183.251 253.887 178.056C248.049 172.86 237.658 153.158 233.119 147.526C231.971 146.131 229.059 141.428 223.398 137.695C221.689 136.574 219.051 135.549 217.014 134.715C198.474 127.113 166.659 130.887 148.475 150.711Z" fill="#360B1E"/>
<path fill-rule="evenodd" clip-rule="evenodd" d="M139.41 56.7681C139.41 56.7681 158.157 8.04803 165.33 7.07469C172.503 6.10136 182.13 5.12808 189.09 0.794744C196.063 -3.53859 212.117 10.3014 221.757 31.2614C231.383 52.2214 234.543 56.5813 228.663 62.6213C222.77 68.6613 139.41 56.7681 139.41 56.7681Z" fill="#360B1E"/>
<path fill-rule="evenodd" clip-rule="evenodd" d="M140.703 51.9281L149.143 34.4348C149.143 34.4348 177.396 25.7413 193.05 28.688C208.703 31.6347 225.13 38.4081 225.13 38.4081L228.783 46.3814L231.503 53.1681L140.703 51.9281Z" fill="#979C16"/>
<path fill-rule="evenodd" clip-rule="evenodd" d="M174.09 100.862C174.09 100.862 104.17 88.5151 106.743 73.4484C109.996 54.3017 138.036 51.5951 168.863 50.6084C199.69 49.6218 257.636 46.7284 255.983 66.4884C254.343 86.2484 219.25 100.008 203.53 101.355C187.836 102.715 174.09 100.862 174.09 100.862Z" fill="#360B1E"/>
<path fill-rule="evenodd" clip-rule="evenodd" d="M176.089 55.0349C176.089 55.0349 123.622 61.0348 115.076 69.2881C106.516 77.5281 135.062 84.1814 151.929 89.1548C168.782 94.1281 219.249 83.4615 227.182 75.9282C235.129 68.3949 253.302 58.6882 223.796 55.3949C194.289 52.0882 176.089 55.0349 176.089 55.0349Z" fill="#12130F"/>
<path fill-rule="evenodd" clip-rule="evenodd" d="M146.224 70.1154C146.224 70.1154 145.838 114.995 148.224 121.355C150.611 127.715 165.024 151.902 172.158 154.489C179.318 157.075 190.251 153.489 195.024 151.502C199.798 149.515 223.851 133.422 224.038 122.689C224.238 111.955 224.438 57.3021 224.438 57.3021C224.438 57.3021 188.478 56.702 174.758 58.2887C161.038 59.8887 146.224 70.1154 146.224 70.1154Z" fill="#FFCDB2"/>
<path fill-rule="evenodd" clip-rule="evenodd" d="M154.211 172.982L154.958 140.195C154.958 140.195 165.491 157.635 173.398 159.142C191.904 162.662 200.451 151.821 200.451 151.821L218.638 131.062L218.584 163.942C218.584 163.942 196.238 183.888 181.678 186.742C167.118 189.595 158.398 187.355 154.211 172.982Z" fill="#FFCDB2"/>
<path fill-rule="evenodd" clip-rule="evenodd" d="M148.743 150.46C148.743 150.46 151.049 164.514 156.943 171.047C162.849 177.58 174.343 187.167 181.623 185.127C188.903 183.1 204.169 175.487 210.383 169.554C216.596 163.62 228.063 149.86 227.543 146.847C227.049 143.834 224.943 138.847 227.836 140.954C230.743 143.06 241.316 148.94 240.329 162.98C239.356 177.02 219.636 205.22 207.996 222.247C196.356 239.287 175.543 268.527 168.076 264.46C160.609 260.38 141.583 223.7 138.716 210.087C135.876 196.474 134.716 169.714 135.943 164.407C137.143 159.114 145.289 148.94 148.743 150.46Z" fill="white"/>
<path fill-rule="evenodd" clip-rule="evenodd" d="M169.264 190.182C169.264 190.182 173.877 197.102 177.304 198.369C180.717 199.622 190.97 195.569 190.61 192.036C190.25 188.502 180.97 182.889 179.597 183.396C178.224 183.902 169.264 190.182 169.264 190.182Z" fill="#979C16"/>
<path d="M218.584 235.676C218.277 235.676 217.984 235.503 217.864 235.196C206.184 208.009 186.011 183.263 179.517 184.636C173.957 185.809 148.237 206.369 135.411 217.076C135.077 217.356 134.584 217.303 134.304 216.969C134.037 216.636 134.077 216.156 134.411 215.876C135.931 214.596 171.864 184.649 179.197 183.103C179.451 183.049 179.704 183.036 179.971 183.036C188.464 183.036 208.184 208.689 219.304 234.583C219.464 234.983 219.291 235.436 218.891 235.609L218.584 235.676Z" fill="#360B1E"/>
<path fill-rule="evenodd" clip-rule="evenodd" d="M162.089 258.114C162.089 258.114 158.396 248.661 169.263 231.927C179.409 216.327 177.876 197.141 177.876 197.141L185.969 193.727C185.969 193.727 187.929 214.314 190.623 229.314C192.223 238.221 187.516 250.154 187.516 250.154C187.516 250.154 174.663 265.807 169.023 264.874C165.663 264.327 162.089 258.114 162.089 258.114Z" fill="#979C16"/>
<path fill-rule="evenodd" clip-rule="evenodd" d="M223.756 84.6618C223.756 84.6618 233.623 71.2218 238.036 77.9685C242.449 84.7285 230.983 110.408 225.983 110.808C220.969 111.195 221.503 97.6484 222.409 91.7151C223.316 85.7817 223.756 84.6618 223.756 84.6618Z" fill="#FFCDB2"/>
<path d="M185.663 184.955C185.37 184.955 185.09 184.795 184.957 184.529C184.77 184.142 184.93 183.662 185.317 183.475C185.624 183.315 216.93 167.635 223.757 151.995C223.93 151.595 224.383 151.422 224.783 151.595C225.183 151.769 225.357 152.222 225.183 152.622C218.143 168.782 187.317 184.222 186.01 184.875L185.663 184.955Z" fill="#360B1E"/>
<path d="M157.476 754.58H157.463C157.036 754.58 156.69 754.229 156.69 753.799C156.69 752.268 156.969 599.931 156.063 525.309C155.156 450.648 169.463 266.928 169.61 265.088C169.65 264.661 170.036 264.328 170.45 264.368C170.89 264.408 171.21 264.782 171.17 265.208C171.023 267.062 156.716 450.702 157.623 525.29C158.543 599.923 158.25 752.271 158.25 753.802C158.25 754.232 157.903 754.58 157.476 754.58Z" fill="#12130F"/>
<path fill-rule="evenodd" clip-rule="evenodd" d="M63.2109 252.835C61.3976 252.542 40.6109 243.262 44.3442 251.928C48.0642 260.608 97.7442 279.755 107.024 272.275C116.304 264.808 83.3442 256.062 63.2109 252.835Z" fill="#12130F"/>
<path fill-rule="evenodd" clip-rule="evenodd" d="M49.3965 201.795C49.3965 172.849 72.8632 149.382 101.796 149.382C130.743 149.382 154.21 172.849 154.21 201.795C154.21 230.729 130.743 254.195 101.796 254.195C72.8632 254.195 49.3965 230.729 49.3965 201.795Z" fill="#12130F"/>
<path fill-rule="evenodd" clip-rule="evenodd" d="M56.2907 257.647C56.2907 257.647 49.344 221.047 56.264 215.914C63.1973 210.78 94.104 193.82 103.224 201.42C112.357 209.02 120.077 226.54 113.237 224.82C106.397 223.1 96.624 214.3 96.624 214.3C96.624 214.3 95.4107 229.46 99.6507 228.82C103.877 228.167 108.744 257.554 90.9573 263.567C73.1973 269.594 56.2907 257.647 56.2907 257.647Z" fill="#FFCDB2"/>
<path fill-rule="evenodd" clip-rule="evenodd" d="M93.623 180.529L132.143 125.288L144.17 136.902L112.17 194.182L93.623 180.529Z" fill="#12130F"/>
<path fill-rule="evenodd" clip-rule="evenodd" d="M322.058 510.747C322.058 510.747 326.069 530.176 322.044 546.239C318.033 562.302 307.95 576.684 301.502 578.78C295.041 580.874 286.843 578.607 286.843 578.607L286.116 542.085C286.116 542.085 285.497 510.334 285.9 506.556C286.304 502.782 290.922 499.47 290.922 499.47C290.922 499.47 318.383 508.328 322.058 510.747Z" fill="#FFCDB2"/>
<path d="M287.663 567.184C287.503 567.184 287.343 567.138 287.209 567.044C286.863 566.798 286.769 566.312 287.023 565.957C287.103 565.828 295.969 552.988 297.769 545.432C299.569 537.921 294.103 517.212 294.049 517.002C293.929 516.585 294.183 516.158 294.596 516.046C295.009 515.94 295.449 516.184 295.556 516.601C295.783 517.468 301.183 537.902 299.289 545.794C297.423 553.637 288.676 566.312 288.303 566.848C288.143 567.066 287.903 567.184 287.663 567.184Z" fill="#360B1E"/>
<path fill-rule="evenodd" clip-rule="evenodd" d="M96.6103 214.18C96.6103 214.18 86.3436 212.887 84.1169 220.287C81.8769 227.7 71.9436 256.5 80.7836 259.047C89.6102 261.58 101.517 265.447 103.264 257.82C105.024 250.194 109.344 215.66 96.6103 214.18Z" fill="#360B1E"/>
<path fill-rule="evenodd" clip-rule="evenodd" d="M156.41 956.946C152.13 951.621 168.157 930.006 192.224 929.59C216.304 929.176 231.09 955.956 221.877 960.105C212.677 964.254 160.077 961.502 156.41 956.946Z" fill="#12130F"/>
<path d="M293.316 770.234H293.303C293.116 770.233 273.516 769.951 238.81 760.933C204.263 751.955 36.4496 733.803 34.7563 733.62C34.3296 733.573 34.023 733.188 34.0763 732.759C34.1163 732.329 34.5029 732.02 34.9296 732.066C36.6229 732.248 204.543 750.413 239.196 759.421C273.69 768.384 293.13 768.671 293.316 768.672C293.756 768.676 294.103 769.029 294.09 769.461C294.09 769.889 293.743 770.234 293.316 770.234Z" fill="#12130F"/>
<path fill-rule="evenodd" clip-rule="evenodd" d="M157.89 748.213L156.316 792.336C156.316 792.336 167.25 768.025 191.863 764.14C216.45 760.256 245.13 760.881 245.13 760.881C245.13 760.881 179.45 749.125 157.89 748.213Z" fill="#12130F"/>
<path fill-rule="evenodd" clip-rule="evenodd" d="M177.357 88.0621C176.264 89.0754 172.131 90.4887 170.344 91.3154C168.571 92.142 161.051 94.1021 161.051 94.1021C161.051 94.1021 172.291 92.0221 174.597 92.4354C176.904 92.8354 177.638 95.8354 177.638 95.8354L169.171 104.502L181.517 95.6354L179.357 85.7421C179.357 85.7421 178.451 87.0488 177.357 88.0621Z" fill="#C49D88"/>
<path fill-rule="evenodd" clip-rule="evenodd" d="M178.636 84.9419C178.636 84.9419 172.036 81.9685 168.303 82.1419C164.583 82.3285 158.343 84.6885 156.676 85.2218C154.983 85.7418 154.85 86.9152 154.85 86.9152C154.85 86.9152 164.77 85.7152 169.023 86.0752C173.25 86.4352 177.77 87.7152 179.116 87.1019C180.476 86.5019 178.636 84.9419 178.636 84.9419Z" fill="#12130F"/>
<path fill-rule="evenodd" clip-rule="evenodd" d="M216.05 86.6737C216.05 86.6737 215.543 88.0203 213.477 88.687C211.41 89.3537 200.09 90.6871 196.357 89.5271C192.623 88.3671 191.077 87.8604 191.81 87.1671C192.57 86.4604 211.45 84.5004 216.05 86.6737Z" fill="white"/>
<path fill-rule="evenodd" clip-rule="evenodd" d="M192.396 84.9419C192.396 84.9419 198.996 81.9685 202.716 82.1419C206.45 82.3285 212.676 84.6885 214.356 85.2218C216.05 85.7418 216.17 86.9152 216.17 86.9152C216.17 86.9152 206.25 85.7152 202.023 86.0752C197.783 86.4352 193.263 87.7152 191.903 87.1019C190.57 86.5019 192.396 84.9419 192.396 84.9419Z" fill="#12130F"/>
<path fill-rule="evenodd" clip-rule="evenodd" d="M154.982 86.6737C154.982 86.6737 155.489 88.0203 157.542 88.687C159.622 89.3537 170.942 90.6871 174.676 89.5271C178.396 88.3671 179.956 87.8604 179.209 87.1671C178.476 86.4604 159.569 84.5004 154.982 86.6737Z" fill="white"/>
<path fill-rule="evenodd" clip-rule="evenodd" d="M163.65 85.8359C163.65 85.8359 164.437 89.5291 167.85 89.4891C171.264 89.4358 173.477 90.3159 174.317 89.1692C175.144 88.0092 175.45 86.3825 175.45 86.3825C175.45 86.3825 165.984 83.9826 163.65 85.8359Z" fill="#12130F"/>
<path fill-rule="evenodd" clip-rule="evenodd" d="M211.504 85.4078C211.504 85.4078 210.704 89.0877 207.291 89.0477C203.878 88.9944 201.678 89.8745 200.838 88.7278C199.984 87.5812 199.678 84.7011 199.678 84.7011C199.678 84.7011 209.144 83.5544 211.504 85.4078Z" fill="#12130F"/>
<path fill-rule="evenodd" clip-rule="evenodd" d="M224.543 101.063L224.943 95.0892C224.943 95.0892 225.783 88.8626 229.21 85.8092C232.623 82.7559 236.13 80.7559 236.303 81.8892C236.45 83.0225 234.676 87.7959 231.743 92.7693C228.796 97.7559 224.543 101.063 224.543 101.063Z" fill="#C49D88"/>
<path fill-rule="evenodd" clip-rule="evenodd" d="M178.356 76.581C178.356 76.581 171.797 71.9677 169.437 72.1677C167.09 72.381 152.636 73.021 152.09 74.8876C151.543 76.7676 148.33 77.6877 150.183 78.7277C152.05 79.7677 163.17 79.381 167.89 79.4077C172.61 79.4344 180.703 80.2743 178.356 76.581Z" fill="#12130F"/>
<path fill-rule="evenodd" clip-rule="evenodd" d="M191.25 76.2216C191.25 76.2216 197.81 71.6083 200.17 71.8083L199.077 73.7417L202.543 71.9684C207.383 72.2884 217.063 72.9951 217.516 74.5284C218.063 76.4217 221.29 77.3284 219.423 78.3684C217.57 79.4084 206.436 79.0216 201.716 79.0483C196.996 79.075 188.903 79.915 191.25 76.2216Z" fill="#12130F"/>
<path d="M225.17 96.0626L225.077 96.0492C224.637 95.9959 224.344 95.6092 224.397 95.1825C224.464 94.7025 226.05 83.5826 235.25 80.7293C235.677 80.596 236.104 80.8359 236.237 81.2492C236.357 81.6625 236.13 82.0892 235.717 82.2225C227.477 84.7692 225.957 95.2759 225.944 95.3825C225.89 95.7825 225.557 96.0626 225.17 96.0626Z" fill="#360B1E"/>
<path fill-rule="evenodd" clip-rule="evenodd" d="M178.77 116.328C178.77 116.328 183.063 114.608 185.836 114.968C188.596 115.328 192.503 115.062 192.503 115.062L198.903 113.728C198.903 113.728 192.769 117.701 188.783 117.808C184.796 117.928 178.77 116.328 178.77 116.328Z" fill="black"/>
<path fill-rule="evenodd" clip-rule="evenodd" d="M146.184 70.116C146.184 70.116 173.797 60.596 187.984 62.5827C202.17 64.5827 218.144 66.9827 218.144 66.9827L224.437 83.8361L224.85 57.2094C224.85 57.2094 182.81 56.4761 173.997 57.3294C163.13 58.3828 146.184 70.116 146.184 70.116Z" fill="#C49D88"/>
<path fill-rule="evenodd" clip-rule="evenodd" d="M289.291 295.048C289.291 295.048 268.704 376.861 272.291 402.528C275.877 428.195 281.117 525.092 281.117 525.092L291.397 502.168C291.397 502.168 291.891 453.928 286.984 410.461C282.077 366.995 289.291 295.048 289.291 295.048Z" fill="#12130F"/>
<path d="M184.077 136.621C183.85 136.621 183.623 136.515 183.463 136.315C183.197 135.981 183.263 135.488 183.597 135.221C184.05 134.875 194.637 126.755 205.85 125.515C206.29 125.475 206.677 125.781 206.717 126.208C206.77 126.635 206.45 127.021 206.023 127.061C195.25 128.261 184.663 136.368 184.557 136.461C184.41 136.568 184.25 136.621 184.077 136.621Z" fill="#360B1E"/>
</svg>
