<svg width="338" height="1015" viewBox="0 0 338 1015" fill="none" xmlns="http://www.w3.org/2000/svg">
<path fill-rule="evenodd" clip-rule="evenodd" d="M61.0762 992.209C61.0762 979.906 129.599 970.185 203.68 970.185C245.133 970.185 285.043 967.965 309.647 972.871C329.011 976.733 337.812 987.041 337.812 992.461C337.812 1004.76 277.759 1014.73 203.68 1014.73C129.599 1014.73 61.0762 1004.51 61.0762 992.209Z" fill="#12130F"/>
<path fill-rule="evenodd" clip-rule="evenodd" d="M226.303 969.506C226.303 969.506 254.113 926.619 255.153 916.483C256.193 906.348 281.405 898.548 281.405 898.548L290.243 939.615C290.243 939.615 256.973 977.563 253.335 978.86C249.695 980.162 226.303 969.506 226.303 969.506Z" fill="#FFCAB1"/>
<path fill-rule="evenodd" clip-rule="evenodd" d="M287.871 899.421C287.871 899.421 307.347 912.794 307.928 921.223C308.509 929.654 307.347 976.454 307.347 976.454L298.044 976.163C298.044 976.163 296.009 941.281 290.485 947.094C284.963 952.909 271.883 979.362 269.847 986.629C267.812 993.897 216.069 1003.49 214.616 997.383C213.163 991.279 223.628 971.223 227.696 969.186C231.767 967.153 245.72 963.957 255.893 956.686C266.069 949.419 279.731 933.431 278.859 924.13C277.985 914.827 282.056 897.967 282.056 897.967L287.871 899.421Z" fill="#FC9F07"/>
<path fill-rule="evenodd" clip-rule="evenodd" d="M101.787 960.63C101.787 960.63 132.764 932.719 135.72 924.959C138.679 917.196 160.21 916.36 160.21 916.36L158.526 950.548C158.526 950.548 124.282 973.423 121.136 973.682C117.992 973.939 101.787 960.63 101.787 960.63Z" fill="#FFCAB1"/>
<path fill-rule="evenodd" clip-rule="evenodd" d="M165.127 918.408C165.127 918.408 177.672 933.032 176.353 939.791C175.035 946.551 165.596 980.749 165.596 980.749L156.975 980.963C156.975 980.963 162.724 953.073 157.14 956.489C151.557 959.904 135.663 977.976 132.525 983.269C129.389 988.562 86.5478 985.23 86.6878 980.118C86.8278 975.006 99.3118 961.418 102.952 960.672C106.591 959.926 118.272 960.345 127.829 956.764C137.388 953.184 151.536 943.469 152.809 935.964C154.081 928.459 160.845 916.043 160.845 916.043L165.127 918.408Z" fill="#FC9F07"/>
<path fill-rule="evenodd" clip-rule="evenodd" d="M109.139 329.708C109.139 329.708 103.428 353.694 113.707 358.254C123.985 362.828 203.179 355.788 208.051 343.494C213.468 329.841 213.835 316.374 213.835 316.374L109.139 329.708Z" fill="#FC9F07"/>
<path fill-rule="evenodd" clip-rule="evenodd" d="M112.156 367.188C112.156 367.188 75.1897 413.828 77.5391 457.868C79.8871 501.908 100.388 920.865 113.894 934.265C127.4 947.665 167.243 946.163 174.29 926.195C181.336 906.231 158.2 508.081 168.248 502.414C174.29 499.001 188.69 645.416 192.214 665.968C195.736 686.523 230.588 893.119 234.163 909.34C240.355 937.431 294.159 936.515 298.708 898.753C309.576 808.553 268.951 682.028 266.88 644.772C263.944 591.92 252.922 432.414 222.515 366.334C211.747 342.934 112.156 367.188 112.156 367.188Z" fill="#360B1E"/>
<path fill-rule="evenodd" clip-rule="evenodd" d="M90.4468 312.762C90.4468 312.762 82.2001 208.215 93.1081 202.335C104.016 196.455 180.247 181.322 197.544 179.029C214.84 176.735 250.208 155.815 253.796 191.802C257.383 227.775 252.008 306.522 244.609 316.375C243.437 317.935 237.633 364.189 232.164 353.269C228.489 345.922 226.683 280.602 220.097 279.282C213.501 277.949 225.613 318.162 204.392 328.615C169.712 345.695 93.0068 337.335 90.4468 312.762Z" fill="#FC9F07"/>
<path fill-rule="evenodd" clip-rule="evenodd" d="M135.502 81.4149C135.502 81.4149 115.633 92.7883 115.586 109.188C115.566 116.735 125.655 121.135 125.655 121.135C125.655 121.135 112.651 127.322 112.874 143.642C113.007 153.402 130.11 155.948 130.11 155.948C130.11 155.948 114.961 171.082 120.23 179.922C125.501 188.748 145.019 185.682 145.019 185.682C145.019 185.682 187.382 193.055 191.085 146.482C194.789 99.8949 135.502 81.4149 135.502 81.4149Z" fill="#360B1E"/>
<path fill-rule="evenodd" clip-rule="evenodd" d="M149.627 139.321C149.627 139.321 152.787 166.521 152.787 178.601C152.787 191.094 122.908 193.774 122.908 193.774L145.896 273.708C145.896 273.708 151.699 255.214 160.282 235.308C169.76 213.321 182.776 190.535 190.706 185.655C205.811 176.361 182.508 130.734 182.508 130.734L149.627 139.321Z" fill="#FFCDB2"/>
<path fill-rule="evenodd" clip-rule="evenodd" d="M147.867 143.375L147.16 161.228C147.16 161.228 174.879 153.362 183.971 137.282C193.061 121.188 147.867 143.375 147.867 143.375Z" fill="#360B1E"/>
<path fill-rule="evenodd" clip-rule="evenodd" d="M124.826 67.161C124.826 67.161 148.801 -3.65239 159.842 0.147612C164.773 1.84095 175.502 10.3077 188.927 13.4277C205.561 17.2944 225.157 16.641 229.094 28.441C236.209 49.7743 220.875 77.321 220.875 77.321L124.826 67.161Z" fill="#12130F"/>
<path fill-rule="evenodd" clip-rule="evenodd" d="M135.246 86.8146C135.246 86.8146 75.5823 62.988 121.436 52.6013C167.289 42.2013 238.386 50.2146 248.113 75.748C257.838 101.281 185.545 106.801 135.246 86.8146Z" fill="#12130F"/>
<path fill-rule="evenodd" clip-rule="evenodd" d="M129.971 66.1614C127.115 68.7614 121.456 138.641 147.224 146.935C168.881 153.895 189.608 132.828 198.088 124.481C206.565 116.135 218.209 65.1747 218.209 65.1747C218.209 65.1747 132.827 63.5481 129.971 66.1614Z" fill="#FFCDB2"/>
<path fill-rule="evenodd" clip-rule="evenodd" d="M159.189 92.0144C159.189 92.0144 156.743 87.7745 163.077 86.1878C169.416 84.6145 194.688 81.9478 193.456 83.3611C192.411 84.5611 190.411 87.0945 187.312 89.0545C183.465 91.4812 178.295 93.2811 175.471 93.7611C170.375 94.6278 159.189 92.0144 159.189 92.0144Z" fill="#FC9F07"/>
<path fill-rule="evenodd" clip-rule="evenodd" d="M160.908 92.4549C160.908 92.4549 167.683 96.6682 173.086 96.6949C180.006 96.7216 183.484 93.8416 185.695 90.5616C186.643 89.1482 176.127 94.0815 173.724 93.7748C171.32 93.4815 160.908 92.4549 160.908 92.4549Z" fill="white"/>
<path fill-rule="evenodd" clip-rule="evenodd" d="M158.646 91.4812C158.646 91.4812 163.91 93.4413 173.1 92.4679C182.29 91.5079 191.948 87.988 191.948 87.988C191.948 87.988 179.217 94.708 173.202 95.188C167.189 95.6813 158.646 91.4812 158.646 91.4812Z" fill="#360B1E"/>
<path fill-rule="evenodd" clip-rule="evenodd" d="M176.148 94.255C176.148 94.255 176.927 96.5883 174.976 96.895C173.743 97.095 171.927 97.0682 170.611 96.4149C169.851 96.0282 169.164 94.8416 169.319 94.4816C169.743 93.5082 176.148 94.255 176.148 94.255Z" fill="#360B1E"/>
<path fill-rule="evenodd" clip-rule="evenodd" d="M156.413 86.0948C156.413 86.0948 160.749 79.0947 165.482 78.8414C170.214 78.6014 186.23 79.0814 190.402 77.748C194.577 76.4147 199.39 74.8948 199.39 74.8948C199.39 74.8948 191.648 82.1348 183.368 82.8281C175.089 83.5081 169.504 82.0014 166.028 83.2948C162.553 84.5748 156.325 87.9348 156.413 86.0948Z" fill="#360B1E"/>
<path fill-rule="evenodd" clip-rule="evenodd" d="M158.646 91.4807C158.646 91.4807 163.998 87.3875 170.732 87.0542C177.464 86.7075 190.037 84.7741 190.037 84.7741C190.037 84.7741 174.114 88.7475 170.137 88.4275C166.16 88.1208 160.521 92.1208 160.521 92.1208L158.646 91.4807Z" fill="#360B1E"/>
<path fill-rule="evenodd" clip-rule="evenodd" d="M175.242 95.5878C175.285 95.2544 175.599 95.0277 175.939 95.0677C176.281 95.121 176.519 95.4277 176.474 95.7611C176.429 96.0811 176.117 96.321 175.775 96.2677C175.435 96.2277 175.195 95.9211 175.242 95.5878Z" fill="white"/>
<path fill-rule="evenodd" clip-rule="evenodd" d="M127.049 87.5215C127.049 87.5215 126.086 83.6548 130.542 83.6682C134.994 83.6815 152.187 86.6415 151.149 87.5215C150.269 88.2682 148.543 89.8815 146.182 90.8282C143.247 91.9882 139.531 92.3748 137.582 92.2015C134.063 91.8682 127.049 87.5215 127.049 87.5215Z" fill="#FC9F07"/>
<path fill-rule="evenodd" clip-rule="evenodd" d="M128.119 88.2277C128.119 88.2277 131.959 92.9477 135.542 94.0544C140.128 95.4677 142.89 93.8677 144.872 91.6944C145.719 90.761 137.967 92.5744 136.42 91.8544C134.872 91.1344 128.119 88.2277 128.119 88.2277Z" fill="white"/>
<path fill-rule="evenodd" clip-rule="evenodd" d="M126.771 86.988C126.771 86.988 129.961 89.6146 136.211 90.6813C142.465 91.7613 149.425 90.908 149.425 90.908C149.425 90.908 139.922 93.6946 135.854 92.8813C131.783 92.0679 126.771 86.988 126.771 86.988Z" fill="#360B1E"/>
<path fill-rule="evenodd" clip-rule="evenodd" d="M137.956 92.7212C137.956 92.7212 138.109 94.7345 136.765 94.5878C135.913 94.5078 134.715 94.1212 133.944 93.3212C133.499 92.8678 133.227 91.7878 133.385 91.5344C133.82 90.8411 137.956 92.7212 137.956 92.7212Z" fill="#360B1E"/>
<path fill-rule="evenodd" clip-rule="evenodd" d="M126.132 82.2547C126.132 82.2547 130.105 77.5481 133.285 78.2947C136.465 79.0414 147.022 82.6547 150.001 82.4281C152.981 82.2014 156.413 81.9614 156.413 81.9614C156.413 81.9614 150.14 86.1881 144.537 85.0547C138.934 83.9347 135.462 81.6146 132.953 81.948C130.444 82.2813 125.785 83.6947 126.132 82.2547Z" fill="#360B1E"/>
<path fill-rule="evenodd" clip-rule="evenodd" d="M126.771 86.9884C126.771 86.9884 130.965 84.8017 135.487 85.895C140.01 86.975 148.659 87.9617 148.659 87.9617C148.659 87.9617 137.467 87.9216 134.875 86.8683C132.285 85.8283 127.917 87.8816 127.917 87.8816L126.771 86.9884Z" fill="#360B1E"/>
<path fill-rule="evenodd" clip-rule="evenodd" d="M137.145 93.6014C137.226 93.348 137.469 93.228 137.689 93.3347C137.907 93.4414 138.018 93.7347 137.937 93.9881C137.855 94.2414 137.611 94.3614 137.391 94.2547C137.173 94.1481 137.062 93.8547 137.145 93.6014Z" fill="white"/>
<path fill-rule="evenodd" clip-rule="evenodd" d="M144.434 65.0816C144.434 65.0816 163.92 64.975 171.447 76.0683C175.276 81.695 166.782 87.5483 179.682 90.8149C186.496 92.5483 171.508 101.802 177.912 109.602C184.318 117.402 187.648 119.908 187.106 129.695C186.894 133.508 175.527 142.642 169.86 152.068C160.954 166.895 159.338 185.282 163.775 187.348C171.035 190.735 206.075 194.962 232.302 170.962C250.492 154.322 249.43 143.335 246.622 130.615C243.422 116.108 226.748 109.935 223.93 97.295C219.712 78.3617 219.366 62.6416 219.366 62.6416C219.366 62.6416 171.071 60.7749 144.434 65.0816Z" fill="#360B1E"/>
<path fill-rule="evenodd" clip-rule="evenodd" d="M142.521 125.947C142.521 125.947 144.867 117.068 151.325 119.321C157.781 121.561 163.049 126.308 163.049 126.308C163.049 126.308 156.287 135.081 149.56 133.641C142.835 132.214 142.521 125.947 142.521 125.947Z" fill="#360B1E"/>
<path fill-rule="evenodd" clip-rule="evenodd" d="M146.189 125.908L153.324 125.855C153.324 125.855 151.647 123.921 149.139 124.041C146.631 124.161 146.189 125.908 146.189 125.908Z" fill="white"/>
<path fill-rule="evenodd" clip-rule="evenodd" d="M197.531 87.0409C197.531 87.0409 201.774 74.281 207.885 81.0544C213.998 87.8144 208.119 106.254 204.174 106.521C200.229 106.788 198.461 104.801 198.461 104.801C198.461 104.801 198.859 95.881 198.289 92.4943C197.718 89.1077 197.531 87.0409 197.531 87.0409Z" fill="#FFCDB2"/>
<path d="M197.32 94.8279C197.19 94.8279 197.058 94.8012 196.936 94.7212C196.56 94.5079 196.428 94.0412 196.64 93.6679C197.219 92.6279 202.442 83.6278 207.402 84.0145C207.831 84.0545 208.154 84.4279 208.12 84.8546C208.087 85.2946 207.699 85.6145 207.282 85.5745C203.902 85.3345 199.442 91.8812 198 94.4279C197.856 94.6812 197.592 94.8279 197.32 94.8279Z" fill="#360B1E"/>
<path fill-rule="evenodd" clip-rule="evenodd" d="M35.8185 174.694C35.7718 174.881 35.7785 174.761 35.8545 175.014L35.8185 174.694Z" fill="#FFCDB2"/>
<path fill-rule="evenodd" clip-rule="evenodd" d="M202.133 103.308C202.133 103.308 197.935 122.001 199.325 122.241C200.715 122.495 207.215 124.922 206.569 121.228C205.923 117.522 204.743 100.015 202.133 103.308Z" fill="#FC9F07"/>
<path fill-rule="evenodd" clip-rule="evenodd" d="M60.3535 226.561C60.3535 226.561 62.4975 322.015 71.4789 332.375C80.4602 342.748 118.251 342.868 114.296 316.495C110.338 290.121 90.0842 226.228 90.0842 226.228L60.3535 226.561Z" fill="#FC9F07"/>
<path d="M114.523 311.855C114.096 311.855 113.748 311.508 113.743 311.082C113.372 282.242 89.0163 227.015 88.7709 226.455C88.5949 226.069 88.7736 225.602 89.1669 225.429C89.5669 225.255 90.0229 225.429 90.1989 225.829C90.4456 226.389 114.931 281.909 115.304 311.069C115.31 311.495 114.966 311.855 114.534 311.855H114.523Z" fill="#360B1E"/>
<path fill-rule="evenodd" clip-rule="evenodd" d="M61.1109 225.774C59.8749 226.068 59.1482 228.908 66.7482 229.948C75.9295 231.201 90.4989 228.974 89.8815 226.174C89.2642 223.374 66.2402 224.561 61.1109 225.774Z" fill="#360B1E"/>
<path fill-rule="evenodd" clip-rule="evenodd" d="M67.8801 181.161C67.8801 181.161 54.7561 167.241 55.5201 155.481C56.2827 143.721 60.6454 142.774 65.5347 141.041C70.4241 139.308 65.6147 150.788 68.0934 155.641C70.5707 160.494 87.1227 181.575 87.4307 186.161C87.7387 190.735 85.3614 217.508 86.3747 223.708C87.0694 227.974 62.1774 228.694 60.4454 225.908C54.3827 216.161 38.7161 186.494 37.2094 182.641C35.7027 178.801 32.8987 173.068 34.8467 169.681C36.7934 166.281 40.2947 165.388 40.2947 165.388C40.2947 165.388 35.7534 162.108 39.2467 156.948C42.4347 152.241 46.4667 156.668 46.4667 156.668C46.4667 156.668 42.1147 152.374 44.5481 148.041C46.1134 145.254 49.7161 146.335 55.0561 155.495L67.8801 181.161Z" fill="#FFCDB2"/>
<path d="M42.7591 177.255C38.9151 177.255 35.1644 175.801 34.9031 175.695C34.5017 175.548 34.3044 175.081 34.4631 174.681C34.6217 174.281 35.0764 174.095 35.4751 174.241C35.5737 174.281 45.1871 177.988 48.4577 173.361C49.2097 172.295 49.2831 171.308 48.6844 170.335C47.0511 167.681 41.4097 166.148 39.7964 166.375C39.3737 166.455 38.9711 166.148 38.9071 165.721C38.8417 165.295 39.1351 164.895 39.5617 164.828C41.6297 164.521 47.9711 166.201 50.0137 169.508C50.6671 170.575 51.1497 172.255 49.7337 174.255C48.1097 176.561 45.4124 177.255 42.7591 177.255Z" fill="#360B1E"/>
<path fill-rule="evenodd" clip-rule="evenodd" d="M31.2073 125.415L0 90.1481L3.10159 87.1481L35.79 125.681L31.2073 125.415Z" fill="#FC9F07"/>
<path d="M48.1745 168.655C47.6478 168.655 47.2918 168.615 47.2425 168.615C46.8131 168.562 46.5011 168.175 46.5465 167.748C46.5905 167.322 46.9811 167.015 47.4025 167.055C48.3971 167.162 51.1945 167.122 52.2078 165.762C52.6345 165.188 52.7211 164.495 52.4745 163.668C51.6238 160.788 47.0198 157.148 44.4505 156.202C43.1105 155.695 42.0411 155.668 41.1785 156.122C40.0731 156.682 39.2065 158.095 38.6011 160.335C37.6158 163.948 39.9785 164.708 40.2518 164.788C40.6651 164.895 40.9131 165.322 40.8038 165.735C40.6945 166.162 40.2718 166.402 39.8598 166.295C39.7958 166.282 38.2891 165.882 37.4105 164.375C36.7185 163.188 36.6105 161.695 37.0931 159.922C37.8278 157.215 38.9318 155.508 40.4638 154.722C41.7198 154.082 43.2438 154.082 44.9945 154.735C47.8865 155.815 52.9425 159.748 53.9731 163.228C54.3585 164.522 54.1811 165.722 53.4625 166.695C52.1878 168.402 49.5758 168.655 48.1745 168.655Z" fill="#360B1E"/>
<path d="M53.4959 163.347C53.0732 163.347 52.6733 163.254 52.3426 163.041C51.9813 162.801 51.8773 162.321 52.1106 161.961C52.3466 161.587 52.8279 161.494 53.1919 161.721C53.3813 161.841 53.9972 161.827 54.5506 161.361C55.0826 160.894 56.1453 159.454 54.5373 155.881C52.5759 151.507 48.5359 147.347 46.2226 147.294C45.6079 147.294 45.2199 147.561 44.9093 148.201C43.3919 151.267 46.3253 155.041 46.3546 155.081C46.6213 155.427 46.5639 155.908 46.2266 156.188C45.8879 156.454 45.3972 156.388 45.1306 156.054C44.9826 155.868 41.5506 151.467 43.5079 147.507C44.0799 146.347 45.0972 145.747 46.2506 145.734C49.5346 145.801 53.9239 150.694 55.9639 155.241C58.0012 159.774 56.3666 161.854 55.5693 162.547C54.9506 163.067 54.1919 163.347 53.4959 163.347Z" fill="#360B1E"/>
<path d="M65.4987 171.828C65.3107 171.828 65.1227 171.761 64.9734 171.628C64.6054 171.295 55.9534 163.361 54.8254 156.548C54.116 152.254 55.3014 147.574 57.9187 144.348C60.096 141.668 63.0814 140.161 66.5534 140.001C66.992 139.961 67.3507 140.308 67.3707 140.748C67.3894 141.174 67.056 141.548 66.6254 141.561C63.6107 141.695 61.0214 143.001 59.1334 145.335C56.824 148.188 55.7387 152.481 56.3667 156.281C57.4067 162.574 65.9374 170.388 66.024 170.468C66.3427 170.761 66.3667 171.254 66.076 171.574C65.9227 171.748 65.7107 171.828 65.4987 171.828Z" fill="#360B1E"/>
<path fill-rule="evenodd" clip-rule="evenodd" d="M55.6988 155.162L30.2441 125.815C30.2441 125.815 32.0335 126.188 32.9468 124.708C33.8602 123.242 34.0028 121.695 34.0028 121.695L56.5228 147.922C56.5228 147.922 55.8695 150.015 55.4415 151.669C55.0148 153.309 55.6988 155.162 55.6988 155.162Z" fill="#360B1E"/>
<path fill-rule="evenodd" clip-rule="evenodd" d="M34.9922 174.735L43.8949 194.268C43.8949 194.268 48.0762 182.855 55.2815 178.095C62.4868 173.335 65.2975 171.242 65.2975 171.242L57.8335 162.335L55.9295 158.482C55.9295 158.482 56.3802 161.068 55.1508 161.948C53.9215 162.828 52.7295 162.482 52.7295 162.482C52.7295 162.482 54.1815 164.935 52.8322 166.322C50.5762 168.642 47.4815 167.868 47.4815 167.868C47.4815 167.868 52.7668 172.215 47.5135 175.148C42.2602 178.082 34.9922 174.735 34.9922 174.735Z" fill="#360B1E"/>
<path d="M140.95 293.135L140.772 293.108C140.352 293.014 140.091 292.601 140.188 292.174C140.355 291.454 157.41 218.961 192.652 180.495C192.944 180.175 193.438 180.148 193.756 180.441C194.075 180.735 194.096 181.228 193.804 181.548C158.835 219.708 141.878 291.801 141.71 292.535C141.627 292.895 141.304 293.135 140.95 293.135Z" fill="#360B1E"/>
<path d="M203.582 348.415C203.422 348.415 203.313 348.402 203.265 348.388C202.842 348.308 202.571 347.895 202.659 347.468C202.747 347.042 203.158 346.775 203.585 346.868C203.602 346.855 209.746 347.175 213.058 319.295C216.538 290.002 216.746 229.508 216.747 228.895C216.749 228.468 217.099 228.122 217.529 228.122H217.531C217.963 228.122 218.311 228.468 218.31 228.908C218.309 229.508 218.101 290.095 214.61 319.481C212.278 339.108 208.455 345.628 205.659 347.641C204.734 348.308 203.991 348.415 203.582 348.415Z" fill="#360B1E"/>
<path fill-rule="evenodd" clip-rule="evenodd" d="M135.57 38.495C135.826 37.9083 164.993 34.1084 184.484 38.255C203.976 42.3884 230.524 47.9083 230.524 47.9083L230.014 52.8816C230.014 52.8816 192.557 45.6683 180.084 44.1483C167.61 42.6283 131.936 47.6283 131.936 47.6283C131.936 47.6283 134.381 41.175 135.57 38.495Z" fill="#FC9F07"/>
<path d="M219.888 279.508C219.627 279.508 219.161 279.388 218.92 278.681C217.184 273.494 224.128 227.934 224.925 222.761C224.991 222.334 225.387 222.041 225.816 222.108C226.243 222.161 226.535 222.561 226.469 222.988C224.541 235.508 220.097 266.654 220.18 275.908C222.188 267.574 226.125 238.641 228.427 219.908C228.479 219.481 228.861 219.174 229.297 219.228C229.725 219.281 230.029 219.668 229.977 220.094C229.959 220.241 228.156 234.894 226.116 249.388C221.909 279.308 220.928 279.401 219.98 279.494L219.888 279.508Z" fill="#360B1E"/>
<path d="M171.242 302.521C159.216 302.521 145.866 301.215 144.022 299.455C143.464 298.921 143.594 298.401 143.676 298.188C144.178 296.961 146.902 296.854 157.42 296.974C163.208 297.041 169.762 297.121 173.656 296.588C182.433 295.388 196.877 285.161 197.022 285.055C197.372 284.815 197.86 284.894 198.112 285.241C198.361 285.588 198.28 286.081 197.928 286.335C197.324 286.761 183.022 296.881 173.868 298.135C169.858 298.681 163.242 298.614 157.402 298.548C153.177 298.494 148.104 298.428 145.945 298.721C151.33 300.495 177.922 302.321 187.716 299.574C188.132 299.468 188.561 299.708 188.678 300.121C188.794 300.535 188.552 300.974 188.136 301.081C184.517 302.094 178.093 302.521 171.242 302.521Z" fill="#360B1E"/>
<path fill-rule="evenodd" clip-rule="evenodd" d="M146.127 112.388C146.127 112.388 148.964 110.335 151.851 110.642C154.736 110.962 158.394 111.988 158.394 111.988C158.394 111.988 151.18 114.068 146.127 112.388Z" fill="#360B1E"/>
<path d="M216.056 173.495C209.842 173.495 205.258 172.495 204.841 172.388C204.421 172.295 204.157 171.882 204.252 171.455C204.348 171.042 204.772 170.775 205.186 170.868C205.41 170.922 227.709 175.775 241.328 163.628C251.533 154.522 252.805 144.335 252.076 137.388C250.961 126.775 244.325 116.282 235.565 111.268C219.44 102.055 217.512 90.0415 217.438 89.5349C217.376 89.1082 217.669 88.7082 218.096 88.6415C218.528 88.5748 218.92 88.8815 218.984 89.3082C219.001 89.4148 220.92 101.095 236.34 109.908C245.517 115.161 252.465 126.135 253.63 137.228C254.397 144.535 253.066 155.242 242.368 164.788C234.417 171.882 223.928 173.495 216.056 173.495Z" fill="#360B1E"/>
<path d="M119.471 178.041C119.329 178.041 119.185 178.014 119.056 177.934C117.531 176.974 116.604 175.547 116.301 173.681C115.16 166.681 123.425 155.067 126.636 150.881C123.011 151.187 115.179 150.761 108.621 143.081C107.035 141.214 106.393 139.014 106.716 136.507C108.011 126.521 124.473 114.987 125.173 114.507C125.528 114.267 126.015 114.347 126.261 114.707C126.507 115.054 126.419 115.548 126.064 115.788C125.899 115.908 109.469 127.414 108.267 136.721C107.999 138.788 108.504 140.534 109.811 142.054C117.992 151.641 128.16 149.094 128.261 149.067C128.591 148.974 128.935 149.121 129.119 149.401C129.301 149.681 129.28 150.054 129.064 150.321C128.939 150.468 116.575 165.641 117.844 173.427C118.075 174.854 118.743 175.881 119.887 176.601C120.252 176.827 120.363 177.321 120.133 177.681C119.985 177.921 119.731 178.041 119.471 178.041Z" fill="#360B1E"/>
<path fill-rule="evenodd" clip-rule="evenodd" d="M112.288 352.242L112.084 369.082L204.719 359.589L202.523 341.108C202.523 341.108 178.561 345.575 161.388 348.722C144.215 351.869 112.288 352.242 112.288 352.242Z" fill="#360B1E"/>
<path fill-rule="evenodd" clip-rule="evenodd" d="M207.609 386.775C207.609 386.775 221.331 355.228 228.935 330.255C231.517 321.761 235.148 326.081 234.925 316.375C234.179 283.908 234.133 153.708 250.811 183.121C267.488 212.521 273.016 306.335 274.319 327.935C275.621 349.548 240.523 413.975 227.797 414.415C215.071 414.855 207.609 386.775 207.609 386.775Z" fill="#FC9F07"/>
<path d="M237.751 423.135H237.659C237.539 423.121 225.547 421.694 218.09 419.614C210.442 417.494 195.743 378.961 194.091 374.574C193.939 374.174 194.143 373.721 194.547 373.574C194.95 373.428 195.402 373.628 195.554 374.028C199.963 385.748 212.682 416.494 218.509 418.108C225.851 420.148 237.722 421.561 237.842 421.574C238.271 421.628 238.577 422.014 238.526 422.441C238.479 422.841 238.142 423.135 237.751 423.135Z" fill="#FC9F07"/>
<path d="M131.711 368.721C120.075 368.721 112.708 367.868 112.526 367.841C112.098 367.788 111.794 367.401 111.846 366.975C111.896 366.548 112.284 366.241 112.715 366.295C113.17 366.348 158.791 371.655 203.442 355.415C203.844 355.268 204.295 355.481 204.443 355.881C204.59 356.295 204.382 356.735 203.975 356.881C176.846 366.748 149.363 368.721 131.711 368.721Z" fill="#FC9F07"/>
<path d="M127.751 380.028C127.339 380.028 126.994 379.708 126.973 379.295C126.783 375.628 125.942 371.281 125.037 370.895C124.261 370.828 121.581 374.388 119.489 378.361C119.287 378.748 118.814 378.895 118.434 378.695C118.051 378.495 117.905 378.028 118.106 377.641C119.934 374.161 123.342 368.481 125.646 369.455C127.909 370.415 128.427 377.161 128.533 379.215C128.554 379.641 128.223 380.015 127.793 380.028H127.751Z" fill="#FC9F07"/>
<path d="M162.318 376.481L161.984 376.401C161.593 376.215 161.428 375.748 161.613 375.361C162.214 374.095 165.353 367.775 168.202 367.308C171.253 366.815 173.992 373.148 174.51 374.428C174.672 374.828 174.48 375.281 174.08 375.441C173.68 375.601 173.224 375.415 173.062 375.015C171.998 372.388 169.765 368.601 168.457 368.841C166.95 369.095 164.373 373.201 163.024 376.028C162.89 376.321 162.61 376.481 162.318 376.481Z" fill="#FC9F07"/>
</svg>
