<svg width="651" height="1102" viewBox="0 0 651 1102" fill="none" xmlns="http://www.w3.org/2000/svg">
<path d="M89.9989 334.643C89.6624 334.643 89.368 334.432 89.2628 334.102C89.1366 333.69 89.3679 333.25 89.7674 333.118C91.3657 332.598 95.7612 330.689 96.6865 328.14C97.023 327.204 96.8547 326.256 96.1817 325.238C92.7117 319.892 76.0766 315.757 75.8874 315.715C75.4878 315.612 75.2144 315.189 75.3195 314.771C75.4247 314.355 75.8663 314.096 76.2659 314.197C76.9809 314.373 93.7001 318.525 97.5066 324.386C98.4319 325.822 98.6423 327.261 98.1586 328.668C96.7917 332.462 90.5035 334.521 90.2511 334.607L89.9989 334.643Z" fill="#360B1E"/>
<path fill-rule="evenodd" clip-rule="evenodd" d="M197.531 1074.98C197.531 1060.49 298.904 1048.75 423.983 1048.75C549.014 1048.75 650.387 1060.49 650.387 1074.98C650.387 1089.46 549.014 1101.21 423.983 1101.21C298.904 1101.21 197.531 1089.46 197.531 1074.98Z" fill="#12130F"/>
<path fill-rule="evenodd" clip-rule="evenodd" d="M311.628 1005.05L237.995 1058.28C237.995 1058.28 215.54 1053.44 221.08 1065.28C226.643 1077.12 278.933 1070.86 305.588 1066.31C332.221 1061.75 328.77 1050.92 328.77 1050.92L334.469 1061.52C334.469 1061.52 367.209 1062.45 368.64 1055.4C371.591 1040.97 359.149 997.842 359.149 997.842L311.628 1005.05Z" fill="#360B1E"/>
<path d="M228.987 1058.09C225.808 1058.09 222.81 1058.57 221.584 1060.12C220.721 1061.2 220.812 1062.82 221.788 1064.95C226.262 1074.47 267.026 1072.11 305.451 1065.54C319.758 1063.09 325.095 1058.85 327.025 1055.73C328.592 1053.18 328.024 1051.24 328.024 1051.16C327.91 1050.77 328.092 1050.36 328.456 1050.21C328.842 1050.05 329.25 1050.2 329.455 1050.55L334.95 1060.75C347.373 1061.05 366.948 1059.85 367.879 1055.24C370.559 1042.13 360.135 1004.19 358.591 998.718L311.923 1005.79L238.48 1058.91C238.276 1059.05 238.071 1059.09 237.844 1059.05C235.959 1058.64 232.371 1058.09 228.987 1058.09ZM248.245 1072.89C234.415 1072.89 222.969 1071.1 220.38 1065.61C219.109 1062.9 219.109 1060.73 220.358 1059.14C223.787 1054.86 235.346 1056.94 237.844 1057.45L311.173 1004.42C311.264 1004.34 311.378 1004.29 311.491 1004.27L359.023 997.071C359.431 997.008 359.795 997.251 359.908 997.628C360.408 999.395 372.353 1041.1 369.424 1055.56C367.879 1063.03 337.88 1062.39 334.451 1062.3C334.178 1062.29 333.929 1062.13 333.792 1061.89L329.477 1053.9C329.296 1054.67 328.955 1055.55 328.387 1056.48C326.321 1059.9 320.689 1064.51 305.7 1067.08C297.707 1068.45 270.024 1072.89 248.245 1072.89Z" fill="#360B1E"/>
<path fill-rule="evenodd" clip-rule="evenodd" d="M499.406 997.421L504.519 1043.35L563.157 1072.43C563.157 1072.43 610.406 1081.73 617.796 1068.13C620.243 1063.6 602.41 1060.41 596.279 1046.83C580.893 1012.74 553.513 989.268 548.352 982.692C540.622 972.837 499.406 997.421 499.406 997.421Z" fill="#360B1E"/>
<path d="M563.416 1071.68C565.863 1072.15 610.25 1080.4 617.106 1067.75C617.809 1066.48 615.459 1064.97 611.607 1062.61C606.325 1059.39 599.105 1054.99 595.567 1047.15C583.453 1020.27 564.022 1000.23 553.58 989.47C550.842 986.625 548.831 984.571 547.74 983.173C541.829 975.633 511.858 990.96 500.229 997.833L505.244 1042.84L563.416 1071.68ZM593.508 1076.32C579.213 1076.32 564.119 1073.41 563.029 1073.19L562.835 1073.13L504.178 1044.05C503.935 1043.94 503.766 1043.7 503.742 1043.44L498.63 997.504C498.605 997.201 498.751 996.905 499.017 996.748C500.713 995.73 540.908 971.931 548.976 982.209C550.018 983.543 552.102 985.678 554.718 988.382C565.209 999.217 584.762 1019.38 596.997 1046.51C600.34 1053.91 607.294 1058.16 612.406 1061.28C616.767 1063.94 619.917 1065.86 618.487 1068.5C615.192 1074.58 604.58 1076.32 593.508 1076.32Z" fill="#360B1E"/>
<path fill-rule="evenodd" clip-rule="evenodd" d="M263.27 771.525C263.27 771.525 267.476 1012.74 294.867 1011.69C322.258 1010.64 363.345 1009.58 363.345 1009.58L369.679 791.536L493.967 1012.74L566.627 1002.21L499.225 766.257C499.225 766.257 276.965 698.841 263.27 771.525Z" fill="#12130F"/>
<path d="M369.673 790.75C369.936 790.75 370.199 790.901 370.366 791.15L494.393 1011.89L565.659 1001.56L498.601 766.88C489.421 764.147 332.02 718.098 279.999 749.631C271.178 754.984 265.823 762.368 264.054 771.587C264.15 776.758 268.261 987.57 291.188 1009.26C292.407 1010.41 293.602 1010.97 294.845 1010.9C319.923 1009.94 356.907 1008.96 362.573 1008.82L368.884 791.508C368.908 791.159 369.147 790.858 369.482 790.774L369.673 790.75ZM493.963 1013.52C493.7 1013.52 493.413 1013.37 493.294 1013.12L370.366 794.372L364.127 1009.6C364.127 1010.02 363.792 1010.35 363.362 1010.36C362.955 1010.37 321.979 1011.42 294.893 1012.47C293.244 1012.52 291.642 1011.83 290.112 1010.4C266.54 988.099 262.643 780.365 262.5 771.534L262.524 771.376C264.341 761.666 269.959 753.901 279.187 748.295C333.096 715.614 497.788 765.003 499.461 765.505C499.724 765.581 499.916 765.782 499.987 766.038L567.404 1001.99C567.452 1002.21 567.428 1002.44 567.308 1002.63C567.165 1002.82 566.973 1002.95 566.758 1002.98L494.082 1013.51L493.963 1013.52Z" fill="#360B1E"/>
<path fill-rule="evenodd" clip-rule="evenodd" d="M203.713 358.284L218.699 875.267L375.835 865.647L392.557 833.723L392.201 865.647L547.957 851.434C547.957 851.434 516.345 742.754 499.004 628.258C485.683 540.347 485.874 443.327 484.327 423.962C480.807 379.38 203.713 358.284 203.713 358.284Z" fill="#360B1E"/>
<path d="M204.517 359.135L219.435 874.438L375.343 864.898L391.854 833.364C392.021 833.043 392.378 832.883 392.758 832.969C393.092 833.057 393.33 833.373 393.33 833.735L392.996 864.793L546.93 850.746C543.861 839.973 514.525 736.115 498.204 628.38C487.926 560.552 485.69 487.637 484.5 448.464C484.143 436.841 483.905 428.443 483.524 424.027C480.217 381.835 221.6 360.496 204.517 359.135ZM218.673 876.049C218.483 876.049 218.293 875.977 218.15 875.847C217.984 875.704 217.912 875.504 217.888 875.292L202.947 358.309C202.923 358.088 203.018 357.876 203.185 357.722C203.328 357.569 203.542 357.486 203.78 357.51C215.105 358.374 481.574 379.17 485.095 423.906C485.452 428.357 485.713 436.772 486.07 448.416C487.26 487.556 489.496 560.409 499.75 628.145C516.904 741.28 548.381 850.132 548.69 851.22C548.762 851.443 548.714 851.684 548.595 851.879C548.452 852.069 548.238 852.193 548.024 852.214L392.259 866.427C392.045 866.446 391.831 866.373 391.664 866.223C391.498 866.073 391.426 865.861 391.426 865.64L391.735 836.971L376.509 866.013C376.39 866.254 376.128 866.413 375.866 866.43L218.721 876.049H218.673Z" fill="#360B1E"/>
<path fill-rule="evenodd" clip-rule="evenodd" d="M108.39 436.168C110.628 436.168 112.423 437.978 112.423 440.21V441.08C112.423 443.31 110.628 445.119 108.39 445.119C106.152 445.119 104.336 443.31 104.336 441.08V440.21C104.336 437.978 106.152 436.168 108.39 436.168Z" fill="#360B1E"/>
<path fill-rule="evenodd" clip-rule="evenodd" d="M91.7363 448.651C91.7363 448.651 139.395 497.912 161.998 495.263C184.623 492.614 209.831 479.693 199.583 471.761C189.334 463.834 176.741 457.913 150.773 445.09C124.826 432.266 121.504 437.002 91.7363 448.651Z" fill="#360B1E"/>
<path fill-rule="evenodd" clip-rule="evenodd" d="M228.569 469.154C228.569 469.154 142.544 476.483 140.247 447.168C137.927 417.852 169.94 216.494 175.718 205.694C181.496 194.892 180.217 202.46 187.913 196.763C195.656 191.063 273.724 156.087 283.859 150.776C293.97 145.463 356.032 130.573 370.5 139.616C384.968 148.657 464.576 178.061 476.368 184.698C488.16 191.336 501.751 254.252 516.03 299.216C530.332 344.18 510.039 428.069 480.488 443.429C450.96 458.792 416.508 476.097 405.9 474.247C395.315 472.398 285.54 455.525 228.569 469.154Z" fill="#360B1E"/>
<path fill-rule="evenodd" clip-rule="evenodd" d="M295.44 137.193C295.44 137.193 277.656 144.104 275.741 148.178C273.826 152.25 271.159 153.944 272.709 157.562C274.259 161.185 296.853 194.885 302.736 193.585C304.924 193.102 311.513 190.092 311.513 190.092C311.513 190.092 346.442 312.14 351.39 305.288C356.337 298.439 366.984 192.067 366.984 192.067C366.984 192.067 381.804 177.022 384.38 170.781C386.979 164.541 386.364 147.23 386.364 147.23C386.364 147.23 365.525 129.259 353.966 128.183C342.429 127.105 295.44 137.193 295.44 137.193Z" fill="white"/>
<path fill-rule="evenodd" clip-rule="evenodd" d="M356.286 128.1C356.286 128.1 368.809 134.296 368.106 140.047C367.789 142.781 360.528 175.057 342.582 178.149C334.097 179.608 322.14 177.341 313.043 170.909C300.837 162.295 292.419 148.392 291.421 146.867C288.131 141.792 295.46 135.623 308.8 134.42C322.14 133.222 356.286 128.1 356.286 128.1Z" fill="#360B1E"/>
<path fill-rule="evenodd" clip-rule="evenodd" d="M283.168 67.4795C283.168 67.4795 275.267 4.47185 298.289 4.88733C321.311 5.30508 334.661 5.69766 343.878 0.657405C353.096 -4.38058 371.418 20.8185 371.237 32.6018C371.055 44.3828 371.237 66.1536 371.237 66.1536L283.168 67.4795Z" fill="#360B1E"/>
<path fill-rule="evenodd" clip-rule="evenodd" d="M282.647 65.9637L281.943 46.6172C281.943 46.6172 283.782 38.3562 308.255 37.2461C332.704 36.136 364.056 38.3538 367.302 41.6683C370.548 44.9804 371.07 49.4891 371.07 49.4891L370.866 62.3428C370.866 62.3428 333.272 66.8241 323.374 69.2078C313.499 71.596 282.647 65.9637 282.647 65.9637Z" fill="#FC9F07"/>
<path fill-rule="evenodd" clip-rule="evenodd" d="M254.365 75.6566C254.365 75.6566 247.846 63.0115 263.799 63.3214C279.729 63.629 305.621 65.2036 329.791 62.4859C353.984 59.7682 412.125 56.8783 409.83 63.3696C407.535 69.8586 356.325 87.3837 342.806 89.1672C329.309 90.9484 254.365 75.6566 254.365 75.6566Z" fill="#360B1E"/>
<path fill-rule="evenodd" clip-rule="evenodd" d="M254.441 75.0175C255.015 70.8051 300.789 79.5904 325.857 77.1846C350.948 74.7765 412.516 58.6155 409.945 64.6207C407.351 70.6283 375.075 98.0906 330.357 98.1939C285.638 98.2995 253.867 79.23 254.441 75.0175Z" fill="#12130F"/>
<path fill-rule="evenodd" clip-rule="evenodd" d="M288.133 82.2204L289.068 93.9379C289.068 93.9379 286.288 84.0705 281.982 88.0803C279.703 90.1878 278.519 100.641 279.362 110.018C280.114 118.464 282.643 126.01 285.217 126.158C290.617 126.466 292.781 124.463 292.781 124.463C292.781 124.463 291.232 149.591 305.403 163.466C319.597 177.341 342.722 181.811 349.967 175.336C357.212 168.861 361.541 162.233 362.772 157.298C364.002 152.366 363.523 131.553 363.523 131.553C363.523 131.553 366.166 126.158 366.622 122.613C367.078 119.066 366.463 108.275 366.463 108.275C366.463 108.275 368.467 121.533 373.252 118.913C375.371 117.747 379.7 113.044 381.386 106.644C383.527 98.6381 384.37 89.9531 382.639 86.6131C379.586 80.6006 370.974 87.2442 370.974 87.2442L371.543 74.6655C371.543 74.6655 340.239 82.528 324.359 80.5253C308.502 78.5204 288.133 82.2204 288.133 82.2204Z" fill="#FFCDB2"/>
<path fill-rule="evenodd" clip-rule="evenodd" d="M288.404 87.2451L287.359 80.1924C287.359 80.1924 308.726 77.4426 319.989 79.2341C331.229 81.028 337.587 80.9485 342.741 79.786C347.895 78.6234 371.874 74.6406 371.874 74.6406L371.079 86.6138C371.079 86.6138 356.07 87.2746 337.382 84.8746C318.717 82.4722 298.463 81.8341 294.535 83.6825C290.607 85.5262 288.404 87.2451 288.404 87.2451Z" fill="#C49D88"/>
<path fill-rule="evenodd" clip-rule="evenodd" d="M295.432 87.4811C295.432 87.4811 306.542 84.6991 311.493 85.4898C316.421 86.2783 321.864 87.3423 321.886 89.0268C321.909 90.7113 315.95 94.2885 310.731 94.1945C305.512 94.1049 294.581 89.7256 295.432 87.4811Z" fill="white"/>
<path fill-rule="evenodd" clip-rule="evenodd" d="M366.253 86.2279C366.253 86.2279 355.163 83.4454 350.22 84.2346C345.276 85.026 339.833 86.0896 339.811 87.7723C339.811 89.4572 345.752 93.0358 350.968 92.9405C356.184 92.8498 367.137 88.473 366.253 86.2279Z" fill="white"/>
<path fill-rule="evenodd" clip-rule="evenodd" d="M310.086 87.6661C312.238 88.1929 320.868 90.4187 322.617 88.5358C324.41 86.6552 322.415 83.0216 322.415 83.0216L320.532 84.3016C320.532 84.3016 315.421 81.6094 311.499 81.0827C307.553 80.5537 297.556 82.923 299.103 82.9993C300.649 83.0732 302.869 83.3578 302.869 83.3578C302.869 83.3578 291.728 85.3932 295.516 88.2601C299.282 91.1293 307.957 87.1371 310.086 87.6661Z" fill="#360B1E"/>
<path fill-rule="evenodd" clip-rule="evenodd" d="M304.916 87.8669C304.916 87.8669 305.609 94.5406 310.304 93.9459C314.977 93.3489 314.887 87.4867 314.887 87.4867C314.887 87.4867 310.036 85.2957 304.916 87.8669Z" fill="#360B1E"/>
<path fill-rule="evenodd" clip-rule="evenodd" d="M342.873 81.7405C342.873 81.7405 337.587 83.3376 338.857 86.838C340.128 90.3384 344.846 88.8524 349.202 88.2445C353.558 87.6365 359.819 86.4047 362.745 86.8539C365.672 87.303 368.439 87.2418 367.124 85.1955C365.808 83.147 360.704 80.6426 357.709 80.5382C354.715 80.4362 346.888 80.858 346.888 80.858L342.646 83.5327L342.873 81.7405Z" fill="#360B1E"/>
<path fill-rule="evenodd" clip-rule="evenodd" d="M345.771 87.8647C345.771 87.8647 345.001 93.6874 350.204 93.4861C355.385 93.2848 358.009 88.4438 356.787 86.7042C355.543 84.9646 345.771 87.8647 345.771 87.8647Z" fill="#360B1E"/>
<path fill-rule="evenodd" clip-rule="evenodd" d="M321.865 122.292L339.014 120.368C339.014 120.368 334.018 117.773 329.562 117.656C325.106 117.541 321.865 122.292 321.865 122.292Z" fill="#360B1E"/>
<path fill-rule="evenodd" clip-rule="evenodd" d="M292.281 104.086C292.281 104.086 294.141 134.691 307.135 149.679C312.078 155.429 317.997 163.831 325.639 163.829C335.322 163.829 344.507 161.475 347.409 158.838C350.312 156.198 363.284 136.424 365.188 128.312C367.071 120.2 366.028 108.422 366.028 108.422C366.028 108.422 347.228 121.894 340.425 124.223C333.622 126.555 321.92 122.486 314.618 125.103C307.316 127.72 292.281 104.086 292.281 104.086Z" fill="#C49D88"/>
<path d="M327.394 164.413C324.271 164.413 321.719 164.114 320.488 163.634C316.591 162.104 308.524 152.045 308.182 151.617C307.909 151.279 307.977 150.787 308.296 150.518C308.661 150.249 309.139 150.302 309.413 150.641C311.669 153.463 318.164 161.033 321.058 162.177C324.659 163.581 342.161 163.082 346.833 157.446C351.801 151.441 363.994 132.619 364.86 127.658C365.748 122.494 366.181 109.878 366.181 109.75C366.181 109.34 366.523 109.01 366.911 108.996C367.366 109 367.685 109.283 367.731 109.691C367.936 111.603 368.984 116.835 371.263 118.082C371.97 118.469 372.767 118.435 373.656 117.98C381.633 114.035 383.706 92.9726 381.633 86.7944C381.245 85.7187 380.653 85.0738 379.809 84.8209C377.28 84.0643 372.973 86.8513 371.537 87.9863C371.286 88.1754 370.967 88.2097 370.694 88.0684C370.42 87.9294 370.261 87.6467 370.261 87.3413L370.808 74.2989C370.83 73.8682 371.172 73.5104 371.628 73.5514C372.061 73.5697 372.403 73.9343 372.38 74.365L371.879 85.8145C373.839 84.536 377.508 82.5032 380.265 83.3213C381.61 83.7247 382.567 84.7252 383.114 86.2931C385.37 93.0023 383.137 115.037 374.363 119.381C372.973 120.069 371.696 120.094 370.511 119.454C369.121 118.691 368.164 117.077 367.48 115.384C367.298 119.5 366.933 124.887 366.387 127.927C365.429 133.394 353.191 152.216 348.041 158.442C344.372 162.863 334.458 164.413 327.394 164.413Z" fill="#360B1E"/>
<path d="M329.139 132.765C325.212 132.765 322.233 132.503 321.917 132.476C321.466 132.437 321.172 132.056 321.217 131.627C321.24 131.196 321.646 130.889 322.053 130.919C322.256 130.939 342.364 132.688 347.893 127.041C348.187 126.734 348.683 126.728 348.999 127.028C349.292 127.332 349.315 127.827 348.999 128.134C345.207 132.018 335.819 132.765 329.139 132.765Z" fill="#360B1E"/>
<path fill-rule="evenodd" clip-rule="evenodd" d="M339.308 178.795C339.308 178.795 326.325 187.953 329.718 193.012C333.133 198.072 342.451 201.996 347.699 199.727C352.923 197.459 357.357 188.301 357.357 188.301C357.357 188.301 346.296 179.057 344.374 178.709C342.451 178.358 337.996 179.668 337.996 179.668L339.308 178.795Z" fill="#FC9F07"/>
<path fill-rule="evenodd" clip-rule="evenodd" d="M322.324 146.61C322.324 146.61 328.669 142.517 332.629 143.51C336.612 144.506 338.187 146.871 338.187 146.871C338.187 146.871 326.329 145.721 322.324 146.61Z" fill="#360B1E"/>
<path d="M305.508 193.954C305.211 193.954 304.915 193.785 304.778 193.496C304.618 193.103 304.778 192.64 305.188 192.463C308.7 190.857 339.785 176.815 344.118 178.202C345.737 178.722 348.451 180.857 351.895 183.561C356.821 187.423 364.233 193.261 366.628 191.838C370.961 189.267 386.515 174.398 386.674 174.247C386.971 173.949 387.472 173.96 387.769 174.27C388.065 174.583 388.042 175.078 387.746 175.374C387.107 175.992 371.941 190.519 367.449 193.181C364.347 195.012 358.646 190.857 350.937 184.791C347.881 182.391 345.008 180.125 343.639 179.691C340.857 178.786 318.963 187.92 305.827 193.883L305.508 193.954Z" fill="#360B1E"/>
<path fill-rule="evenodd" clip-rule="evenodd" d="M328.238 245.609C328.238 245.609 326.744 236.099 332.677 223.54C338.61 210.98 340.082 196.679 340.082 196.679L349.775 194.5C349.775 194.5 350.296 212.986 354.916 223.105C359.536 233.221 362.072 241.566 362.072 241.566C362.072 241.566 358.63 306.304 351.224 306.304C343.796 306.304 328.238 245.609 328.238 245.609Z" fill="#FC9F07"/>
<path fill-rule="evenodd" clip-rule="evenodd" d="M386.678 379.378L406.631 374.703C406.631 374.703 423.977 389.263 427.299 407.765C430.597 426.264 427.229 455.075 416.434 454.088C405.639 453.1 386.678 379.378 386.678 379.378Z" fill="white"/>
<path fill-rule="evenodd" clip-rule="evenodd" d="M350.734 366.661L339.379 430.5L375.2 433.104L387.284 355.518L350.734 366.661Z" fill="#C39D87"/>
<path fill-rule="evenodd" clip-rule="evenodd" d="M350.734 366.661L339.379 430.5L375.2 433.104L387.284 355.518L350.734 366.661Z" fill="#12130F"/>
<path fill-rule="evenodd" clip-rule="evenodd" d="M373.939 388.017C373.939 388.017 387.246 375.471 393.726 379.417C400.23 383.366 429.772 448.458 415.866 452.906C401.937 457.353 395.156 444.297 392.297 439.814C389.437 435.329 373.939 388.017 373.939 388.017Z" fill="#12130F"/>
<path fill-rule="evenodd" clip-rule="evenodd" d="M384.287 385.994C384.287 385.994 352.024 386.484 345.424 386.436C338.801 386.39 297.776 405.355 299.248 413.178C300.719 420.999 316.104 418.246 316.104 418.246C316.104 418.246 302.835 430.269 310.194 432.515C317.552 434.765 329.235 432.171 329.235 432.171C329.235 432.171 313.344 443.781 319.53 447.316C325.716 450.85 338.226 446.794 338.226 446.794C338.226 446.794 323.463 454.415 330.292 457.682C337.145 460.95 355.634 451.46 367.776 455.307C379.918 459.154 399.557 446.906 409.307 442.542C419.057 438.179 408.732 402.043 384.287 385.994Z" fill="#FFCDB2"/>
<path d="M388.026 160.381C387.639 160.381 387.296 160.075 387.251 159.669C387 156.898 386.247 149.372 385.677 147.869C384.992 146.589 373.975 138.847 363.984 132.223C363.619 131.986 363.527 131.5 363.778 131.142C364.006 130.782 364.485 130.679 364.85 130.921C369.892 134.26 386.407 145.312 387.159 147.324C387.889 149.295 388.711 158.49 388.802 159.532C388.847 159.961 388.528 160.34 388.095 160.379L388.026 160.381Z" fill="#360B1E"/>
<path fill-rule="evenodd" clip-rule="evenodd" d="M368.234 97.4952C368.234 97.4952 369.692 109.892 374.815 105.74C379.961 101.585 382.307 90.5981 379.779 90.0265C377.229 89.455 370.716 94.1252 368.234 97.4952Z" fill="#C49D88"/>
<path d="M368.379 97.8311C368.219 97.8311 368.014 97.7696 367.878 97.6399C367.559 97.3577 367.514 96.8615 367.81 96.5361C368.083 96.2266 374.455 88.9461 379.622 89.3421C380.054 89.3762 380.373 89.754 380.35 90.1842C380.304 90.6143 379.963 90.9351 379.508 90.8987C375.912 90.6256 370.677 95.6121 368.993 97.5648C368.834 97.7423 368.606 97.8311 368.379 97.8311Z" fill="#360B1E"/>
<path fill-rule="evenodd" clip-rule="evenodd" d="M246.325 451.384C236.44 421.844 243.725 392.771 262.623 386.447C281.542 380.128 304.878 398.954 314.742 428.495C324.627 458.038 317.319 487.11 298.422 493.434C279.525 499.753 256.211 480.93 246.325 451.384Z" fill="#12130F"/>
<path fill-rule="evenodd" clip-rule="evenodd" d="M265.469 462.864L286.84 455.714L299.351 493.12L277.98 500.271L265.469 462.864Z" fill="#12130F"/>
<path fill-rule="evenodd" clip-rule="evenodd" d="M226.654 457.964C216.777 428.42 224.068 399.348 242.975 393.027C261.86 386.706 285.182 405.528 295.081 435.073C304.958 464.615 297.645 493.69 278.783 500.011C259.875 506.331 236.531 487.505 226.654 457.964Z" fill="#C49D88"/>
<path fill-rule="evenodd" clip-rule="evenodd" d="M16.6529 438.861C14.4738 439.593 13.281 441.951 14.015 444.13L15.0472 447.19C15.7813 449.371 18.1439 450.548 20.323 449.819L31.1726 446.185L32.2279 449.346L0 460.125L4.67922 474.092L185.522 413.595L190.821 429.436L409.581 355.938L399.603 326.133L310.443 356.275L306.039 343.15L271.012 354.862L275.416 367.992L195.133 394.85L45.4172 444.938L44.362 441.777L53.0555 438.866C55.2576 438.136 56.4274 435.776 55.6934 433.597L54.6841 430.537C53.9271 428.356 51.5874 427.179 49.4083 427.911L16.6529 438.861Z" fill="#C49D88"/>
<path fill-rule="evenodd" clip-rule="evenodd" d="M16.6529 438.861C14.4738 439.593 13.281 441.951 14.015 444.13L15.0472 447.19C15.7813 449.371 18.1439 450.548 20.323 449.819L31.1726 446.185L32.2279 449.346L0 460.125L4.67922 474.092L185.522 413.595L190.821 429.436L409.581 355.938L399.603 326.133L310.443 356.275L306.039 343.15L271.012 354.862L275.416 367.992L195.133 394.85L45.4172 444.938L44.362 441.777L53.0555 438.866C55.2576 438.136 56.4274 435.776 55.6934 433.597L54.6841 430.537C53.9271 428.356 51.5874 427.179 49.4083 427.911L16.6529 438.861Z" fill="#C49D88"/>
<path fill-rule="evenodd" clip-rule="evenodd" d="M16.6529 438.861C14.4738 439.593 13.281 441.951 14.015 444.13L15.0472 447.19C15.7813 449.371 18.1439 450.548 20.323 449.819L31.1726 446.185L32.2279 449.346L0 460.125L4.67922 474.092L185.522 413.595L190.821 429.436L409.581 355.938L399.603 326.133L310.443 356.275L306.039 343.15L271.012 354.862L275.416 367.992L195.133 394.85L45.4172 444.938L44.362 441.777L53.0555 438.866C55.2576 438.136 56.4274 435.776 55.6934 433.597L54.6841 430.537C53.9271 428.356 51.5874 427.179 49.4083 427.911L16.6529 438.861Z" fill="#C49D88"/>
<path d="M192.273 429.952C191.957 429.952 191.641 429.747 191.55 429.419C191.392 429.011 191.618 428.569 192.047 428.431L348.881 375.406C349.287 375.268 349.739 375.487 349.852 375.895C350.01 376.306 349.784 376.749 349.378 376.886L192.521 429.911L192.273 429.952Z" fill="#360B1E"/>
<path d="M187.328 413.289C187.012 413.289 186.719 413.084 186.584 412.757C186.449 412.349 186.674 411.905 187.08 411.767L343.928 358.744C344.334 358.606 344.785 358.825 344.92 359.235C345.056 359.643 344.83 360.085 344.424 360.223L187.599 413.248L187.328 413.289Z" fill="#360B1E"/>
<path d="M193.448 395.503C193.109 395.503 192.792 395.295 192.702 394.967C192.566 394.557 192.792 394.116 193.199 393.981L356.203 339.841C356.61 339.706 357.063 339.927 357.199 340.339C357.334 340.748 357.108 341.189 356.701 341.325L193.674 395.464L193.448 395.503Z" fill="#360B1E"/>
<path fill-rule="evenodd" clip-rule="evenodd" d="M109.978 458.766C109.978 458.766 98.5539 459.77 97.4029 466.482C96.2519 473.194 102.625 479.072 113.644 477.896C124.685 476.721 144.956 467.115 144.934 460.776C144.913 454.435 131.272 459.576 123.428 460.073C115.584 460.571 109.978 458.766 109.978 458.766Z" fill="#FFCDB2"/>
<path fill-rule="evenodd" clip-rule="evenodd" d="M112.965 472.432C112.965 472.432 106.051 492.966 119.878 493.89C133.706 494.815 159.605 477.893 154.596 470.256C149.588 462.621 134.754 476.919 128.162 475.324C121.548 473.727 114.784 469.346 112.965 472.432Z" fill="#FFCDB2"/>
<path fill-rule="evenodd" clip-rule="evenodd" d="M133.366 484.965C131 485.653 118.908 503.611 132.958 504.574C147.008 505.538 177.775 483.777 171.665 478.209C165.533 472.641 144.813 488.02 142.876 485.182C140.918 482.344 135.755 484.276 133.366 484.965Z" fill="#FFCDB2"/>
<path fill-rule="evenodd" clip-rule="evenodd" d="M145.963 490.645C143.587 491.33 131.495 509.291 145.552 510.254C159.588 511.219 190.358 489.456 184.247 483.887C178.136 478.32 157.407 493.701 155.442 490.863C153.499 488.024 148.338 489.957 145.963 490.645Z" fill="#FFCDB2"/>
<path fill-rule="evenodd" clip-rule="evenodd" d="M170.723 437.83C181.709 445.617 164.003 473.684 155.279 466.226C146.555 458.769 159.092 429.585 170.723 437.83Z" fill="#FFCDB2"/>
<path d="M287.322 127.065C286.699 127.065 286.032 126.988 285.299 126.834C283.321 126.408 281.676 124.378 280.431 120.802C277.097 111.186 277.364 92.0003 280.92 87.6927C282.009 86.388 283.165 85.8544 284.365 86.1145C285.743 86.4056 286.899 87.7437 287.81 89.2929L286.721 80.889C286.655 80.4622 286.966 80.0687 287.388 80.0131C287.788 79.9531 288.188 80.2599 288.255 80.6867L290.122 94.9409C290.189 95.3476 289.922 95.7255 289.522 95.8077C289.122 95.8922 288.722 95.6476 288.611 95.2542C287.833 92.5225 285.921 88.0393 284.032 87.6437C283.832 87.597 283.143 87.4503 282.12 88.6884C279.142 92.3203 278.542 110.562 281.898 120.288C282.943 123.271 284.232 125.005 285.632 125.307C287.433 125.692 288.833 125.505 289.833 124.752C291.7 123.338 291.9 120.2 292.011 118.513C292.034 118.188 292.056 117.917 292.056 117.712C292.123 117.283 292.523 116.994 292.945 117.03C293.367 117.081 293.678 117.468 293.634 117.897C293.589 118.077 293.589 118.321 293.567 118.61C293.456 120.546 293.212 124.151 290.789 125.996C289.833 126.708 288.677 127.065 287.322 127.065Z" fill="#360B1E"/>
<path d="M300.807 158.558C300.562 158.558 300.316 158.437 300.161 158.21C300.049 158.041 288.889 141.042 292.03 117.342C292.074 116.915 292.475 116.618 292.921 116.67C293.344 116.727 293.634 117.119 293.567 117.549C290.515 140.672 301.341 157.179 301.453 157.341C301.698 157.7 301.609 158.186 301.252 158.426C301.118 158.515 300.94 158.558 300.807 158.558Z" fill="#360B1E"/>
</svg>
