<svg width="419" height="1011" viewBox="0 0 419 1011" fill="none" xmlns="http://www.w3.org/2000/svg">
<path fill-rule="evenodd" clip-rule="evenodd" d="M0.00874348 970.854C1.05408 952.824 95.5687 941.173 211.111 944.834C326.655 948.496 419.473 966.081 418.426 984.113C417.381 1002.14 322.867 1013.79 207.325 1010.13C91.7821 1006.47 -1.03659 988.885 0.00874348 970.854Z" fill="#12130F"/>
<path fill-rule="evenodd" clip-rule="evenodd" d="M280.605 921.816C280.605 921.816 280.919 954.381 285 958.678C289.083 962.976 298.345 958.184 302.899 966.449C307.452 974.712 323.153 987.277 336.499 991.078C349.844 994.88 384.386 994.714 380.618 984.466C376.85 974.217 358.636 958.844 349.372 950.91C340.109 942.976 331.16 928.922 331.16 928.922L280.605 921.816Z" fill="#360B1E"/>
<path fill-rule="evenodd" clip-rule="evenodd" d="M108.919 926.061C106.843 927.555 111.072 931.071 91.7988 937.451C72.5242 943.831 50.2989 953.117 51.9762 959.511C53.6509 965.904 114.128 961.284 125.81 960.659C137.49 960.033 137.426 955.053 137.426 955.053C137.426 955.053 139.539 958.12 146.204 958.173C152.87 958.228 173.304 957.684 174.464 950.421C175.624 943.159 174.154 932.273 174.154 932.273C174.154 932.273 110.993 924.568 108.919 926.061Z" fill="#360B1E"/>
<path fill-rule="evenodd" clip-rule="evenodd" d="M79.8633 715.678L100.241 935.226C100.241 935.226 175.782 954.544 179.182 936.376C182.578 918.206 174.797 729.808 174.797 729.808C174.797 729.808 165.391 628.477 179.158 633.05C192.926 637.622 235.083 784.202 243.511 810.69C251.939 837.179 258.521 926.66 273.831 935.194C289.141 943.728 339.022 945.398 338.57 930.701C338.119 916.005 290.938 712.102 285.534 678.915C280.131 645.727 183.767 570.821 165.305 567.503C146.842 564.183 79.8633 715.678 79.8633 715.678Z" fill="#12130F"/>
<path fill-rule="evenodd" clip-rule="evenodd" d="M55.8516 213.404C65.821 205.497 114.929 181.777 129.658 179.271C144.386 176.777 188.662 179.231 214.845 195.937C241.025 212.631 275.222 219.244 281.55 233.95C287.878 248.644 244.381 361.244 244.381 361.244C244.381 361.244 275.166 500.924 283.429 524.75C291.692 548.577 328.992 775.598 328.992 775.598L226.122 779.389L203.512 687.747C203.512 687.747 204.82 777.343 203.512 779.389C202.202 781.439 59.473 773.441 59.473 773.441C59.473 773.441 78.0543 453.151 74.5556 460.324C71.0556 467.497 58.733 440.657 48.5183 428.884C35.9356 414.377 45.881 221.297 55.8516 213.404Z" fill="#360B1E"/>
<path fill-rule="evenodd" clip-rule="evenodd" d="M146.497 182.564C146.497 182.564 123.504 183.457 122.236 188.204C120.968 192.937 142.207 201.884 158.633 202.537C175.059 203.177 193.541 194.817 189.488 188.257C185.434 181.697 146.497 182.564 146.497 182.564Z" fill="#360B1E"/>
<path d="M139.261 233.67L138.945 233.604C138.552 233.43 138.373 232.964 138.547 232.577C139.859 229.604 151.541 203.484 157.772 201.47C158.688 201.177 159.364 201.39 159.769 201.63C162.409 203.177 165.008 208.67 167.76 214.484C170.399 220.057 173.684 226.99 176.039 227.11C180.791 227.377 198.672 213.924 202.821 205.964C203.021 205.59 203.493 205.43 203.875 205.63C204.257 205.83 204.405 206.31 204.207 206.684C199.971 214.817 181.769 229.017 175.953 228.684C172.669 228.497 169.74 222.31 166.348 215.15C163.819 209.804 161.203 204.284 158.979 202.977C158.856 202.91 158.645 202.83 158.251 202.95C153.54 204.47 143.463 225.31 139.976 233.204C139.848 233.497 139.561 233.67 139.261 233.67Z" fill="#360B1E"/>
<path fill-rule="evenodd" clip-rule="evenodd" d="M124.156 46.0171C124.156 46.0171 127.262 3.53708 158.346 0.243748C189.43 -3.03625 204.191 27.4837 203.434 49.7771C202.675 72.0571 200.034 79.7905 200.034 79.7905L124.156 46.0171Z" fill="#360B1E"/>
<path fill-rule="evenodd" clip-rule="evenodd" d="M147.566 41.2699C147.566 41.2699 171.744 45.7632 183.542 45.6299C195.341 45.4966 202.982 42.9098 202.982 42.9098L202.429 64.4966L147.566 41.2699Z" fill="#979C16"/>
<path fill-rule="evenodd" clip-rule="evenodd" d="M126.004 158.217C124.836 157.964 121.053 152.364 122.221 150.657C123.39 148.951 150.165 150.631 161.941 149.431C173.717 148.231 188.105 142.991 188.248 145.057C188.392 147.111 182.421 160.671 168.401 166.231C154.38 171.804 144.117 175.017 140.347 173.004C136.577 170.977 127.172 158.471 126.004 158.217Z" fill="#360B1E"/>
<path fill-rule="evenodd" clip-rule="evenodd" d="M7.0625 413.071C7.0625 413.071 15.0838 206.417 32.7705 193.817C50.4545 181.217 118.873 157.417 139.73 153.124C160.588 148.831 259.622 161.817 286.414 188.031C313.206 214.244 322.673 373.284 302.18 382.564C281.687 391.857 247.719 381.484 247.719 381.484L263.528 444.284L169.93 472.644C169.93 472.644 156.63 420.617 155.384 430.897C154.137 441.191 143.333 481.457 143.333 481.457C143.333 481.457 104.343 490.324 73.1038 477.884C41.8652 465.444 7.0625 413.071 7.0625 413.071Z" fill="#360B1E"/>
<path fill-rule="evenodd" clip-rule="evenodd" d="M114.861 173.857C114.861 173.857 129.312 152.563 125.328 133.683C121.344 114.803 185.22 127.083 184.363 132.243C183.504 137.403 178.025 147.803 183.115 155.217C188.203 162.63 186.367 164.817 186.367 164.817C186.367 164.817 121.953 178.083 114.861 173.857Z" fill="#FFCDB2"/>
<path fill-rule="evenodd" clip-rule="evenodd" d="M125.43 133.511C125.43 133.511 126.02 137.057 125.94 140.577C125.86 144.084 125.43 147.551 125.43 147.551C125.43 147.551 146.02 159.844 159.399 155.217C172.776 150.604 181.182 136.951 181.182 136.951L125.43 133.511Z" fill="#360B1E"/>
<path fill-rule="evenodd" clip-rule="evenodd" d="M85.7053 48.3635C90.3826 29.3102 131.479 28.8036 157.86 40.5902C184.241 52.3902 213.239 68.2835 227.989 72.7369C242.737 77.1902 239.176 111.857 202.563 111.857C191.055 111.857 170.317 102.07 148.836 94.7369C115.021 83.1902 80.4773 69.6702 85.7053 48.3635Z" fill="#12130F"/>
<path fill-rule="evenodd" clip-rule="evenodd" d="M119.594 54.444C119.594 54.444 112.626 104.724 116.785 119.471C120.943 134.217 139.386 154.471 158.122 151.871C176.858 149.257 188.987 131.137 191.087 118.057C193.189 104.977 195.31 69.9774 195.31 69.9774C195.31 69.9774 175.183 60.8974 154.147 55.9107C133.113 50.924 119.594 54.444 119.594 54.444Z" fill="#FFCDB2"/>
<path fill-rule="evenodd" clip-rule="evenodd" d="M139.628 92.8032C139.628 92.8032 149.356 90.9366 150.478 86.7232C151.6 82.5232 149.046 75.1098 149.046 75.1098L126.037 72.7365C126.037 72.7365 127.002 82.8299 130.064 84.2299C133.125 85.6166 141.154 84.0299 141.672 85.8299C142.186 87.6432 145.352 87.7499 139.628 92.8032Z" fill="#C49D88"/>
<path fill-rule="evenodd" clip-rule="evenodd" d="M174.768 94.4038C174.768 94.4038 165.04 92.5504 163.917 88.3371C162.796 84.1371 165.349 76.7104 165.349 76.7104L187.571 77.9771C187.571 77.9771 188.22 84.4971 185.159 85.8971C182.096 87.2838 173.241 85.6304 172.725 87.4438C172.209 89.2571 169.045 89.3638 174.768 94.4038Z" fill="#C49D88"/>
<path fill-rule="evenodd" clip-rule="evenodd" d="M149.179 75.3641C149.179 75.3641 147.124 74.3908 141.616 75.0575C136.109 75.7241 130.286 75.6307 127.201 74.284C124.118 72.9507 123.288 70.7775 125.407 69.4975C127.525 68.2308 133.291 66.924 137.481 67.4174C141.673 67.8974 143.501 68.6308 143.501 68.6308L146.276 71.4174L147.279 69.2575C147.279 69.2575 155.963 72.6708 149.179 75.3641Z" fill="#360B1E"/>
<path fill-rule="evenodd" clip-rule="evenodd" d="M165.642 72.19C165.642 72.19 162.266 75.7765 165.349 77.3499C168.431 78.9365 171.467 80.6033 176.443 80.4299C181.419 80.2566 189.406 81.9233 188.242 78.4299C187.078 74.9499 182.465 72.8566 179.554 72.5633C176.646 72.2833 172.339 71.9099 172.339 71.9099L167.922 73.8699L168.581 71.59C168.581 71.59 166.799 70.7633 165.642 72.19Z" fill="#360B1E"/>
<path fill-rule="evenodd" clip-rule="evenodd" d="M148.291 86.4032C147.782 84.2032 140.174 83.0565 137.515 82.9632C134.855 82.8699 127.863 83.0299 128.574 84.8299C129.283 86.6165 134.939 88.2698 139.417 88.3365C143.895 88.4032 148.747 88.3765 148.291 86.4032Z" fill="white"/>
<path fill-rule="evenodd" clip-rule="evenodd" d="M166.102 88.0165C166.612 85.8165 174.218 84.6698 176.88 84.5765C179.54 84.4832 186.53 84.6432 185.821 86.4299C185.11 88.2299 179.454 89.8831 174.976 89.9498C170.498 90.0165 165.645 89.9898 166.102 88.0165Z" fill="white"/>
<path fill-rule="evenodd" clip-rule="evenodd" d="M143.961 88.3104C143.961 88.3104 148.272 88.8037 148.51 86.817C148.75 84.8437 145.662 83.3105 140.657 82.6571C135.653 81.9905 127.537 84.0971 127.537 84.0971C127.537 84.0971 137.436 83.2438 142.317 84.2704C147.197 85.2838 149.93 87.0171 143.961 88.3104Z" fill="#360B1E"/>
<path fill-rule="evenodd" clip-rule="evenodd" d="M170.433 89.9105C170.433 89.9105 166.123 90.4039 165.884 88.4305C165.644 86.4439 168.732 84.9239 173.737 84.2572C178.743 83.6039 186.857 85.7105 186.857 85.7105C186.857 85.7105 176.959 84.8572 172.077 85.8705C167.197 86.8972 164.464 88.6305 170.433 89.9105Z" fill="#360B1E"/>
<path fill-rule="evenodd" clip-rule="evenodd" d="M136.668 83.6572C136.668 83.6572 136.087 87.2839 139.902 87.5239C143.715 87.7639 143.25 83.9105 143.25 83.9105C143.25 83.9105 137.304 82.8305 136.668 83.6572Z" fill="#360B1E"/>
<path fill-rule="evenodd" clip-rule="evenodd" d="M179.914 85.0703C179.914 85.0703 180.495 88.697 176.68 88.937C172.867 89.177 173.332 85.3237 173.332 85.3237C173.332 85.3237 179.278 84.2436 179.914 85.0703Z" fill="#360B1E"/>
<path fill-rule="evenodd" clip-rule="evenodd" d="M131.468 121.897C131.468 121.897 139.011 115.684 144.595 114.497C150.177 113.311 154.182 112.231 161.524 115.377C168.867 118.524 174.499 122.191 172.752 124.804C171.007 127.404 158.232 123.164 152.797 122.884C147.363 122.604 130.745 125.724 131.468 121.897Z" fill="#360B1E"/>
<path fill-rule="evenodd" clip-rule="evenodd" d="M145.686 107.483L162.214 108.11C162.214 108.11 157.878 111.843 153.836 111.11C149.795 110.39 145.686 107.483 145.686 107.483Z" fill="#360B1E"/>
<path fill-rule="evenodd" clip-rule="evenodd" d="M190.818 101.75C190.818 101.75 196.968 88.217 202.59 93.4036C208.21 98.577 198.306 120.364 191.779 117.99C185.251 115.617 190.818 101.75 190.818 101.75Z" fill="#FFCDB2"/>
<path fill-rule="evenodd" clip-rule="evenodd" d="M116.856 90.4701C116.856 90.4701 110.705 76.9368 105.084 82.1101C99.464 87.2968 109.368 109.083 115.895 106.71C122.423 104.337 116.856 90.4701 116.856 90.4701Z" fill="#FFCDB2"/>
<path d="M190.813 112.497L190.459 112.416C190.075 112.216 189.923 111.75 190.119 111.363C190.32 110.977 195.087 101.763 200.547 99.9498C200.96 99.8165 201.399 100.03 201.535 100.443C201.671 100.856 201.449 101.297 201.04 101.43C196.185 103.043 191.556 111.99 191.509 112.07C191.371 112.35 191.097 112.497 190.813 112.497Z" fill="#360B1E"/>
<path d="M114.539 97.8305C114.277 97.8305 114.019 97.6972 113.873 97.4572C112.542 95.2972 108.461 89.4039 105.589 88.2305C105.19 88.0705 104.998 87.6038 105.162 87.2038C105.327 86.8172 105.784 86.6172 106.182 86.7772C110.113 88.3905 114.998 96.3105 115.205 96.6438C115.43 97.0172 115.314 97.4972 114.946 97.7239C114.82 97.7906 114.678 97.8305 114.539 97.8305Z" fill="#360B1E"/>
<path fill-rule="evenodd" clip-rule="evenodd" d="M117.021 71.3637L119.985 53.737C119.985 53.737 133.113 51.8037 153.269 55.6437C173.425 59.497 195.311 69.9503 195.311 69.9503C195.311 69.9503 163.463 63.6704 148.239 62.3104C133.014 60.937 119.617 68.0304 117.021 71.3637Z" fill="#C49D88"/>
<path fill-rule="evenodd" clip-rule="evenodd" d="M121.429 150.404C121.429 150.404 103.737 162.084 105.8 166.537C107.864 170.991 118.121 179.324 118.121 179.324C118.121 179.324 120.087 217.191 135.012 241.631C149.937 266.057 157.852 274.377 157.852 274.377C157.852 274.377 181.233 206.497 185.876 182.564C190.519 158.617 188.311 144.884 188.311 144.884L181.631 151.791C181.631 151.791 165.457 168.951 152.375 168.137C139.295 167.337 121.429 150.404 121.429 150.404Z" fill="white"/>
<path fill-rule="evenodd" clip-rule="evenodd" d="M121.429 150.404C121.429 150.404 103.737 162.084 105.8 166.537C107.864 170.991 118.121 179.324 118.121 179.324C118.121 179.324 120.087 217.191 135.012 241.631C149.937 266.057 157.852 274.377 157.852 274.377C157.852 274.377 181.233 206.497 185.876 182.564C186.792 177.831 187.441 173.511 187.893 169.604C188.219 166.791 193.776 164.124 193.924 161.764C194.608 150.791 188.311 144.884 188.311 144.884L181.631 151.791C181.631 151.791 165.457 168.951 152.375 168.137C139.295 167.337 121.429 150.404 121.429 150.404Z" fill="white"/>
<path fill-rule="evenodd" clip-rule="evenodd" d="M138.848 183.817L150.961 170.697L163.256 180.231C163.256 180.231 160.92 184.99 159.016 186.95C157.11 188.91 157.818 193.657 162.468 203.524C167.118 213.377 171.341 234.324 171.341 234.324C171.341 234.324 159.654 275.231 156.822 274.831C153.989 274.431 141.465 252.377 141.465 252.377C141.465 252.377 152.397 226.871 151.186 213.804C149.974 200.724 149.45 189.764 149.45 189.764C149.45 189.764 140.456 186.817 138.848 183.817Z" fill="#979C16"/>
<path fill-rule="evenodd" clip-rule="evenodd" d="M65.0245 338.857C65.9605 335.124 76.9686 405.724 75.1739 410.977C73.3832 416.217 69.3539 429.284 71.9699 436.75C74.5872 444.217 76.3472 472.79 76.3472 472.79C76.3472 472.79 68.9392 448.87 64.1446 444.31C59.3512 439.764 60.0619 427.257 64.0552 419.924C64.3485 419.391 68.7899 411.977 68.7806 410.791C68.5739 386.444 64.3099 341.711 65.0245 338.857Z" fill="#12130F"/>
<path fill-rule="evenodd" clip-rule="evenodd" d="M168.656 378.351C168.656 373.524 170.884 369.617 173.634 369.617C176.383 369.617 178.611 373.524 178.611 378.351C178.611 383.164 176.383 387.071 173.634 387.071C170.884 387.071 168.656 383.164 168.656 378.351Z" fill="#12130F"/>
<path fill-rule="evenodd" clip-rule="evenodd" d="M203.498 375.07C203.498 370.257 205.727 366.35 208.477 366.35C211.226 366.35 213.454 370.257 213.454 375.07C213.454 379.897 211.226 383.803 208.477 383.803C205.727 383.803 203.498 379.897 203.498 375.07Z" fill="#12130F"/>
<path fill-rule="evenodd" clip-rule="evenodd" d="M168.656 412.311C168.656 407.484 170.884 403.577 173.634 403.577C176.383 403.577 178.611 407.484 178.611 412.311C178.611 417.124 176.383 421.031 173.634 421.031C170.884 421.031 168.656 417.124 168.656 412.311Z" fill="#12130F"/>
<path fill-rule="evenodd" clip-rule="evenodd" d="M208.477 406.031C208.477 401.217 210.705 397.311 213.454 397.311C216.202 397.311 218.431 401.217 218.431 406.031C218.431 410.857 216.202 414.764 213.454 414.764C210.705 414.764 208.477 410.857 208.477 406.031Z" fill="#12130F"/>
<path d="M133.713 188.564C125.179 188.564 107.613 169.991 105.42 167.631C105.127 167.324 105.144 166.831 105.46 166.537C105.775 166.244 106.271 166.257 106.564 166.577C115.46 176.124 131.141 189.991 135.361 186.497C141.576 181.351 150.068 170.177 150.153 170.071C150.285 169.897 150.487 169.777 150.705 169.764C150.928 169.751 151.141 169.817 151.303 169.964C156.616 174.831 166.025 182.537 168.669 182.537H168.675C171.323 182.524 181.809 174.271 187.799 169.071C188.124 168.777 188.617 168.817 188.9 169.137C189.184 169.471 189.148 169.964 188.823 170.244C187.192 171.657 172.776 184.084 168.68 184.097H168.671C164.913 184.097 153.887 174.404 150.88 171.684C148.915 174.231 141.887 183.124 136.357 187.697C135.635 188.297 134.739 188.564 133.713 188.564Z" fill="#360B1E"/>
<path d="M167.013 130.057H166.997C166.892 130.057 164.355 129.977 159.06 128.31C154.193 126.764 149.087 129.284 149.035 129.31C148.651 129.51 148.18 129.35 147.987 128.964C147.792 128.59 147.945 128.11 148.329 127.924C148.56 127.804 154.045 125.07 159.533 126.817C164.572 128.417 167.007 128.497 167.031 128.497C167.461 128.497 167.803 128.857 167.793 129.284C167.784 129.71 167.437 130.057 167.013 130.057Z" fill="#360B1E"/>
<path d="M194.172 118.977C194.041 118.977 193.914 118.964 193.791 118.937C190.544 118.137 189.956 116.444 189.9 116.257C189.776 115.844 190.012 115.417 190.426 115.284C190.843 115.164 191.275 115.404 191.398 115.817C191.399 115.817 191.836 116.844 194.166 117.417C194.364 117.444 195.471 116.99 197.462 114.31C201.119 109.404 205.448 99.737 203.128 94.617C202.539 93.3103 201.816 92.6437 200.919 92.577C198.046 92.3637 193.766 97.857 192.368 100.004C192.134 100.364 191.65 100.47 191.287 100.23C190.926 99.9904 190.824 99.5103 191.06 99.1503C191.627 98.2837 196.707 90.697 201.039 91.017C202.535 91.137 203.718 92.1237 204.552 93.977C207.482 100.444 201.574 111.87 197.914 116.27C196.402 118.084 195.172 118.977 194.172 118.977Z" fill="#360B1E"/>
<path d="M173.083 472.577C172.773 472.577 172.48 472.39 172.357 472.097C171.8 470.697 158.687 437.923 156.408 424.643C153.897 410.03 153.069 290.563 157.413 275.043C159.608 267.203 166.175 247.27 172.524 228.003C178.876 208.723 184.875 190.523 186.161 185.457C186.268 185.043 186.695 184.79 187.111 184.897C187.529 185.003 187.781 185.43 187.676 185.843C186.376 190.95 180.368 209.19 174.008 228.483C167.663 247.75 161.103 267.657 158.919 275.457C154.655 290.697 155.716 411.39 157.948 424.377C160.199 437.497 173.672 471.163 173.808 471.51C173.968 471.91 173.775 472.363 173.375 472.523L173.083 472.577Z" fill="#12130F"/>
<path fill-rule="evenodd" clip-rule="evenodd" d="M216.446 306.79C216.446 306.79 227.298 308.056 230.941 312.336C234.584 316.616 236.453 325.59 235.809 327.496C235.165 329.39 243.466 340.643 239.642 345.47C235.818 350.283 229.712 353.523 229.712 353.523C229.712 353.523 231.521 357.443 228.109 360.536C224.7 363.616 219.626 365.896 219.626 365.896C219.626 365.896 222.625 370.776 218.204 372.443C213.782 374.123 198.869 374.91 192.35 368.843C185.83 362.776 182.196 351.136 182.196 351.136L179.476 343.096L176.43 336.35C176.43 336.35 173.04 338.256 170.38 332.616C167.721 326.976 163.174 309.75 169.682 305.403C176.19 301.056 185.386 303.416 190.701 304.55C196.016 305.683 209.13 306.537 216.446 306.79Z" fill="white"/>
<path fill-rule="evenodd" clip-rule="evenodd" d="M225.681 290.231C225.681 278.817 216.161 269.564 204.42 269.564C192.677 269.564 183.16 278.817 183.16 290.231C183.16 301.657 192.677 310.911 204.42 310.911C216.161 310.911 225.681 301.657 225.681 290.231Z" fill="#12130F"/>
<path d="M204.42 270.351C193.128 270.351 183.94 279.271 183.94 290.231C183.94 301.204 193.128 310.124 204.42 310.124C215.714 310.124 224.9 301.204 224.9 290.231C224.9 279.271 215.714 270.351 204.42 270.351ZM204.42 311.684C192.267 311.684 182.379 302.057 182.379 290.231C182.379 278.404 192.267 268.777 204.42 268.777C216.575 268.777 226.463 278.404 226.463 290.231C226.463 302.057 216.575 311.684 204.42 311.684Z" fill="#360B1E"/>
<path fill-rule="evenodd" clip-rule="evenodd" d="M204.191 255.924H203.456C202.42 255.924 201.58 256.791 201.58 257.871V269.231C201.58 270.311 202.42 271.177 203.456 271.177H204.191C205.229 271.177 206.069 270.311 206.069 269.231V257.871C206.069 256.791 205.229 255.924 204.191 255.924Z" fill="#12130F"/>
<path d="M203.456 256.697C202.854 256.697 202.362 257.23 202.362 257.87V269.23C202.362 269.87 202.854 270.403 203.456 270.403H204.191C204.796 270.403 205.288 269.87 205.288 269.23V257.87C205.288 257.23 204.796 256.697 204.191 256.697H203.456ZM204.191 271.963H203.456C201.991 271.963 200.799 270.737 200.799 269.23V257.87C200.799 256.363 201.991 255.137 203.456 255.137H204.191C205.657 255.137 206.851 256.363 206.851 257.87V269.23C206.851 270.737 205.657 271.963 204.191 271.963Z" fill="#12130F"/>
<path fill-rule="evenodd" clip-rule="evenodd" d="M213.803 275.377C213.803 269.644 209.34 265.004 203.833 265.004C198.328 265.004 193.865 269.644 193.865 275.377C193.865 281.097 198.328 285.75 203.833 285.75C209.34 285.75 213.803 281.097 213.803 275.377Z" fill="#360B1E"/>
<path d="M203.833 265.777C198.768 265.777 194.647 270.084 194.647 275.377C194.647 280.657 198.768 284.964 203.833 284.964C208.9 284.964 213.021 280.657 213.021 275.377C213.021 270.084 208.9 265.777 203.833 265.777ZM203.833 286.524C197.907 286.524 193.084 281.524 193.084 275.377C193.084 269.23 197.907 264.217 203.833 264.217C209.761 264.217 214.584 269.23 214.584 275.377C214.584 281.524 209.761 286.524 203.833 286.524Z" fill="#12130F"/>
<path fill-rule="evenodd" clip-rule="evenodd" d="M210.882 275.377C210.882 271.324 207.726 268.044 203.833 268.044C199.941 268.044 196.785 271.324 196.785 275.377C196.785 279.417 199.941 282.71 203.833 282.71C207.726 282.71 210.882 279.417 210.882 275.377Z" fill="#12130F"/>
<path d="M203.833 268.817C200.379 268.817 197.567 271.764 197.567 275.377C197.567 278.991 200.379 281.924 203.833 281.924C207.289 281.924 210.101 278.991 210.101 275.377C210.101 271.764 207.289 268.817 203.833 268.817ZM203.833 283.484C199.517 283.484 196.004 279.844 196.004 275.377C196.004 270.897 199.517 267.257 203.833 267.257C208.151 267.257 211.663 270.897 211.663 275.377C211.663 279.844 208.151 283.484 203.833 283.484Z" fill="#12130F"/>
<path d="M213.235 338.55C212.723 338.55 212.207 338.537 211.688 338.497C209.201 338.337 205.98 338.284 202.569 338.23C190.492 338.044 182.477 337.724 181.169 335.23C180.208 333.39 178.859 328.937 180.635 325.23C181.811 322.777 184.083 321.204 187.388 320.55C189.536 320.124 192.672 320.044 195.992 319.964C202.085 319.804 208.992 319.63 212.031 317.39C212.38 317.124 212.868 317.204 213.124 317.55C213.38 317.897 213.305 318.39 212.959 318.644C209.524 321.177 202.356 321.364 196.032 321.524C192.78 321.604 189.709 321.684 187.691 322.084C184.895 322.644 182.995 323.924 182.044 325.91C180.645 328.83 181.583 332.644 182.553 334.497C183.529 336.364 195.003 336.55 202.595 336.67C206.024 336.724 209.264 336.777 211.787 336.937C220.616 337.51 228.805 332.577 228.887 332.524C229.253 332.31 229.735 332.417 229.96 332.79C230.185 333.164 230.069 333.644 229.701 333.857C229.371 334.07 221.925 338.55 213.235 338.55Z" fill="#360B1E"/>
<path fill-rule="evenodd" clip-rule="evenodd" d="M205.631 314.19H201.961C200.925 314.19 200.082 315.07 200.082 316.15V342.697C200.082 343.777 200.925 344.657 201.961 344.657H205.631C206.667 344.657 207.507 343.777 207.507 342.697V316.15C207.507 315.07 206.667 314.19 205.631 314.19Z" fill="#12130F"/>
<path d="M201.961 314.977C201.357 314.977 200.863 315.497 200.863 316.15V342.697C200.863 343.35 201.357 343.87 201.961 343.87H205.631C206.235 343.87 206.726 343.35 206.726 342.697V316.15C206.726 315.497 206.235 314.977 205.631 314.977H201.961ZM205.631 345.43H201.961C200.495 345.43 199.301 344.203 199.301 342.697V316.15C199.301 314.643 200.495 313.417 201.961 313.417H205.631C207.097 313.417 208.289 314.643 208.289 316.15V342.697C208.289 344.203 207.097 345.43 205.631 345.43Z" fill="#360B1E"/>
<path fill-rule="evenodd" clip-rule="evenodd" d="M216.305 305.737L214.524 317.031C214.524 317.031 213.26 318.084 211.781 318.777C210.216 319.524 208.405 319.897 207.338 320.031C205.264 320.297 194.124 321.911 193.307 320.644C192.491 319.391 191.369 304.844 191.369 304.844L216.305 305.737Z" fill="#12130F"/>
<path d="M193.428 300.897C193.105 300.897 192.804 300.697 192.691 300.377C192.548 299.964 192.763 299.524 193.169 299.377C194.504 298.91 195.401 297.604 195.401 296.124C195.401 295.697 195.751 295.35 196.183 295.35C196.613 295.35 196.964 295.697 196.964 296.124C196.964 298.27 195.647 300.164 193.688 300.857L193.428 300.897Z" fill="#360B1E"/>
<path d="M215.303 287.924C213.467 287.924 211.813 286.871 210.989 285.178C210.8 284.791 210.961 284.324 211.349 284.138C211.736 283.951 212.205 284.111 212.393 284.498C212.955 285.644 214.069 286.364 215.303 286.364C217.104 286.364 218.569 284.831 218.569 282.938C218.569 281.044 217.104 279.498 215.303 279.498C214.872 279.498 214.523 279.151 214.523 278.724C214.523 278.284 214.872 277.938 215.303 277.938C217.967 277.938 220.132 280.178 220.132 282.938C220.132 285.684 217.967 287.924 215.303 287.924Z" fill="#360B1E"/>
<path d="M214.249 301.59C211.587 301.59 209.42 299.35 209.42 296.59C209.42 295.817 209.599 295.03 209.939 294.337C210.128 293.95 210.595 293.79 210.983 293.99C211.371 294.177 211.531 294.644 211.34 295.03C211.103 295.51 210.983 296.044 210.983 296.59C210.983 298.484 212.448 300.03 214.249 300.03C216.051 300.03 217.516 298.484 217.516 296.59C217.516 295.084 216.597 293.777 215.231 293.324C214.821 293.177 214.6 292.737 214.735 292.337C214.871 291.924 215.313 291.697 215.721 291.83C217.729 292.497 219.079 294.417 219.079 296.59C219.079 299.35 216.912 301.59 214.249 301.59Z" fill="#360B1E"/>
<path fill-rule="evenodd" clip-rule="evenodd" d="M192.127 291.631C189.737 291.631 187.802 293.644 187.802 296.124C187.802 296.671 187.89 297.177 188.063 297.671C188.117 297.817 188.285 297.911 188.43 297.857C188.575 297.804 188.639 297.617 188.587 297.471C188.435 297.044 188.361 296.591 188.361 296.124C188.361 293.964 190.047 292.217 192.127 292.217C192.282 292.217 192.406 292.084 192.406 291.924C192.406 291.764 192.282 291.631 192.127 291.631ZM200.047 286.097C199.926 285.991 199.759 286.004 199.662 286.124C198.771 287.297 198.267 288.751 198.267 290.271C198.267 293.924 201.119 296.897 204.634 296.897C207.37 296.897 209.773 295.071 210.653 292.431C210.703 292.284 210.623 292.111 210.478 292.071C210.331 292.017 210.181 292.097 210.13 292.244C209.329 294.657 207.13 296.311 204.634 296.311C201.427 296.311 198.826 293.604 198.826 290.271C198.826 288.884 199.285 287.551 200.099 286.497C200.197 286.364 200.167 286.191 200.047 286.097ZM208.577 285.417L208.595 285.844C208.889 286.124 209.149 286.444 209.381 286.777C209.469 286.911 209.638 286.951 209.763 286.857C209.889 286.764 209.921 286.591 209.833 286.457C209.579 286.084 209.301 285.737 208.978 285.417H208.577ZM195.198 283.844C195.049 283.804 194.885 283.911 194.849 284.057C194.566 285.284 193.731 286.284 192.617 286.764C192.474 286.831 192.418 286.991 192.477 287.151C192.535 287.297 192.685 287.364 192.825 287.311C194.106 286.764 195.065 285.617 195.39 284.204C195.425 284.044 195.349 283.884 195.198 283.844ZM197.307 282.831L196.925 282.844L196.943 283.257C198.817 285.031 201.246 286.044 203.833 286.044C204.985 286.044 206.114 285.844 207.182 285.457C207.327 285.404 207.407 285.231 207.357 285.084C207.306 284.924 207.135 284.857 206.99 284.911C205.981 285.271 204.922 285.457 203.833 285.457C201.387 285.457 199.079 284.497 197.307 282.831ZM187.505 281.377C187.361 281.324 187.194 281.404 187.138 281.551C186.957 282.057 186.859 282.591 186.859 283.137C186.859 283.831 187.011 284.497 187.297 285.111C187.363 285.257 187.542 285.311 187.679 285.244C187.819 285.164 187.87 285.004 187.802 284.857C187.554 284.324 187.417 283.737 187.417 283.137C187.417 282.657 187.502 282.191 187.662 281.751C187.717 281.604 187.649 281.431 187.505 281.377ZM210.81 276.457C210.659 276.431 210.507 276.537 210.478 276.697C209.878 279.991 207.099 282.417 203.833 282.417C202.929 282.417 202.05 282.231 201.233 281.884C201.091 281.817 200.926 281.884 200.866 282.031C200.807 282.177 200.882 282.351 201.023 282.417C201.907 282.791 202.855 282.991 203.833 282.991C207.369 282.991 210.387 280.377 211.035 276.804C211.065 276.644 210.961 276.484 210.81 276.457ZM194.885 270.817C194.745 270.751 194.563 270.817 194.501 270.964C193.898 272.337 193.593 273.831 193.593 275.364C193.593 276.817 193.858 278.231 194.395 279.537C194.457 279.684 194.621 279.764 194.762 279.711C194.905 279.644 194.979 279.471 194.919 279.324C194.411 278.084 194.151 276.751 194.151 275.364C194.151 273.911 194.437 272.497 195.006 271.191C195.07 271.044 195.023 270.884 194.885 270.817ZM203.833 264.711C201.865 264.711 199.982 265.297 198.355 266.364C198.225 266.457 198.185 266.631 198.267 266.764C198.35 266.897 198.522 266.937 198.653 266.857C200.189 265.844 201.971 265.297 203.833 265.297C209.183 265.297 213.53 269.804 213.53 275.364C213.53 277.391 212.953 279.324 211.891 280.977C211.805 281.111 211.833 281.297 211.961 281.391C212.089 281.484 212.259 281.431 212.345 281.297C213.467 279.564 214.089 277.511 214.09 275.364C214.09 269.484 209.493 264.711 203.833 264.711Z" fill="white"/>
</svg>
