<svg width="252" height="916" viewBox="0 0 252 916" fill="none" xmlns="http://www.w3.org/2000/svg">
<path fill-rule="evenodd" clip-rule="evenodd" d="M0 895.92C0 885.272 51.7293 876.64 115.529 876.64C179.343 876.64 231.063 885.272 231.063 895.92C231.063 906.568 179.343 915.198 115.529 915.198C51.7293 915.198 0 906.568 0 895.92Z" fill="#12130F"/>
<path fill-rule="evenodd" clip-rule="evenodd" d="M230.848 632.552C230.848 632.552 65.0084 611.983 53.0084 633.151C41.0217 654.316 124.688 655.788 153.648 651.559C182.608 647.332 230.848 632.552 230.848 632.552Z" fill="#360B1E"/>
<path fill-rule="evenodd" clip-rule="evenodd" d="M134.928 827.053C134.928 827.053 127.408 842.497 131.048 855.165C133.701 864.443 131.581 877.295 132.714 884.639C133.848 891.982 142.194 908.593 151.514 906.898C160.834 905.202 172.368 903.513 169.248 886.557C164.408 860.147 156.888 855.754 150.954 848.41C145.021 841.066 134.928 827.053 134.928 827.053Z" fill="#979C16"/>
<path fill-rule="evenodd" clip-rule="evenodd" d="M95.4608 812.766C95.4608 812.766 59.5808 855.51 57.3274 869.802C55.0741 884.093 48.2608 901.117 57.7541 902.939C67.2475 904.762 86.8074 892.673 99.7274 872.579C112.661 852.485 119.354 819.749 113.247 812.434C107.141 805.118 95.4608 812.766 95.4608 812.766Z" fill="#979C16"/>
<path fill-rule="evenodd" clip-rule="evenodd" d="M76.0626 601.093C76.0626 601.093 90.556 793.633 87.1827 812.241C83.8094 830.849 61.3827 857.817 64.8761 868.169C68.3694 878.522 82.4093 887.395 92.196 877.854C101.996 868.311 113.823 825.546 115.863 809.093C117.903 792.641 137.116 636.866 137.116 636.866L129.503 841.383C129.503 841.383 129.836 889.131 141.796 892.095C153.756 895.062 164.663 892.025 164.236 876.309C163.809 860.591 153.156 844.29 156.849 823.619C160.529 802.95 199.649 659.069 190.796 607.023C181.943 554.977 74.3693 566.177 76.0626 601.093Z" fill="#FFCDB2"/>
<path fill-rule="evenodd" clip-rule="evenodd" d="M67.9148 295.117C67.9148 295.117 60.6749 351.731 59.4349 378.531C58.1949 405.331 62.9548 402.317 62.9548 402.317L52.0215 638.549C52.0215 638.549 66.1416 624.317 121.702 638.549C177.262 652.779 232.621 632.831 232.621 632.831C232.621 632.831 232.208 527.291 227.315 469.432C222.422 411.571 213.048 401.384 213.048 401.384C213.048 401.384 222.902 402.704 219.008 365.131C215.128 327.557 192.021 234.091 192.021 234.091L67.9148 295.117Z" fill="#979C16"/>
<path fill-rule="evenodd" clip-rule="evenodd" d="M178.848 462.808H235.195C244.368 462.808 251.795 471.6 251.795 482.447V503.579C251.795 514.426 244.368 523.218 235.195 523.218H178.848C169.688 523.218 162.248 514.426 162.248 503.579V482.447C162.248 471.6 169.688 462.808 178.848 462.808Z" fill="#360B1E"/>
<path d="M137.862 413.411C104.342 413.411 64.1019 404.318 63.6619 404.224C63.2485 404.118 62.982 403.704 63.0753 403.278C63.1686 402.864 63.5953 402.598 64.0086 402.691C64.4886 402.798 111.915 413.518 146.489 411.624C181.089 409.731 212.982 401.051 213.302 400.958C213.715 400.838 214.155 401.091 214.262 401.504C214.382 401.918 214.129 402.344 213.715 402.464C213.395 402.558 181.355 411.278 146.582 413.184C143.755 413.344 140.822 413.411 137.862 413.411Z" fill="#360B1E"/>
<path d="M205.969 495.278C205.463 495.278 205.009 495.23 204.596 495.132C195.689 493.017 171.516 474.208 170.489 473.408C170.156 473.142 170.089 472.652 170.356 472.312C170.623 471.973 171.116 471.91 171.449 472.176C171.703 472.37 196.369 491.576 204.956 493.612C211.929 495.272 236.023 478.993 244.716 472.584C245.076 472.329 245.556 472.402 245.809 472.749C246.076 473.097 245.996 473.585 245.649 473.841C244.409 474.756 216.423 495.278 205.969 495.278Z" fill="#979C16"/>
<path d="M72.7273 101.306C68.2207 101.306 62.4474 100.506 59.7008 96.799C59.1008 95.9857 58.8874 95.0257 59.0474 93.9324C59.9007 88.3057 71.4474 79.8658 79.0874 74.2791C81.4874 72.5325 83.3807 71.1324 84.3273 70.2924C86.194 68.6124 82.4207 62.3857 79.0874 56.9057C75.6207 51.199 72.0341 45.3057 72.1807 41.239C72.5007 32.719 79.4074 28.9857 83.5407 26.7724C84.9007 26.039 86.0741 25.3991 86.5674 24.8524C87.3408 23.9991 87.3407 21.7191 87.3407 19.0791C87.3407 15.2925 87.3407 10.1191 89.5807 5.09241C93.6341 -3.98759 124.861 9.33241 128.407 10.8924C128.794 11.0657 128.981 11.5191 128.807 11.9191C128.634 12.3058 128.167 12.4924 127.781 12.3191C118.527 8.2791 93.9007 -0.774229 91.0074 5.7191C88.9007 10.4524 88.9008 15.2391 88.9008 19.0791C88.9008 22.1591 88.914 24.599 87.7273 25.9057C87.0473 26.6524 85.8207 27.3058 84.2741 28.1458C80.1941 30.3458 74.0341 33.6657 73.7407 41.3057C73.6074 44.8924 77.2207 50.8391 80.4207 56.0924C84.594 62.9724 88.2074 68.9058 85.3674 71.4524C84.3674 72.3458 82.4474 73.7591 80.0074 75.5458C73.0207 80.6525 61.3407 89.1857 60.594 94.1591C60.4873 94.8391 60.6074 95.399 60.954 95.8657C65.1674 101.532 78.5674 99.3058 78.7008 99.2791C79.1274 99.2125 79.5274 99.5058 79.6074 99.9191C79.6741 100.346 79.3941 100.759 78.9674 100.826C78.7141 100.866 76.0607 101.306 72.7273 101.306Z" fill="#360B1E"/>
<path fill-rule="evenodd" clip-rule="evenodd" d="M204.981 135.586C204.981 135.586 238.634 135.813 236.487 168.559C235.487 183.826 238.554 252.693 238.487 330.773C238.461 368.319 235.594 417.24 233.954 450.209C233.607 457.046 237.101 465.904 236.501 471.736C235.234 483.788 237.887 497.02 236.647 506.785C234.501 523.758 223.741 528.224 209.247 524.313C208.661 524.156 215.381 511.304 213.914 502.604C212.447 493.881 216.154 484.166 213.394 480.065C211.767 477.658 209.874 510.893 206.327 506.087C202.781 501.283 204.381 482.533 204.154 474.148C203.981 467.405 211.901 456.182 210.861 448.571C202.781 389.519 205.807 379.959 205.807 345.333C205.807 317.213 192.527 266.493 192.034 238.88C191.101 186.413 198.021 142.746 204.981 135.586Z" fill="#FFCDB2"/>
<path fill-rule="evenodd" clip-rule="evenodd" d="M66.4349 323.932C66.4349 323.932 64.4615 282.972 54.5948 277.919C44.7281 272.852 60.0615 260.319 59.5148 233.039C58.9548 205.745 47.3281 166.679 47.3281 166.679C47.3281 166.679 122.381 134.892 157.288 135.185C192.195 135.492 213.835 133.639 212.155 137.265C211.155 139.425 200.555 152.799 197.088 169.745C192.928 190.105 195.235 223.092 191.395 248.585C185.701 286.239 174.582 314.105 174.582 314.105C174.582 314.105 74.2616 329.892 66.4349 323.932Z" fill="#979C16"/>
<path fill-rule="evenodd" clip-rule="evenodd" d="M87.848 71.6129C87.848 71.6129 71.088 71.8929 65.4347 81.8129C57.888 95.0663 66.808 101.04 72.7013 100.28C68.888 108.133 71.5146 117.64 79.6612 119.973C90.7412 123.16 88.5812 121.853 98.1279 121.573C107.675 121.306 145.821 107.56 155.928 108.306C166.035 109.04 166.821 98.5329 176.675 95.0662C186.528 91.6129 185.555 79.0795 180.275 71.5995C174.995 64.1195 174.648 63.1996 161.261 63.5196C147.875 63.8396 87.848 71.6129 87.848 71.6129Z" fill="#360B1E"/>
<path fill-rule="evenodd" clip-rule="evenodd" d="M99.6621 108.771C99.6621 108.771 108.422 126.277 108.569 138.664C108.716 151.064 103.609 184.317 104.049 196.571C104.475 208.824 103.876 238.011 106.476 247.291C109.076 256.584 110.502 258.704 110.502 258.704C110.502 258.704 99.5554 235.864 116.062 201.958C132.569 168.051 137.036 164.371 141.942 135.504C146.836 106.637 141.529 82.3842 138.755 77.1842C135.969 71.9842 99.6621 108.771 99.6621 108.771Z" fill="#FFCDB2"/>
<path fill-rule="evenodd" clip-rule="evenodd" d="M103.875 119.932C103.875 119.932 106.355 124.572 107.302 128.972C108.128 132.839 108.475 138.985 108.475 138.985C108.475 138.985 131.795 126.519 137.315 108.345C142.822 90.1721 139.168 84.7854 139.168 84.7854L103.875 119.932Z" fill="#360B1E"/>
<path fill-rule="evenodd" clip-rule="evenodd" d="M87.1822 36.478C87.1822 36.478 73.5155 61.198 77.1955 84.4646C80.8622 107.731 94.7956 127.611 110.969 121.838C127.142 116.051 149.716 97.8246 150.782 62.6913C151.836 27.558 114.702 -0.428632 87.1822 36.478Z" fill="#FFCDB2"/>
<path fill-rule="evenodd" clip-rule="evenodd" d="M113.928 70.7588C113.928 70.7588 114.501 67.8655 118.235 64.2122C123.848 58.6922 132.621 59.3588 135.635 60.8655C138.648 62.3721 132.768 62.9455 131.074 63.5188C129.394 64.0922 113.928 70.7588 113.928 70.7588Z" fill="#979C16"/>
<path fill-rule="evenodd" clip-rule="evenodd" d="M96.3679 70.7705C96.3679 70.7705 98.3012 66.7173 93.4746 64.2506C89.8212 62.3973 79.8613 63.1305 77.0346 64.9705C74.2213 66.8105 79.2213 66.3172 80.9679 66.7039C82.7013 67.0772 96.3679 70.7705 96.3679 70.7705Z" fill="#979C16"/>
<path fill-rule="evenodd" clip-rule="evenodd" d="M118.756 24.7986C118.756 24.7986 116.582 34.3186 121.382 37.1719C126.196 40.0386 137.556 40.3854 136.289 46.2787C135.036 52.172 128.062 58.4387 133.462 62.3454C138.862 66.2387 147.276 64.4387 148.062 67.012C148.836 69.572 173.942 61.7853 170.876 50.532C167.822 39.2786 159.956 42.9854 161.729 36.9854C163.489 30.9987 168.796 4.42538 152.009 0.678717C135.236 -3.06795 128.489 9.91869 128.489 9.91869C128.489 9.91869 97.1023 -1.45464 92.9556 7.11869C88.8089 15.692 93.689 23.9054 88.4357 26.7854C83.1824 29.6654 73.2757 34.0253 75.7024 40.0253C78.1424 46.012 79.3956 56.7719 79.3956 56.7719C79.3956 56.7719 84.7157 35.4654 93.209 33.7454C101.702 32.0254 116.049 30.8386 118.756 24.7986Z" fill="#360B1E"/>
<path fill-rule="evenodd" clip-rule="evenodd" d="M147.235 69.3716C147.235 69.3716 156.621 46.5983 168.115 54.6649C179.608 62.7316 162.488 92.7717 151.981 88.6783C141.475 84.585 144.741 75.5849 147.235 69.3716Z" fill="#FFCDB2"/>
<path d="M146.981 77.0127C146.741 77.0127 146.515 76.9194 146.368 76.7194C146.101 76.386 146.155 75.9193 146.475 75.6393C146.568 75.5326 146.768 75.2661 147.048 74.8794C149.315 71.8527 156.168 62.6526 164.888 62.7993C165.328 62.7993 165.661 63.1594 165.661 63.586C165.648 64.026 165.301 64.3193 164.861 64.3593H164.648C156.861 64.3593 150.435 72.9727 148.301 75.8127C147.781 76.5061 147.635 76.7194 147.461 76.8527C147.315 76.9594 147.141 77.0127 146.981 77.0127Z" fill="#360B1E"/>
<path fill-rule="evenodd" clip-rule="evenodd" d="M88.1546 36.3437L85.6079 40.6104L82.3945 47.4903C82.3945 47.4903 101.021 43.157 114.341 44.8237C127.648 46.5037 150.221 55.6104 150.221 55.6104L148.675 48.2104C148.675 48.2104 134.528 38.7837 117.728 36.6104C100.928 34.4504 88.1546 36.3437 88.1546 36.3437Z" fill="#979C16"/>
<path fill-rule="evenodd" clip-rule="evenodd" d="M114.676 70.6252C114.676 70.6252 120.329 63.9453 129.516 63.4519C138.689 62.9586 144.969 65.3852 144.676 67.1319C144.369 68.8652 136.809 71.0386 131.449 71.3319C126.089 71.6252 114.676 70.6252 114.676 70.6252Z" fill="white"/>
<path fill-rule="evenodd" clip-rule="evenodd" d="M96.3943 71.0127C96.3943 71.0127 97.301 68.1327 93.861 66.746C90.4076 65.3727 73.6476 62.7993 75.461 67.946C77.2876 73.0927 94.781 73.9993 96.3943 71.0127Z" fill="white"/>
<path fill-rule="evenodd" clip-rule="evenodd" d="M128.515 62.6916C128.515 62.6916 127.608 67.4383 131.408 69.4249C135.195 71.4116 137.781 69.7182 139.235 67.4382C140.688 65.1582 139.928 63.545 139.928 63.545C139.928 63.545 137.288 62.0782 134.115 62.1316C130.955 62.1716 128.515 62.6916 128.515 62.6916Z" fill="#360B1E"/>
<path fill-rule="evenodd" clip-rule="evenodd" d="M85.6758 65.0386C85.6758 65.0386 84.1157 70.7454 88.7291 72.6121C93.3557 74.4787 96.2492 69.5987 96.0359 68.2787C95.8359 66.9587 90.5292 64.812 85.6758 65.0386Z" fill="#360B1E"/>
<path fill-rule="evenodd" clip-rule="evenodd" d="M113.888 70.6383C113.888 70.6383 119.755 63.225 129.195 61.7983C138.648 60.3716 145.515 66.7183 145.515 66.7183C145.515 66.7183 139.861 62.8383 132.035 63.665C124.195 64.4783 118.421 67.785 116.995 68.865C115.568 69.945 115.728 70.305 116.541 70.5316C117.341 70.7583 119.381 71.0917 119.381 71.0917C119.381 71.0917 113.475 71.4116 113.888 70.6383Z" fill="#360B1E"/>
<path fill-rule="evenodd" clip-rule="evenodd" d="M101.929 87.8512C102.996 89.0645 113.329 88.3845 114.036 87.1711C114.742 85.9445 110.089 84.5845 106.929 84.7978C103.782 85.0112 101.436 87.3045 101.929 87.8512Z" fill="#360B1E"/>
<path fill-rule="evenodd" clip-rule="evenodd" d="M101.422 104.332C101.422 104.332 103.355 97.6519 110.022 96.4519C116.675 95.2519 120.475 100.745 120.475 100.745C120.475 100.745 117.729 111.639 111.129 111.599C104.529 111.572 101.422 104.332 101.422 104.332Z" fill="#360B1E"/>
<path fill-rule="evenodd" clip-rule="evenodd" d="M105.635 104.331L115.701 102.118C115.701 102.118 113.341 100.798 110.395 101.078C107.448 101.344 105.635 104.331 105.635 104.331Z" fill="white"/>
<path d="M111.448 65.8115C111.314 65.8115 111.181 65.7848 111.061 65.7048C110.688 65.4914 110.555 65.0114 110.768 64.6381C111.048 64.1448 117.848 52.4381 128.474 52.4381H128.674C139.248 52.5848 142.248 55.1049 142.368 55.2115C142.701 55.5049 142.728 55.9849 142.448 56.3182C142.154 56.6382 141.661 56.6782 141.341 56.3849C141.328 56.3715 138.501 54.1315 128.648 53.9981H128.488C118.754 53.9981 112.194 65.3049 112.128 65.4115C111.981 65.6649 111.714 65.8115 111.448 65.8115Z" fill="#360B1E"/>
<path d="M98.7426 67.919C98.4759 67.919 98.2226 67.7857 98.0759 67.5457C97.8493 67.1723 92.1826 58.239 77.2093 60.679C76.7693 60.7457 76.3826 60.4522 76.3159 60.0389C76.2359 59.6122 76.5292 59.1989 76.9559 59.1322C93.0092 56.5189 99.1559 66.319 99.4093 66.7457C99.6359 67.1057 99.5159 67.5857 99.1559 67.8123C99.0225 67.8923 98.8893 67.919 98.7426 67.919Z" fill="#360B1E"/>
<path d="M110.076 259.997C109.809 259.997 109.543 259.864 109.396 259.611C109.036 258.984 100.623 243.864 108.889 219.037C113.529 205.117 119.316 193.704 124.423 183.624C128.449 175.69 131.929 168.824 134.049 162.344C138.836 147.704 141.703 133.437 141.729 133.29C141.823 132.877 142.236 132.597 142.649 132.677C143.076 132.771 143.356 133.184 143.263 133.597C143.236 133.744 140.343 148.104 135.529 162.824C133.369 169.424 129.876 176.33 125.823 184.33C120.729 194.357 114.969 205.73 110.369 219.53C102.343 243.65 110.663 258.69 110.756 258.837C110.969 259.21 110.836 259.69 110.463 259.904C110.343 259.97 110.209 259.997 110.076 259.997Z" fill="#360B1E"/>
<path fill-rule="evenodd" clip-rule="evenodd" d="M60.4484 238.226C60.4484 238.226 58.2351 169.933 51.1551 167.173C44.0751 164.399 30.5817 176.439 25.7551 198.359C20.9417 220.279 23.1418 328.279 40.0351 330.479C58.5418 332.893 64.1951 328.746 67.1817 321.013C73.1017 305.706 56.2217 278.119 56.2217 278.119C56.2217 278.119 54.0751 270.466 55.5418 261.626C57.0084 252.799 60.4484 238.226 60.4484 238.226Z" fill="#FFCDB2"/>
<path fill-rule="evenodd" clip-rule="evenodd" d="M96.636 70.7041C96.636 70.7041 97.3827 67.5308 94.076 65.9975C89.7293 63.9842 78.4759 63.5176 75.7959 65.8776C74.9959 66.5709 84.0226 65.2776 88.916 66.2109C93.8093 67.1576 96.636 70.7041 96.636 70.7041Z" fill="#360B1E"/>
<path fill-rule="evenodd" clip-rule="evenodd" d="M130.328 67.438C130.208 66.7046 130.715 65.998 131.461 65.8914C132.208 65.7714 132.901 66.2781 133.021 67.0114C133.128 67.7581 132.621 68.4513 131.888 68.5713C131.141 68.6913 130.448 68.1846 130.328 67.438Z" fill="white"/>
<path fill-rule="evenodd" clip-rule="evenodd" d="M85.7676 70.0391C85.6476 69.2925 86.1543 68.5859 86.9009 68.4792C87.6476 68.3592 88.3408 68.8659 88.4608 69.6126C88.5675 70.3459 88.0608 71.0525 87.3275 71.1592C86.5808 71.2792 85.8876 70.7725 85.7676 70.0391Z" fill="white"/>
<path fill-rule="evenodd" clip-rule="evenodd" d="M51.7684 164.905C51.7684 164.905 35.595 168.705 31.275 179.358C26.955 190.012 19.315 208.585 22.315 209.305C25.3283 210.025 28.5817 189.812 31.7417 184.878C34.9017 179.958 38.6617 171.678 39.675 173.972C40.6884 176.265 27.0083 212.078 30.7949 212.052C34.5683 212.012 40.6217 171.358 42.5684 174.918C44.515 178.492 38.995 212.705 42.4883 210.305C45.995 207.918 44.5684 170.985 47.4084 173.852C50.235 176.718 50.7284 210.572 53.5017 207.972C56.2617 205.358 50.435 173.332 53.2216 173.945C55.995 174.558 54.7416 208.278 58.4883 206.558C62.2216 204.838 57.1684 164.385 51.7684 164.905Z" fill="#979C16"/>
<path fill-rule="evenodd" clip-rule="evenodd" d="M210.782 135.585C210.782 135.585 229.395 140.798 234.595 152.638C239.208 163.171 243.248 179.265 240.235 179.985C237.222 180.705 232.755 161.078 230.808 155.558C228.755 149.691 225.875 143.731 224.862 146.025C223.848 148.318 235.542 182.758 231.768 182.731C227.982 182.691 221.928 142.038 219.982 145.598C218.035 149.171 223.568 183.385 220.062 180.985C216.568 178.598 217.982 141.665 215.155 144.531C212.328 147.398 211.822 181.252 209.062 178.652C206.302 176.038 212.115 144.011 209.342 144.625C206.555 145.238 207.808 178.958 204.075 177.238C200.328 175.505 205.382 135.065 210.782 135.585Z" fill="#979C16"/>
<path d="M166.768 103.185C165.515 103.185 164.475 102.998 163.715 102.638C163.315 102.451 163.155 101.985 163.342 101.598C163.528 101.211 163.995 101.038 164.382 101.225C166.942 102.438 175.595 101.118 182.995 94.2912C184.528 92.8779 185.248 91.2912 185.182 89.4246C185.008 83.8779 177.968 78.1045 177.888 78.0378L177.715 77.8378C177.515 77.5178 172.942 69.8646 175.795 62.3446C178.368 55.5713 167.595 46.5045 164.048 43.5312C162.075 41.8645 163.142 38.7713 164.622 34.478C166.768 28.238 169.702 19.6779 165.168 10.6379C163.768 7.83785 161.502 5.90452 158.448 4.90452C147.728 1.38452 130.568 10.0513 130.395 10.1446C130.022 10.3446 129.542 10.1845 129.355 9.79788C129.155 9.41121 129.302 8.94462 129.688 8.74462C130.422 8.38462 147.582 -0.295427 158.928 3.42457C162.395 4.55791 164.968 6.74462 166.568 9.94462C171.395 19.5713 168.208 28.8513 166.102 34.9846C164.875 38.5446 163.902 41.3712 165.062 42.3312C169.208 45.8245 180.222 55.0912 177.262 62.8912C174.848 69.2512 178.462 75.9846 178.982 76.9179C179.982 77.7446 186.555 83.4512 186.742 89.3712C186.822 91.6912 185.915 93.7312 184.062 95.4378C178.222 100.811 171.208 103.185 166.768 103.185Z" fill="#360B1E"/>
<path fill-rule="evenodd" clip-rule="evenodd" d="M72.3155 245.252C77.1155 243.932 90.8489 242.839 98.8755 245.052C107.236 247.372 106.902 251.745 106.902 251.745L105.382 296.892C105.382 296.892 95.5022 300.159 88.7689 300.785C82.0355 301.425 67.8221 299.825 67.8221 299.825L60.9155 257.305L60.3555 250.732C60.3555 250.732 70.0355 245.879 72.3155 245.252Z" fill="#F9C74F"/>
<path d="M106.809 251.599C106.609 251.599 106.409 251.532 106.262 251.385C106.222 251.345 101.995 247.439 90.6486 245.519C79.2086 243.572 66.3286 248.972 66.1952 249.039C65.7952 249.199 65.342 249.012 65.1687 248.625C65.0087 248.225 65.1953 247.759 65.582 247.599C66.1286 247.359 79.022 241.959 90.902 243.972C102.809 245.985 107.169 250.079 107.342 250.252C107.649 250.559 107.662 251.052 107.369 251.359C107.209 251.519 107.009 251.599 106.809 251.599Z" fill="white"/>
<path fill-rule="evenodd" clip-rule="evenodd" d="M84.5958 274.145C84.1158 274.785 83.0359 278.864 84.9425 279.358C86.8492 279.838 98.9558 282.691 99.1958 277.451C99.4491 272.211 100.649 267.411 97.3692 267.398C94.1025 267.384 83.3159 265.358 83.6359 267.424C83.9559 269.491 85.6091 272.785 84.5958 274.145Z" fill="#FC9F07"/>
<path fill-rule="evenodd" clip-rule="evenodd" d="M66.248 268.691C66.248 268.691 74.888 294.505 76.448 294.971C78.008 295.451 100.928 298.918 102.141 293.838C103.355 288.758 105.395 268.385 103.515 270.012C101.621 271.638 98.3548 280.292 94.8348 278.478C91.3148 276.665 83.4348 268.078 80.1681 267.771C76.9014 267.465 67.4614 269.318 66.248 268.691Z" fill="#360B1E"/>
<path fill-rule="evenodd" clip-rule="evenodd" d="M53.3008 318.293C53.3008 318.293 50.9274 328.266 44.1941 324.386C37.4474 320.506 29.9675 311.813 30.1675 304.546C30.3675 297.279 29.3541 290.439 30.6075 287.773C31.8475 285.119 33.3808 285.119 33.7541 282.893C34.1408 280.666 33.0741 276.946 34.8474 275.653C36.6208 274.359 37.5408 274.493 37.5408 274.493C37.5408 274.493 36.9141 272.799 39.7141 270.439C42.5141 268.066 47.7808 265.119 47.7808 265.119C47.7808 265.119 52.2608 252.053 54.4741 250.266C56.6875 248.493 66.9008 246.413 69.9675 247.066C71.1408 247.306 73.4208 248.479 75.7675 249.493C77.9275 250.413 80.1675 251.119 81.0741 252.319C81.7808 253.266 80.9141 254.359 80.4075 255.013C78.5675 257.439 66.8207 256.786 66.8207 256.786L64.7408 257.213C64.7408 257.213 75.6075 262.133 78.4075 263.453C81.2075 264.773 93.0474 273.999 89.4607 276.839C85.8607 279.679 82.8208 279.173 80.4075 276.453C78.0075 273.719 73.6607 271.893 73.6607 271.893L64.7141 268.613L59.2607 271.906C59.2607 271.906 63.3275 271.026 64.8075 272.626C66.2875 274.239 74.7541 284.439 75.2874 287.146C75.8074 289.866 77.5141 302.653 74.4207 302.879C71.3274 303.119 70.9941 302.399 70.9941 302.399C70.9941 302.399 66.3541 312.239 62.7808 314.546C59.1941 316.853 53.3008 318.293 53.3008 318.293Z" fill="#FFCDB2"/>
<path d="M37.5816 276.358C37.1682 276.358 36.8215 276.025 36.7948 275.612C36.7948 275.438 36.6482 271.318 38.9549 269.292C40.3549 268.065 42.0882 267.265 43.9416 266.425C44.5816 266.132 45.2349 265.825 45.9149 265.492C47.9282 264.478 50.0082 263.372 51.6749 262.478C52.7816 261.878 53.7149 261.372 54.3683 261.052C55.8349 260.305 57.0749 259.492 58.1549 258.772C60.3682 257.318 62.1283 256.158 64.1016 256.812C64.6349 256.998 77.0216 261.118 79.3683 262.932C81.3816 264.505 85.0482 267.998 85.1948 268.145C85.5148 268.452 85.5282 268.945 85.2215 269.252C84.9282 269.572 84.4349 269.585 84.1149 269.278C84.0882 269.238 80.3683 265.692 78.4083 264.172C76.6349 262.798 67.1282 259.465 63.6082 258.305C62.3549 257.878 60.9549 258.798 59.0215 260.078C57.8882 260.825 56.6216 261.665 55.0749 262.438C54.4349 262.772 53.5016 263.265 52.4082 263.852C50.7416 264.745 48.6482 265.878 46.6082 266.892C45.9149 267.225 45.2482 267.545 44.5816 267.838C42.8482 268.638 41.2082 269.385 39.9948 270.465C38.5282 271.745 38.3149 274.558 38.3549 275.545C38.3815 275.972 38.0482 276.332 37.6082 276.358H37.5816Z" fill="#360B1E"/>
<path d="M73.954 303.118L73.7141 303.105C70.6207 302.811 68.8074 298.331 67.354 294.731C66.7674 293.278 66.1007 291.652 65.6874 291.292C64.994 290.705 64.354 289.571 63.6207 288.265C62.6474 286.518 61.3007 284.132 60.2607 284.345C57.6873 284.865 49.2474 284.598 48.8874 284.585C48.4607 284.572 48.114 284.211 48.1273 283.771C48.1407 283.345 48.5007 282.985 48.9407 283.025C49.0207 283.025 57.5541 283.305 59.9407 282.812C62.1007 282.372 63.6341 285.105 64.9807 287.505C65.5941 288.585 66.2207 289.705 66.6874 290.105C67.3674 290.678 67.914 291.945 68.794 294.145C70.034 297.185 71.714 301.345 73.8607 301.558C74.0873 301.572 74.3407 301.545 74.6207 301.185C76.4607 298.838 75.3807 289.292 74.754 287.518C74.0607 285.585 69.9674 280.105 66.5674 276.145C63.5541 272.652 62.5141 272.692 61.0474 272.745C60.2607 272.772 59.4208 272.851 58.5008 272.931C57.3541 273.025 56.0607 273.131 54.6741 273.171C53.6474 273.211 51.8074 273.638 49.8474 274.092C47.2341 274.692 44.2607 275.372 41.754 275.518C37.4074 275.772 35.7808 277.545 35.3008 278.292C34.8741 278.918 34.4874 281.865 34.3407 283.758C34.3007 284.185 33.9141 284.518 33.5008 284.478C33.0608 284.438 32.7407 284.065 32.7807 283.638C32.8474 282.811 33.2073 278.625 33.994 277.438C34.6073 276.478 36.6073 274.252 41.6607 273.958C44.034 273.825 46.9408 273.158 49.5008 272.571C51.6208 272.078 53.4474 271.652 54.6207 271.612C55.9674 271.572 57.2474 271.465 58.3674 271.371C59.3141 271.291 60.1807 271.212 60.9807 271.185C63.0207 271.118 64.4874 271.331 67.754 275.131C70.7674 278.638 75.394 284.651 76.2207 286.998C76.914 288.958 78.2207 299.118 75.8474 302.145C75.3541 302.785 74.7007 303.118 73.954 303.118Z" fill="#360B1E"/>
<path d="M47.6479 266.173C47.5279 266.173 47.3945 266.146 47.2879 266.093C46.9012 265.893 46.7545 265.413 46.9545 265.04C46.9812 264.986 49.8078 259.56 50.8612 256.693C51.1012 256.053 51.3145 255.36 51.5278 254.68C52.3278 252.093 53.1679 249.413 55.3145 248.56C57.7945 247.586 67.2879 245.946 70.0746 246.346C70.9412 246.48 72.3279 247.106 74.1013 247.92C74.6746 248.173 75.2612 248.44 75.8479 248.706C76.4879 248.973 77.1012 249.226 77.6746 249.453C79.7546 250.28 81.4079 250.933 81.9545 252.293C82.2479 253 82.1945 253.786 81.7945 254.693C80.4612 257.72 74.5146 257.946 68.8746 257.773C68.3946 257.76 68.0346 257.746 67.8346 257.76C66.5546 257.8 64.0613 258.413 64.0346 258.426C63.6213 258.533 63.1945 258.28 63.0879 257.853C62.9812 257.44 63.2345 257.013 63.6612 256.906C63.7678 256.88 66.3279 256.253 67.7812 256.186C67.9945 256.186 68.3812 256.2 68.9145 256.213C75.7945 256.426 79.6346 255.706 80.3679 254.053C80.6879 253.32 80.5545 252.986 80.5145 252.88C80.2079 252.133 78.7679 251.56 77.1013 250.906C76.5013 250.666 75.8745 250.413 75.2212 250.133C74.6345 249.866 74.0345 249.6 73.4479 249.333C71.9945 248.68 70.4879 247.986 69.8346 247.893C67.3679 247.533 58.1279 249.133 55.8879 250.013C54.4345 250.586 53.7146 252.906 53.0079 255.146C52.7946 255.853 52.5678 256.56 52.3278 257.226C51.2345 260.186 48.4612 265.533 48.3412 265.76C48.1946 266.026 47.9279 266.173 47.6479 266.173Z" fill="#360B1E"/>
<path fill-rule="evenodd" clip-rule="evenodd" d="M97.9293 278.385C97.9293 278.385 95.6626 260.252 98.596 258.932C101.529 257.612 103.103 258.812 103.969 255.945C104.836 253.079 105.276 249.945 106.103 251.025C106.929 252.105 105.449 273.372 105.209 276.585C104.969 279.785 105.583 291.452 104.169 290.985C102.769 290.519 105.316 273.639 103.049 273.185C100.783 272.732 98.7693 280.199 97.9293 278.385Z" fill="white"/>
<path fill-rule="evenodd" clip-rule="evenodd" d="M97.9011 281.892C99.1011 282.025 100.328 290.119 98.381 290.065C96.4344 290.012 96.7144 281.759 97.9011 281.892Z" fill="white"/>
<path d="M62.9282 310.239C62.5815 310.239 62.2483 310.173 61.9016 310.053C58.5149 308.773 58.2082 303.186 58.2082 301.453C57.7682 301.226 57.0082 300.799 55.9416 300.106C54.5949 299.239 53.6749 297.626 53.2349 296.693C52.2883 297.013 50.5282 297.479 48.4615 297.479C45.3148 297.479 41.3549 293.466 40.9149 292.999C40.6082 292.693 40.6215 292.199 40.9282 291.906C41.2482 291.599 41.7416 291.613 42.0349 291.919C43.1149 293.039 46.3548 295.919 48.4615 295.919C51.1548 295.919 53.3282 294.999 53.3548 294.986C53.5548 294.906 53.7683 294.906 53.9683 294.986C54.1683 295.066 54.3148 295.226 54.3948 295.426C54.4082 295.453 55.3015 297.839 56.7948 298.799C58.4482 299.853 59.3148 300.279 59.3282 300.279C59.6082 300.413 59.7816 300.706 59.7683 301.013C59.7016 302.813 60.0615 307.679 62.4615 308.586C62.9148 308.759 63.3148 308.693 63.7282 308.386C64.7948 307.599 65.7682 305.213 65.5815 302.159C65.5549 301.733 65.8749 301.359 66.3149 301.333C66.7415 301.306 67.1149 301.639 67.1416 302.066C67.3416 305.346 66.3415 308.399 64.6615 309.639C64.1282 310.039 63.5282 310.239 62.9282 310.239Z" fill="#360B1E"/>
<path fill-rule="evenodd" clip-rule="evenodd" d="M57.2608 283.997C57.2608 283.997 48.7009 282.944 48.3409 283.651C47.9942 284.358 48.8742 285.571 50.3809 285.931C52.9275 286.531 57.5142 286.704 57.5142 286.704C57.5142 286.704 54.9409 285.411 55.1142 284.904C55.3409 284.251 57.2608 283.997 57.2608 283.997Z" fill="#360B1E"/>
<path d="M91.1154 301.985C84.4354 301.985 77.7553 301.359 76.462 301.239C76.0353 301.185 75.7153 300.812 75.7553 300.372C75.8087 299.945 76.1821 299.625 76.6087 299.679C83.1287 300.319 100.822 301.359 104.289 298.479C104.702 298.145 104.729 297.879 104.742 297.785C105.222 292.479 105.915 252.305 105.915 251.905C105.929 251.479 106.302 251.145 106.715 251.132C107.142 251.145 107.489 251.505 107.475 251.932C107.449 253.585 106.782 292.559 106.289 297.932C106.235 298.599 105.889 299.185 105.289 299.679C103.115 301.479 97.102 301.985 91.1154 301.985Z" fill="#360B1E"/>
<path d="M240.169 180.878C239.822 180.878 239.515 180.651 239.422 180.305C239.302 179.891 239.542 179.451 239.969 179.345C239.982 179.345 240.049 179.278 240.129 179.091C241.555 175.651 236.822 158.331 230.875 147.918C224.915 137.505 209.742 136.185 193.395 135.665C178.822 135.225 143.155 137.345 142.809 137.358C142.382 137.385 141.995 137.065 141.982 136.625C141.955 136.198 142.275 135.825 142.702 135.798C143.062 135.785 178.795 133.638 193.449 134.105C210.249 134.638 225.875 136.025 232.222 147.131C238.169 157.518 243.315 175.465 241.582 179.678C241.249 180.465 240.742 180.745 240.382 180.851L240.169 180.878Z" fill="#360B1E"/>
</svg>
