<svg width="444" height="987" viewBox="0 0 444 987" fill="none" xmlns="http://www.w3.org/2000/svg">
<path fill-rule="evenodd" clip-rule="evenodd" d="M84.668 959.782C84.668 945.185 164.935 933.349 263.935 933.349C362.935 933.349 443.188 945.185 443.188 959.782C443.188 974.382 362.935 986.217 263.935 986.217C164.935 986.217 84.668 974.382 84.668 959.782Z" fill="#12130F"/>
<path fill-rule="evenodd" clip-rule="evenodd" d="M172.481 953.928C172.481 953.928 166.308 967.156 171.734 967.728C177.134 968.301 206.228 968.612 208.681 964.954C211.134 961.296 218.268 950.232 218.694 953.732C219.121 957.232 223.814 964.95 223.814 964.95L227.081 964.976L227.001 949.53L172.481 953.928Z" fill="#FC9F07"/>
<path fill-rule="evenodd" clip-rule="evenodd" d="M135.28 312.786C135.28 312.786 136.36 341.706 133.774 364.866C131.214 388.04 108.6 468.159 115.294 539.729C121.987 611.295 134.827 961.99 134.827 961.99L390.907 949.545C390.907 949.545 320.201 634.738 279.361 450.92C253.481 334.506 235.307 313.76 235.307 313.76L135.28 312.786Z" fill="#360B1E"/>
<path fill-rule="evenodd" clip-rule="evenodd" d="M239.187 942.601C244.147 937.447 231.214 413.613 250.134 446.493C269.041 479.36 381.227 947.061 370.681 949.212C360.121 951.364 227.121 955.08 239.187 942.601Z" fill="#12130F"/>
<path d="M134.507 97.5869L134.333 97.5735C133.373 97.3335 124.933 95.2135 122.933 91.9335C122.507 91.2269 122.373 90.5068 122.547 89.7735C123.4 86.2668 119.933 75.6936 117.12 71.7202C113.16 66.1069 108.053 55.3602 118.44 46.4936C124.333 41.4402 128.973 38.6668 132.347 36.6402C134.973 35.0668 136.707 34.0269 137.467 32.8536C137.907 32.1736 137.907 29.1202 137.893 26.1735C137.867 17.6935 137.827 4.89358 145.733 1.85358C150.64 -0.0264244 156.12 0.826857 160.773 4.20019C164.28 6.74686 166.747 10.4002 166.667 12.9335C167.507 12.9069 170.413 11.5868 172.733 10.4801C179.653 7.20014 190.107 2.24014 195.933 6.88014C201.587 11.4001 202.8 18.0001 203.88 23.8135C204.747 28.4935 205.493 32.5469 208.48 33.8936C215.693 37.1469 225.613 44.4402 223.36 51.2002C221.347 57.2269 217.08 64.9069 216.893 65.2269C216.693 65.6002 216.213 65.7469 215.84 65.5335C215.453 65.3202 215.32 64.8402 215.533 64.4669C215.573 64.3869 219.907 56.5868 221.88 50.7068C223.68 45.2802 214.747 38.4402 207.827 35.3202C204.107 33.6269 203.28 29.2136 202.347 24.0936C201.32 18.5469 200.16 12.2535 194.96 8.10683C189.893 4.06683 179.973 8.77355 173.4 11.8936C168.867 14.0536 166.813 14.9736 165.693 14.2269C165.467 14.0669 165.067 13.6802 165.107 12.9068C165.187 11.1868 163.253 7.92019 159.853 5.46686C157.373 3.66686 152.32 1.01358 146.293 3.32024C139.4 5.96024 139.427 18.1202 139.453 26.1602C139.467 30.4136 139.44 32.6802 138.773 33.7068C137.827 35.1868 135.96 36.2935 133.16 37.9735C129.813 39.9735 125.253 42.7201 119.453 47.6801C110.013 55.7468 114.747 65.6401 118.4 70.8135C121.227 74.8135 125.093 85.8801 124.067 90.1468C123.987 90.4668 124.053 90.7736 124.267 91.1202C125.68 93.4402 132.28 95.4669 134.693 96.0536C135.12 96.1469 135.373 96.5735 135.267 97.0002C135.187 97.3469 134.867 97.5869 134.507 97.5869Z" fill="#360B1E"/>
<path fill-rule="evenodd" clip-rule="evenodd" d="M210.948 92.1467C210.948 92.1467 214.468 96.2401 212.468 97.8535C210.468 99.4668 209.561 102.44 207.988 101.28C206.388 100.12 205.268 90.6934 205.268 90.6934L210.948 92.1467Z" fill="#360B1E"/>
<path fill-rule="evenodd" clip-rule="evenodd" d="M272.453 115.067C272.453 115.067 270.667 99.3868 271.213 90.4535C271.733 82.1868 270.453 71.3868 273.053 71.3868C275.68 71.3868 278.64 79.6935 278.867 84.1335C279.107 88.5735 281.733 112.693 280.933 115.307C280.133 117.933 272.453 115.067 272.453 115.067Z" fill="#FC9F07"/>
<path fill-rule="evenodd" clip-rule="evenodd" d="M238.413 128.52C238.413 128.52 224.093 119.52 212.8 119.28C187.907 118.76 144.227 128.133 143.92 146.906C143.467 174.186 182.586 181.293 204.413 167.533C226.253 153.773 238.413 128.52 238.413 128.52Z" fill="#360B1E"/>
<path d="M202.44 102.56C202.64 103.2 203.427 104.467 204.04 105.187C204.107 104.947 204.241 104.707 204.427 104.507C205.694 103.2 209.6 103.2 215.414 103.36C217.734 103.427 219.92 103.494 220.707 103.294C221.134 103.2 221.441 102.814 221.627 102.16C221.934 101.054 221.76 99.4269 221.107 97.8003C219.494 99.6136 216.881 100.8 214.787 101.04C213.801 101.16 212.494 101.28 211.067 101.4C208.414 101.627 203.587 102.027 202.44 102.56ZM204.467 107.24C204.267 107.24 204.041 107.187 203.787 107.04C202.707 106.414 200.8 103.507 200.84 102.294C200.88 100.894 203.027 100.507 210.934 99.8402C212.334 99.7202 213.627 99.6136 214.614 99.4936C216.867 99.227 219.227 97.8536 220.334 96.2536C219.92 95.5736 219.414 94.9202 218.827 94.3469C215.054 90.6669 212.067 81.2802 211.934 80.8802C211.814 80.4669 212.041 80.027 212.454 79.8936C212.867 79.7736 213.294 80.0002 213.427 80.4135C213.454 80.5069 216.427 89.827 219.921 93.227C220.307 93.6136 220.654 94.0136 220.987 94.427C221.001 93.8536 220.827 93.2803 220.467 92.7203C218.4 89.5336 214.707 81.9336 215.267 79.387C215.36 78.9603 215.774 78.6936 216.2 78.787C216.614 78.8803 216.881 79.2936 216.787 79.7203C216.454 81.2403 219.16 87.8269 221.774 91.8669C222.68 93.2669 222.787 94.7736 222.121 96.2536C223.254 98.5203 223.574 100.947 223.134 102.574C222.8 103.774 222.067 104.574 221.067 104.814C220.094 105.054 218.001 105 215.361 104.92C212.347 104.84 206.094 104.667 205.534 105.614C205.56 105.867 205.614 106.694 205 107.08C204.894 107.16 204.707 107.24 204.467 107.24Z" fill="#360B1E"/>
<path fill-rule="evenodd" clip-rule="evenodd" d="M163.226 116.094C163.226 116.094 165.96 125.227 167.853 134.6C169.213 141.267 169.933 147.92 169.853 152.147C169.653 162.294 144.546 169.64 134.386 174.68C124.226 179.72 82.7729 193.014 86.7729 222C90.7729 250.987 93.9863 322.907 108.12 323.16C122.266 323.427 251.68 312.147 255.573 307.32C257.733 304.654 271.04 263.494 275.453 227.494C278.986 198.547 274.2 173.574 272.773 169.894C269.56 161.654 210.8 165.587 208.96 158.254C207.12 150.92 212.626 97.7871 204.226 84.3204C195.84 70.8671 163.226 116.094 163.226 116.094Z" fill="#FFCDB2"/>
<path fill-rule="evenodd" clip-rule="evenodd" d="M163.133 122.36C163.133 122.36 165.626 126.746 167.093 131.906C168.573 137.053 169.053 142.986 169.053 142.986C169.053 142.986 184.493 133.973 193.413 120.293C202.666 106.106 205.453 92.1996 203.653 83.6263C199.826 65.333 187.853 85.6263 187.853 85.6263L163.133 122.36Z" fill="#360B1E"/>
<path fill-rule="evenodd" clip-rule="evenodd" d="M163.455 9.34692C163.455 9.34692 149.961 -3.34633 139.548 8.227C129.121 19.787 141.414 30.7204 134.014 34.2537C126.628 37.8137 128.308 48.8936 124.028 51.9736C119.735 55.0536 108.041 63.5203 114.041 72.2003C120.054 80.8803 126.668 83.5737 128.121 90.787C129.575 98.0137 166.628 107 175.028 106.307C183.415 105.614 213.001 70.0803 217.135 63.7603C221.268 57.4403 216.908 56.1603 217.828 52.5336C218.761 48.9203 226.681 40.8803 219.121 35.7469C211.548 30.6269 205.548 35.9603 200.455 25.7736C195.348 15.5603 198.468 6.80031 186.814 1.46697C176.481 -3.25303 163.455 9.34692 163.455 9.34692Z" fill="#360B1E"/>
<path fill-rule="evenodd" clip-rule="evenodd" d="M132.253 58.6272C132.253 58.6272 145.107 51.6138 147.653 46.8272C150.187 42.0538 151.84 33.4804 151.84 33.4804C151.84 33.4804 156.413 46.6405 164.906 48.0005C173.386 49.3605 182.12 48.7872 184.493 55.7205C186.893 62.6805 194.586 69.0004 200.28 68.4804C205.986 67.9737 207.853 67.1071 207.853 67.1071C207.853 67.1071 195.76 126.654 163.733 128.574C130.32 130.587 132.253 58.6272 132.253 58.6272Z" fill="#FFCDB2"/>
<path fill-rule="evenodd" clip-rule="evenodd" d="M205.547 70.6266C205.547 70.6266 212.347 57.4265 220.361 60.0399C228.374 62.6665 225.134 94.5065 208.761 93.1065C203.867 92.6932 203.094 86.8932 202.254 84.2132C200.254 77.9199 205.547 70.6266 205.547 70.6266Z" fill="#FFCDB2"/>
<path fill-rule="evenodd" clip-rule="evenodd" d="M206.893 76.7465C206.893 76.7465 210.373 70.4799 214.746 68.9599C217.999 67.8266 219.853 67.6132 220.053 68.7599C220.266 69.8932 219.133 77.4399 215.466 79.1732C211.799 80.9199 206.186 79.3465 206.893 76.7465Z" fill="#FC9F07"/>
<path d="M206.227 78.3467C206.094 78.3467 205.947 78.3068 205.814 78.2268C205.454 78.0001 205.334 77.52 205.574 77.1467C205.867 76.6533 213.147 65.1601 222.267 67.9601C222.681 68.0934 222.921 68.5201 222.787 68.9334C222.667 69.3467 222.227 69.5868 221.814 69.4535C213.827 67.0001 206.961 77.8667 206.894 77.9734C206.747 78.2134 206.494 78.3467 206.227 78.3467Z" fill="#360B1E"/>
<path fill-rule="evenodd" clip-rule="evenodd" d="M148.986 108.026C148.986 108.026 155.2 98.8531 162.093 98.7331C168.986 98.6131 174.586 107.68 174.586 107.68C174.586 107.68 169.8 115.48 161.586 114.68C153.386 113.893 148.986 108.026 148.986 108.026Z" fill="#FC9F07"/>
<path fill-rule="evenodd" clip-rule="evenodd" d="M156.107 107.267C156.107 107.267 159.147 106.813 161.694 106.84C164.267 106.88 166.947 107.027 166.947 107.027C166.947 107.027 164.001 104.147 161.281 104.36C158.574 104.573 156.107 107.267 156.107 107.267Z" fill="white"/>
<path fill-rule="evenodd" clip-rule="evenodd" d="M168.76 76.7595C168.76 76.7595 173.466 69.5195 181 68.3061C188.533 67.0928 201.893 69.5728 202.853 68.8794C203.813 68.1728 199.213 73.9462 194.986 75.4662C190.746 76.9862 168.76 76.7595 168.76 76.7595Z" fill="#FC9F07"/>
<path fill-rule="evenodd" clip-rule="evenodd" d="M170.108 76.7201C170.108 76.7201 178.454 73.0267 184.361 72.6C190.281 72.16 196.414 71.9467 197.641 73.4C198.854 74.8534 198.374 80.1467 193.734 80.5334C189.108 80.9334 169.308 78.3734 170.108 76.7201Z" fill="white"/>
<path fill-rule="evenodd" clip-rule="evenodd" d="M153.801 76.1064C153.801 76.1064 150.801 68.2665 143.695 67.6932C136.601 67.1065 124.895 68.4398 124.895 68.4398C124.895 68.4398 132.108 72.8932 135.681 74.1865C139.281 75.4799 153.801 76.1064 153.801 76.1064Z" fill="#FC9F07"/>
<path fill-rule="evenodd" clip-rule="evenodd" d="M132.534 72.2931C132.534 72.2931 155.654 73.3597 153.894 76.9997C152.121 80.6397 136.267 80.4663 134.174 78.613C132.227 76.9063 130.721 72.2797 132.534 72.2931Z" fill="white"/>
<path fill-rule="evenodd" clip-rule="evenodd" d="M168.626 76.9066C168.626 76.9066 171.76 73.7733 179.026 72.6667C186.306 71.56 198.773 71.5866 198.32 72.9466C197.853 74.3199 179.813 74.5734 177.733 75.0267C175.653 75.48 172.36 75.8401 173.346 76.9201C174.32 78.0134 181.386 79.6133 181.386 79.6133C181.386 79.6133 168.32 78.4533 168.626 76.9066Z" fill="#360B1E"/>
<path fill-rule="evenodd" clip-rule="evenodd" d="M165.481 70.573C165.481 70.573 170.668 64.4396 178.214 63.013C185.761 61.5996 195.454 63.2931 195.454 63.2931L194.721 65.5063C194.721 65.5063 182.094 63.0263 176.548 65.173C170.988 67.3197 164.774 72.4263 165.481 70.573Z" fill="#360B1E"/>
<path fill-rule="evenodd" clip-rule="evenodd" d="M183.133 73.8663C183.133 73.8663 184.773 77.373 188.533 77.8796C192.266 78.3996 194.573 73.3197 194.573 73.3197L183.133 73.8663Z" fill="#360B1E"/>
<path fill-rule="evenodd" clip-rule="evenodd" d="M128.721 71.0267C128.721 71.0267 133.027 73.7599 137.441 73.8133C141.841 73.8533 143.081 73.9867 143.081 73.9867C143.081 73.9867 142.441 74.9733 144.361 76.64C146.281 78.32 148.281 78.6133 148.281 78.6133C148.281 78.6133 154.041 77.3333 153.801 76.1066C153.534 74.88 148.321 71.4666 140.921 71.2799C133.534 71.0933 128.721 71.0267 128.721 71.0267Z" fill="#360B1E"/>
<path fill-rule="evenodd" clip-rule="evenodd" d="M137.721 79.6404C137.721 79.6404 145.454 79.2137 148.174 78.2137C150.907 77.227 153.641 75.4404 153.801 76.2671C153.947 77.1071 149.694 79.3337 144.987 79.9737C140.267 80.6271 137.721 79.6404 137.721 79.6404Z" fill="#360B1E"/>
<path d="M198.867 70.5605C198.293 70.5605 197.72 70.5205 197.147 70.4138C189.52 69.1205 183.307 59.6138 180.32 55.0405C179.947 54.4805 179.64 54.0005 179.387 53.6272C177.293 50.5872 174.453 50.6272 168.24 50.7072C166.493 50.7338 164.507 50.7606 162.227 50.7206C151.32 50.4939 150.28 33.0672 150.253 32.3339C150.227 31.8939 150.56 31.5338 150.987 31.5072C151.427 31.4805 151.787 31.8139 151.813 32.2539C151.813 32.4139 152.8 48.9605 162.267 49.1471C164.507 49.2005 166.48 49.1738 168.227 49.1471C174.587 49.0671 178.107 49.0138 180.667 52.7471C180.933 53.1205 181.253 53.6139 181.627 54.1872C184.493 58.5739 190.453 67.6938 197.413 68.8805C199.933 69.3071 202.4 68.6139 204.76 66.8005C205.093 66.5339 205.587 66.6005 205.853 66.9471C206.107 67.2805 206.053 67.7738 205.707 68.0405C203.52 69.7205 201.227 70.5605 198.867 70.5605Z" fill="#360B1E"/>
<path fill-rule="evenodd" clip-rule="evenodd" d="M154.001 76.1064C154.001 76.1064 151.121 68.2664 143.321 67.1064C135.535 65.933 127.735 67.5198 127.735 67.5198L124.895 68.4531C124.895 68.4531 125.721 69.4397 127.748 69.413C131.108 69.3597 137.255 68.3064 140.655 68.5997C148.415 69.2797 152.455 74.3997 152.455 75.813C152.455 77.2397 154.001 76.1064 154.001 76.1064Z" fill="#360B1E"/>
<path fill-rule="evenodd" clip-rule="evenodd" d="M157.534 69.7872C157.96 71.0939 149.92 63.6005 142.107 62.1738C136.414 61.1471 129.667 61.9739 130.08 60.7872C130.227 60.3739 129.054 59.4804 130.6 59.2138C133.387 58.7471 140.093 59.2939 144.48 60.9205C151.307 63.4672 156.987 68.1472 157.534 69.7872Z" fill="#360B1E"/>
<path fill-rule="evenodd" clip-rule="evenodd" d="M153.947 95.3604L166.574 94.4803C166.574 94.4803 163.854 92.7469 160.401 92.4803C156.961 92.2136 153.947 95.3604 153.947 95.3604Z" fill="#FC9F07"/>
<path fill-rule="evenodd" clip-rule="evenodd" d="M128.48 177.16L226.96 162.453L260.894 164.92L247.294 312.306L135.227 321.64C135.227 321.64 130.347 290.04 126.654 287.28C122.947 284.52 106.747 273.28 110.054 256.986C113.054 242.226 121.814 229.266 121.307 220.653C120.8 212.04 113.44 184.12 113.44 184.12L128.48 177.16Z" fill="#360B1E"/>
<path fill-rule="evenodd" clip-rule="evenodd" d="M145.32 202.707C144.107 203.16 143.227 204.333 143.227 205.707C143.227 207.493 144.667 208.96 146.453 208.96C147.827 208.96 148.987 208.093 149.453 206.893C148.92 207.413 148.213 207.707 147.413 207.707C145.8 207.707 144.48 206.387 144.48 204.773C144.48 203.96 144.8 203.24 145.32 202.707Z" fill="#FC9F07"/>
<path fill-rule="evenodd" clip-rule="evenodd" d="M139.107 242.813C137.894 243.28 137.014 244.44 137.014 245.826C137.014 247.6 138.454 249.066 140.227 249.066C141.6 249.066 142.76 248.213 143.227 247C142.694 247.52 142 247.826 141.2 247.826C139.574 247.826 138.267 246.506 138.267 244.88C138.267 244.066 138.574 243.346 139.107 242.813Z" fill="#FC9F07"/>
<path fill-rule="evenodd" clip-rule="evenodd" d="M213.08 187.493C213.08 185.706 214.507 184.266 216.293 184.266C218.08 184.266 219.533 185.706 219.533 187.493C219.533 189.28 218.08 190.72 216.293 190.72C214.507 190.72 213.08 189.28 213.08 187.493Z" fill="#FC9F07"/>
<path fill-rule="evenodd" clip-rule="evenodd" d="M213.08 187.493C213.08 185.706 214.507 184.266 216.293 184.266C218.08 184.266 219.533 185.706 219.533 187.493C219.533 189.28 218.08 190.72 216.293 190.72C214.507 190.72 213.08 189.28 213.08 187.493Z" fill="#FC9F07"/>
<path fill-rule="evenodd" clip-rule="evenodd" d="M126.814 287.227C126.814 287.227 168.588 289.454 183.188 287.494C197.775 285.52 151.695 304.774 147.801 309.56C143.868 314.347 135.188 321.627 135.188 321.627C135.188 321.627 133.175 306.814 131.001 298.68C128.828 290.534 126.814 287.227 126.814 287.227Z" fill="black"/>
<path fill-rule="evenodd" clip-rule="evenodd" d="M123.867 189.587C123.867 187.8 125.307 186.36 127.094 186.36C128.894 186.36 130.321 187.8 130.321 189.587C130.321 191.374 128.894 192.813 127.094 192.813C125.307 192.813 123.867 191.374 123.867 189.587Z" fill="#FC9F07"/>
<path fill-rule="evenodd" clip-rule="evenodd" d="M170.174 192.813C170.174 191.027 171.601 189.587 173.387 189.587C175.174 189.587 176.627 191.027 176.627 192.813C176.627 194.6 175.174 196.04 173.387 196.04C171.601 196.04 170.174 194.6 170.174 192.813Z" fill="#FC9F07"/>
<path fill-rule="evenodd" clip-rule="evenodd" d="M145.32 202.707C144.107 203.16 143.227 204.333 143.227 205.707C143.227 207.493 144.667 208.96 146.453 208.96C147.827 208.96 148.987 208.093 149.453 206.893C148.92 207.413 148.213 207.707 147.413 207.707C145.8 207.707 144.48 206.387 144.48 204.773C144.48 203.96 144.8 203.24 145.32 202.707Z" fill="#FC9F07"/>
<path fill-rule="evenodd" clip-rule="evenodd" d="M189.761 221.454C188.548 221.92 187.668 223.08 187.668 224.467C187.668 226.24 189.108 227.707 190.895 227.707C192.268 227.707 193.441 226.854 193.908 225.64C193.375 226.16 192.655 226.467 191.855 226.467C190.228 226.467 188.921 225.147 188.921 223.52C188.921 222.707 189.228 221.987 189.761 221.454Z" fill="#FC9F07"/>
<path fill-rule="evenodd" clip-rule="evenodd" d="M192.893 186.867C191.653 187.32 190.773 188.493 190.773 189.867C190.773 191.653 192.213 193.12 194 193.12C195.373 193.12 196.547 192.253 197.013 191.053C196.48 191.573 195.774 191.88 194.987 191.88C193.36 191.88 192.027 190.547 192.027 188.933C192.027 188.12 192.347 187.4 192.893 186.867Z" fill="#FC9F07"/>
<path fill-rule="evenodd" clip-rule="evenodd" d="M175.72 252.294C174.494 252.76 173.627 253.92 173.627 255.307C173.627 257.08 175.054 258.547 176.84 258.547C178.214 258.547 179.374 257.694 179.84 256.48C179.32 257 178.6 257.307 177.814 257.307C176.187 257.307 174.867 255.987 174.867 254.36C174.867 253.547 175.187 252.827 175.72 252.294Z" fill="#FC9F07"/>
<path fill-rule="evenodd" clip-rule="evenodd" d="M139.107 242.813C137.894 243.28 137.014 244.44 137.014 245.826C137.014 247.6 138.454 249.066 140.227 249.066C141.6 249.066 142.76 248.213 143.227 247C142.694 247.52 142 247.826 141.2 247.826C139.574 247.826 138.267 246.506 138.267 244.88C138.267 244.066 138.574 243.346 139.107 242.813Z" fill="#FC9F07"/>
<path fill-rule="evenodd" clip-rule="evenodd" d="M145.32 270.947C144.107 271.413 143.227 272.573 143.227 273.947C143.227 275.733 144.667 277.2 146.453 277.2C147.827 277.2 148.987 276.334 149.453 275.134C148.92 275.654 148.213 275.96 147.413 275.96C145.8 275.96 144.48 274.64 144.48 273.013C144.48 272.2 144.8 271.48 145.32 270.947Z" fill="#FC9F07"/>
<path fill-rule="evenodd" clip-rule="evenodd" d="M145.32 299.08C144.107 299.546 143.227 300.706 143.227 302.08C143.227 303.866 144.667 305.333 146.453 305.333C147.827 305.333 148.987 304.466 149.453 303.266C148.92 303.786 148.213 304.08 147.413 304.08C145.8 304.08 144.48 302.773 144.48 301.146C144.48 300.333 144.8 299.613 145.32 299.08Z" fill="#FC9F07"/>
<path fill-rule="evenodd" clip-rule="evenodd" d="M189.761 274.08C188.548 274.534 187.668 275.694 187.668 277.08C187.668 278.867 189.108 280.32 190.895 280.32C192.268 280.32 193.441 279.467 193.908 278.267C193.375 278.774 192.655 279.08 191.855 279.08C190.228 279.08 188.921 277.76 188.921 276.134C188.921 275.32 189.228 274.614 189.761 274.08Z" fill="#FC9F07"/>
<path fill-rule="evenodd" clip-rule="evenodd" d="M167.107 286.573C165.894 287.039 165.014 288.2 165.014 289.586C165.014 291.36 166.44 292.826 168.227 292.826C169.587 292.826 170.76 291.973 171.227 290.76C170.694 291.28 170 291.586 169.2 291.586C167.574 291.586 166.254 290.266 166.254 288.639C166.254 287.826 166.574 287.106 167.107 286.573Z" fill="#FC9F07"/>
<path fill-rule="evenodd" clip-rule="evenodd" d="M151.773 223.84C151.773 222.053 153.227 220.613 155.013 220.613C156.8 220.613 158.227 222.053 158.227 223.84C158.227 225.626 156.8 227.066 155.013 227.066C153.227 227.066 151.773 225.626 151.773 223.84Z" fill="#FC9F07"/>
<path fill-rule="evenodd" clip-rule="evenodd" d="M155.014 316.653C155.014 314.867 156.454 313.427 158.227 313.427C160.014 313.427 161.467 314.867 161.467 316.653C161.467 318.427 160.014 319.88 158.227 319.88C156.454 319.88 155.014 318.427 155.014 316.653Z" fill="#FC9F07"/>
<path fill-rule="evenodd" clip-rule="evenodd" d="M124.107 261.974C124.107 260.2 125.547 258.747 127.321 258.747C129.107 258.747 130.561 260.2 130.561 261.974C130.561 263.76 129.107 265.2 127.321 265.2C125.547 265.2 124.107 263.76 124.107 261.974Z" fill="#FC9F07"/>
<path fill-rule="evenodd" clip-rule="evenodd" d="M178.107 299.387C178.107 297.6 179.561 296.16 181.347 296.16C183.121 296.16 184.561 297.6 184.561 299.387C184.561 301.16 183.121 302.613 181.347 302.613C179.561 302.613 178.107 301.16 178.107 299.387Z" fill="#FC9F07"/>
<path fill-rule="evenodd" clip-rule="evenodd" d="M203.387 297.893C203.387 296.12 204.827 294.667 206.6 294.667C208.4 294.667 209.84 296.12 209.84 297.893C209.84 299.68 208.4 301.12 206.6 301.12C204.827 301.12 203.387 299.68 203.387 297.893Z" fill="#FC9F07"/>
<path fill-rule="evenodd" clip-rule="evenodd" d="M123.867 189.587C123.867 187.8 125.307 186.36 127.094 186.36C128.894 186.36 130.321 187.8 130.321 189.587C130.321 191.374 128.894 192.813 127.094 192.813C125.307 192.813 123.867 191.374 123.867 189.587Z" fill="#FC9F07"/>
<path fill-rule="evenodd" clip-rule="evenodd" d="M194.254 250.933C194.254 249.147 195.68 247.707 197.48 247.707C199.267 247.707 200.694 249.147 200.694 250.933C200.694 252.72 199.267 254.16 197.48 254.16C195.68 254.16 194.254 252.72 194.254 250.933Z" fill="#FC9F07"/>
<path fill-rule="evenodd" clip-rule="evenodd" d="M208.147 134.08C208.147 134.08 202.227 147.24 193.681 163.96C185.147 180.68 200.801 207.027 200.801 207.027L205.174 197.054C205.174 197.054 197.667 220.507 200.014 226.04C202.347 231.56 204.907 241.694 205.227 250.014C205.547 258.334 197.054 275.974 197.054 275.974C197.054 275.974 225.307 256.56 232.441 241.4C239.547 226.24 253.827 161.187 248.801 143.08C243.774 124.96 223.961 118.867 208.147 134.08Z" fill="#FC9F07"/>
<path fill-rule="evenodd" clip-rule="evenodd" d="M235.906 127.12C235.906 127.12 235.68 134.266 236.64 142.053C237.48 148.84 239.653 155.946 238 161.426C234.96 171.426 223.866 196.64 223.866 196.64L234.68 185.746C234.68 185.746 223.733 217.08 221.386 222.306C219.026 227.546 215.08 250.546 215.08 250.546C215.08 250.546 210.533 261.066 215.586 257.026C220.653 252.986 252.013 193.4 251.253 185.093C250.48 176.8 251.866 143.733 247.173 137.093C242.466 130.466 243.12 131.106 235.906 127.12Z" fill="#12130F"/>
<path fill-rule="evenodd" clip-rule="evenodd" d="M248.56 117.84C248.56 117.84 238.294 136.24 240.307 145.307C242.32 154.387 239.294 169.16 235.294 177.387C231.294 185.613 203.84 285.853 216.28 308.24C228.693 330.64 252.64 319.68 256.987 304.693C261.307 289.72 254.92 228.92 256.28 209.16C257.64 189.413 262.76 153.093 265.827 148.96C268.907 144.813 286.054 131.173 285.987 125.613C285.907 120.053 286.187 70.8667 282.934 70.8C279.68 70.7333 276.187 87.4134 276.747 90.36C277.32 93.3067 277.08 113.8 275.2 115.907C273.307 118.027 264.6 119.387 264.6 119.387C264.6 119.387 257.374 128.467 258.4 125.187C259.44 121.907 262.4 99.2667 261.56 95.3333C260.734 91.3867 256.76 96.3199 256.187 102.547C255.6 108.76 249.32 115.707 248.56 117.84Z" fill="#FFCDB2"/>
<path fill-rule="evenodd" clip-rule="evenodd" d="M265.173 103.533L335.026 91.9463C336.96 91.6263 338.773 92.933 339.106 94.8664C339.413 96.7864 338.12 98.613 336.186 98.933L266.32 110.52C264.4 110.84 262.573 109.546 262.266 107.613C261.933 105.68 263.253 103.853 265.173 103.533Z" fill="#360B1E"/>
<path fill-rule="evenodd" clip-rule="evenodd" d="M216.213 140.186C216.213 140.186 198 160.48 197.92 172.92C197.84 185.36 200.653 196.76 200.653 196.76C200.653 196.76 199.053 181.653 201.493 171.32C203.946 160.986 216.213 140.186 216.213 140.186Z" fill="white"/>
<path fill-rule="evenodd" clip-rule="evenodd" d="M207.013 199.934C207.013 199.934 201.693 215.24 204.053 222.387C206.4 229.52 209.626 245.094 209.626 245.094C209.626 245.094 212.773 232.76 215.413 227.814C213.893 229.427 210 234.787 210 234.787C210 234.787 207.546 226.467 206.013 221.36C204.48 216.267 207.013 199.934 207.013 199.934Z" fill="white"/>
<path fill-rule="evenodd" clip-rule="evenodd" d="M149.307 194.174C149.307 194.174 153.267 220.947 154.96 228.547C156.667 236.16 155.533 242.707 156.907 243.28C158.28 243.84 159.493 242.707 159.493 242.707C159.493 242.707 160.213 243.774 161.387 243.574C162.573 243.374 162.96 242.214 162.96 242.214C162.96 242.214 164.44 243.68 165.493 242.574C166.56 241.48 164.44 239.854 164.36 237.627C164.267 235.387 157.453 217.934 159.227 213.494C161.013 209.067 172.667 214.267 173.507 217.56C174.36 220.854 177.387 236.947 177.387 236.947C177.387 236.947 175.573 239.974 176.907 239.96C178.227 239.947 179.627 238.48 179.627 238.48C179.627 238.48 179.347 240.094 181.013 240.214C182.68 240.32 182.96 238.334 182.96 238.334C182.96 238.334 183.653 240.44 185.147 240.12C186.667 239.8 185.467 235.987 184.96 235.187C184.453 234.387 180.627 198.014 179.467 194.427C178.293 190.84 149.307 194.174 149.307 194.174Z" fill="#FC9F07"/>
<path fill-rule="evenodd" clip-rule="evenodd" d="M185.814 76.4267C185.814 75.7334 186.388 75.16 187.121 75.16C187.841 75.16 188.414 75.7334 188.414 76.4267C188.414 77.12 187.841 77.6934 187.121 77.6934C186.388 77.6934 185.814 77.12 185.814 76.4267Z" fill="white"/>
<path fill-rule="evenodd" clip-rule="evenodd" d="M144.76 143.28C144.76 143.28 134.627 166.986 141.627 180.6C148.627 194.213 159.374 226.506 163.947 227.066C168.507 227.613 182.12 202.533 183.547 188.213C184.96 173.893 172.32 150.133 164.854 143.813C157.374 137.493 150.507 135.92 144.76 143.28Z" fill="#FC9F07"/>
<path fill-rule="evenodd" clip-rule="evenodd" d="M172.268 217.946C172.268 217.946 179.561 205.2 181.748 197.653C183.948 190.106 182.481 188.32 182.481 188.32C182.481 188.32 181.214 196.146 179.374 201.573C178.094 205.333 172.268 217.946 172.268 217.946Z" fill="#2C2C2C"/>
<path fill-rule="evenodd" clip-rule="evenodd" d="M143.721 180.773C143.721 180.773 145.361 194.12 144.854 196.627C144.361 199.133 144.401 201.28 144.401 201.28C144.401 201.28 147.947 196.533 148.681 194.44C149.401 192.347 150.681 195.813 150.681 197.08C150.681 198.36 148.494 206.333 148.907 207.16C149.307 207.973 150.401 211.307 150.401 211.307C150.401 211.307 150.641 206.427 152.321 203.28C154.014 200.133 145.574 177.947 143.721 180.773Z" fill="#FC9F07"/>
<path fill-rule="evenodd" clip-rule="evenodd" d="M262.601 125.333C262.601 125.333 265.667 111.213 266.854 107.626C268.054 104.053 267.721 102.44 267.721 102.44C267.721 102.44 259.387 96.3196 256.214 91.773C253.041 87.2263 249.014 82.2397 250.547 81.6264C252.081 80.9997 263.814 92.0397 268.641 93.9197C273.467 95.8131 279.667 98.093 279.294 99.733C278.921 101.373 274.281 116.453 276.361 119.666C278.441 122.866 262.601 125.333 262.601 125.333Z" fill="#FFCDB2"/>
<path d="M208.494 135.026L208.4 135.013C207.974 134.96 207.667 134.573 207.72 134.146C209.56 119.613 206.2 92.7331 206.16 92.4531C206.107 92.0264 206.414 91.6397 206.84 91.5864C207.254 91.5331 207.654 91.8397 207.707 92.2663C207.747 92.533 211.134 119.613 209.267 134.346C209.227 134.733 208.88 135.026 208.494 135.026Z" fill="#360B1E"/>
<path d="M210.468 94.3066C209.694 94.3066 208.934 94.1867 208.214 93.9201C203.468 92.2001 201.908 85.4933 201.841 85.2133C201.748 84.7866 202.014 84.3733 202.441 84.2799C202.854 84.1733 203.268 84.44 203.374 84.8667C203.388 84.92 204.814 91.0267 208.748 92.4534C210.908 93.2267 213.494 92.4667 216.454 90.1867C216.801 89.9334 217.294 89.9867 217.561 90.3333C217.814 90.68 217.748 91.16 217.414 91.4267C214.921 93.3467 212.588 94.3066 210.468 94.3066Z" fill="#360B1E"/>
<path d="M196.68 197.92C196.4 197.92 196.134 197.76 196 197.507C195.8 197.147 191.307 188.533 190.494 176.96C189.787 166.84 196.987 153.68 202.773 143.107C203.707 141.387 204.587 139.773 205.387 138.267C210.987 127.6 216.64 125.96 216.88 125.893C217.293 125.787 217.733 126.027 217.84 126.44C217.96 126.853 217.72 127.28 217.307 127.4C217.213 127.427 212 129.053 206.76 139C205.974 140.507 205.08 142.133 204.134 143.853C198.747 153.707 191.374 167.187 192.054 176.84C192.854 188.08 197.333 196.68 197.373 196.773C197.573 197.147 197.427 197.627 197.054 197.827C196.934 197.893 196.813 197.92 196.68 197.92Z" fill="#360B1E"/>
<path fill-rule="evenodd" clip-rule="evenodd" d="M179.014 98.7072C179.014 98.2272 179.374 97.8405 179.8 97.8405C180.227 97.8405 180.574 98.2272 180.574 98.7072C180.574 99.1738 180.227 99.5605 179.8 99.5605C179.374 99.5605 179.014 99.1738 179.014 98.7072Z" fill="#360B1E"/>
<path d="M95.2531 291.293H95.2264C94.7997 291.28 94.453 290.92 94.4663 290.493C94.533 288.226 93.053 278.4 91.3463 267.013C88.8263 250.16 85.6796 229.2 84.7463 215.56C83.133 191.84 137.253 171.053 139.56 170.173C139.973 170.026 140.413 170.226 140.573 170.626C140.72 171.026 140.52 171.48 140.12 171.64C139.56 171.84 84.773 192.88 86.3063 215.453C87.2263 229.026 90.373 249.96 92.893 266.773C94.6797 278.706 96.093 288.133 96.0264 290.546C96.013 290.96 95.6664 291.293 95.2531 291.293Z" fill="#360B1E"/>
<path fill-rule="evenodd" clip-rule="evenodd" d="M335.027 91.9465L329.533 92.8533C329.893 93.7733 330.293 94.8666 330.4 96.4266C330.507 97.7732 330.44 98.9066 330.36 99.9199L336.173 98.9465C338.107 98.6265 339.4 96.7866 339.093 94.8533C338.76 92.9199 336.947 91.6132 335.027 91.9465Z" fill="#FC9F07"/>
<path d="M134.507 97.5869L134.333 97.5735C133.373 97.3335 124.933 95.2135 122.933 91.9335C122.507 91.2269 122.373 90.5068 122.547 89.7735C123.4 86.2668 119.933 75.6936 117.12 71.7202C113.16 66.1069 108.053 55.3602 118.44 46.4936C124.333 41.4402 128.973 38.6668 132.347 36.6402C134.973 35.0668 136.707 34.0269 137.467 32.8536C137.907 32.1736 137.907 29.1202 137.893 26.1735C137.867 17.6935 137.827 4.89358 145.733 1.85358C150.64 -0.0264244 156.12 0.826857 160.773 4.20019C164.28 6.74686 166.747 10.4002 166.667 12.9335C167.507 12.9069 170.413 11.5868 172.733 10.4801C179.653 7.20014 190.107 2.24014 195.933 6.88014C201.587 11.4001 202.8 18.0001 203.88 23.8135C204.747 28.4935 205.493 32.5469 208.48 33.8936C215.693 37.1469 225.613 44.4402 223.36 51.2002C221.347 57.2269 217.08 64.9069 216.893 65.2269C216.693 65.6002 216.213 65.7469 215.84 65.5335C215.453 65.3202 215.32 64.8402 215.533 64.4669C215.573 64.3869 219.907 56.5868 221.88 50.7068C223.68 45.2802 214.747 38.4402 207.827 35.3202C204.107 33.6269 203.28 29.2136 202.347 24.0936C201.32 18.5469 200.16 12.2535 194.96 8.10683C189.893 4.06683 179.973 8.77355 173.4 11.8936C168.867 14.0536 166.813 14.9736 165.693 14.2269C165.467 14.0669 165.067 13.6802 165.107 12.9068C165.187 11.1868 163.253 7.92019 159.853 5.46686C157.373 3.66686 152.32 1.01358 146.293 3.32024C139.4 5.96024 139.427 18.1202 139.453 26.1602C139.467 30.4136 139.44 32.6802 138.773 33.7068C137.827 35.1868 135.96 36.2935 133.16 37.9735C129.813 39.9735 125.253 42.7201 119.453 47.6801C110.013 55.7468 114.747 65.6401 118.4 70.8135C121.227 74.8135 125.093 85.8801 124.067 90.1468C123.987 90.4668 124.053 90.7736 124.267 91.1202C125.68 93.4402 132.28 95.4669 134.693 96.0536C135.12 96.1469 135.373 96.5735 135.267 97.0002C135.187 97.3469 134.867 97.5869 134.507 97.5869Z" fill="#360B1E"/>
<path fill-rule="evenodd" clip-rule="evenodd" d="M210.948 92.1467C210.948 92.1467 214.468 96.2401 212.468 97.8535C210.468 99.4668 209.561 102.44 207.988 101.28C206.388 100.12 205.268 90.6934 205.268 90.6934L210.948 92.1467Z" fill="#360B1E"/>
<path fill-rule="evenodd" clip-rule="evenodd" d="M272.453 115.067C272.453 115.067 270.667 99.3868 271.213 90.4535C271.733 82.1868 270.453 71.3868 273.053 71.3868C275.68 71.3868 278.64 79.6935 278.867 84.1335C279.107 88.5735 281.733 112.693 280.933 115.307C280.133 117.933 272.453 115.067 272.453 115.067Z" fill="#FC9F07"/>
<path fill-rule="evenodd" clip-rule="evenodd" d="M238.413 128.52C238.413 128.52 224.093 119.52 212.8 119.28C187.907 118.76 144.227 128.133 143.92 146.906C143.467 174.186 182.586 181.293 204.413 167.533C226.253 153.773 238.413 128.52 238.413 128.52Z" fill="#360B1E"/>
<path d="M202.44 102.56C202.64 103.2 203.427 104.467 204.04 105.187C204.107 104.947 204.241 104.707 204.427 104.507C205.694 103.2 209.6 103.2 215.414 103.36C217.734 103.427 219.92 103.494 220.707 103.294C221.134 103.2 221.441 102.814 221.627 102.16C221.934 101.054 221.76 99.4269 221.107 97.8003C219.494 99.6136 216.881 100.8 214.787 101.04C213.801 101.16 212.494 101.28 211.067 101.4C208.414 101.627 203.587 102.027 202.44 102.56ZM204.467 107.24C204.267 107.24 204.041 107.187 203.787 107.04C202.707 106.414 200.8 103.507 200.84 102.294C200.88 100.894 203.027 100.507 210.934 99.8402C212.334 99.7202 213.627 99.6136 214.614 99.4936C216.867 99.227 219.227 97.8536 220.334 96.2536C219.92 95.5736 219.414 94.9202 218.827 94.3469C215.054 90.6669 212.067 81.2802 211.934 80.8802C211.814 80.4669 212.041 80.027 212.454 79.8936C212.867 79.7736 213.294 80.0002 213.427 80.4135C213.454 80.5069 216.427 89.827 219.921 93.227C220.307 93.6136 220.654 94.0136 220.987 94.427C221.001 93.8536 220.827 93.2803 220.467 92.7203C218.4 89.5336 214.707 81.9336 215.267 79.387C215.36 78.9603 215.774 78.6936 216.2 78.787C216.614 78.8803 216.881 79.2936 216.787 79.7203C216.454 81.2403 219.16 87.8269 221.774 91.8669C222.68 93.2669 222.787 94.7736 222.121 96.2536C223.254 98.5203 223.574 100.947 223.134 102.574C222.8 103.774 222.067 104.574 221.067 104.814C220.094 105.054 218.001 105 215.361 104.92C212.347 104.84 206.094 104.667 205.534 105.614C205.56 105.867 205.614 106.694 205 107.08C204.894 107.16 204.707 107.24 204.467 107.24Z" fill="#360B1E"/>
<path fill-rule="evenodd" clip-rule="evenodd" d="M163.226 116.094C163.226 116.094 165.96 125.227 167.853 134.6C169.213 141.267 169.933 147.92 169.853 152.147C169.653 162.294 144.546 169.64 134.386 174.68C124.226 179.72 82.7729 193.014 86.7729 222C90.7729 250.987 93.9863 322.907 108.12 323.16C122.266 323.427 251.68 312.147 255.573 307.32C257.733 304.654 274.906 256.867 279.306 220.867C282.853 191.92 282.56 182.72 272.773 169.894C261.026 154.494 210.8 165.587 208.96 158.254C207.12 150.92 212.626 97.7871 204.226 84.3204C195.84 70.8671 163.226 116.094 163.226 116.094Z" fill="#FFCDB2"/>
<path fill-rule="evenodd" clip-rule="evenodd" d="M163.133 122.36C163.133 122.36 165.626 126.746 167.093 131.906C168.573 137.053 169.053 142.986 169.053 142.986C169.053 142.986 184.493 133.973 193.413 120.293C202.666 106.106 205.453 92.1996 203.653 83.6263C199.826 65.333 187.853 85.6263 187.853 85.6263L163.133 122.36Z" fill="#360B1E"/>
<path fill-rule="evenodd" clip-rule="evenodd" d="M163.455 9.34692C163.455 9.34692 149.961 -3.34633 139.548 8.227C129.121 19.787 141.414 30.7204 134.014 34.2537C126.628 37.8137 128.308 48.8936 124.028 51.9736C119.735 55.0536 108.041 63.5203 114.041 72.2003C120.054 80.8803 126.668 83.5737 128.121 90.787C129.575 98.0137 166.628 107 175.028 106.307C183.415 105.614 213.001 70.0803 217.135 63.7603C221.268 57.4403 216.908 56.1603 217.828 52.5336C218.761 48.9203 226.681 40.8803 219.121 35.7469C211.548 30.6269 205.548 35.9603 200.455 25.7736C195.348 15.5603 198.468 6.80031 186.814 1.46697C176.481 -3.25303 163.455 9.34692 163.455 9.34692Z" fill="#360B1E"/>
<path fill-rule="evenodd" clip-rule="evenodd" d="M132.253 58.6272C132.253 58.6272 145.107 51.6138 147.653 46.8272C150.187 42.0538 151.84 33.4804 151.84 33.4804C151.84 33.4804 156.413 46.6405 164.906 48.0005C173.386 49.3605 182.12 48.7872 184.493 55.7205C186.893 62.6805 194.586 69.0004 200.28 68.4804C205.986 67.9737 207.853 67.1071 207.853 67.1071C207.853 67.1071 195.76 126.654 163.733 128.574C130.32 130.587 132.253 58.6272 132.253 58.6272Z" fill="#FFCDB2"/>
<path fill-rule="evenodd" clip-rule="evenodd" d="M205.547 70.6266C205.547 70.6266 212.347 57.4265 220.361 60.0399C228.374 62.6665 225.134 94.5065 208.761 93.1065C203.867 92.6932 203.094 86.8932 202.254 84.2132C200.254 77.9199 205.547 70.6266 205.547 70.6266Z" fill="#FFCDB2"/>
<path fill-rule="evenodd" clip-rule="evenodd" d="M206.893 76.7465C206.893 76.7465 210.373 70.4799 214.746 68.9599C217.999 67.8266 219.853 67.6132 220.053 68.7599C220.266 69.8932 219.133 77.4399 215.466 79.1732C211.799 80.9199 206.186 79.3465 206.893 76.7465Z" fill="#FC9F07"/>
<path d="M206.227 78.3467C206.094 78.3467 205.947 78.3068 205.814 78.2268C205.454 78.0001 205.334 77.52 205.574 77.1467C205.867 76.6533 213.147 65.1601 222.267 67.9601C222.681 68.0934 222.921 68.5201 222.787 68.9334C222.667 69.3467 222.227 69.5868 221.814 69.4535C213.827 67.0001 206.961 77.8667 206.894 77.9734C206.747 78.2134 206.494 78.3467 206.227 78.3467Z" fill="#360B1E"/>
<path fill-rule="evenodd" clip-rule="evenodd" d="M148.986 108.026C148.986 108.026 155.2 98.8531 162.093 98.7331C168.986 98.6131 174.586 107.68 174.586 107.68C174.586 107.68 169.8 115.48 161.586 114.68C153.386 113.893 148.986 108.026 148.986 108.026Z" fill="#FC9F07"/>
<path fill-rule="evenodd" clip-rule="evenodd" d="M156.107 107.267C156.107 107.267 159.147 106.813 161.694 106.84C164.267 106.88 166.947 107.027 166.947 107.027C166.947 107.027 164.001 104.147 161.281 104.36C158.574 104.573 156.107 107.267 156.107 107.267Z" fill="white"/>
<path fill-rule="evenodd" clip-rule="evenodd" d="M168.76 76.7595C168.76 76.7595 173.466 69.5195 181 68.3061C188.533 67.0928 201.893 69.5728 202.853 68.8794C203.813 68.1728 199.213 73.9462 194.986 75.4662C190.746 76.9862 168.76 76.7595 168.76 76.7595Z" fill="#FC9F07"/>
<path fill-rule="evenodd" clip-rule="evenodd" d="M170.108 76.7201C170.108 76.7201 178.454 73.0267 184.361 72.6C190.281 72.16 196.414 71.9467 197.641 73.4C198.854 74.8534 198.374 80.1467 193.734 80.5334C189.108 80.9334 169.308 78.3734 170.108 76.7201Z" fill="white"/>
<path fill-rule="evenodd" clip-rule="evenodd" d="M153.801 76.1064C153.801 76.1064 150.801 68.2665 143.695 67.6932C136.601 67.1065 124.895 68.4398 124.895 68.4398C124.895 68.4398 132.108 72.8932 135.681 74.1865C139.281 75.4799 153.801 76.1064 153.801 76.1064Z" fill="#FC9F07"/>
<path fill-rule="evenodd" clip-rule="evenodd" d="M132.534 72.2931C132.534 72.2931 155.654 73.3597 153.894 76.9997C152.121 80.6397 136.267 80.4663 134.174 78.613C132.227 76.9063 130.721 72.2797 132.534 72.2931Z" fill="white"/>
<path fill-rule="evenodd" clip-rule="evenodd" d="M168.626 76.9066C168.626 76.9066 171.76 73.7733 179.026 72.6667C186.306 71.56 198.773 71.5866 198.32 72.9466C197.853 74.3199 179.813 74.5734 177.733 75.0267C175.653 75.48 172.36 75.8401 173.346 76.9201C174.32 78.0134 181.386 79.6133 181.386 79.6133C181.386 79.6133 168.32 78.4533 168.626 76.9066Z" fill="#360B1E"/>
<path fill-rule="evenodd" clip-rule="evenodd" d="M165.481 70.573C165.481 70.573 170.668 64.4396 178.214 63.013C185.761 61.5996 195.454 63.2931 195.454 63.2931L194.721 65.5063C194.721 65.5063 182.094 63.0263 176.548 65.173C170.988 67.3197 164.774 72.4263 165.481 70.573Z" fill="#360B1E"/>
<path fill-rule="evenodd" clip-rule="evenodd" d="M183.133 73.8663C183.133 73.8663 184.773 77.373 188.533 77.8796C192.266 78.3996 194.573 73.3197 194.573 73.3197L183.133 73.8663Z" fill="#360B1E"/>
<path fill-rule="evenodd" clip-rule="evenodd" d="M128.721 71.0267C128.721 71.0267 133.027 73.7599 137.441 73.8133C141.841 73.8533 143.081 73.9867 143.081 73.9867C143.081 73.9867 142.441 74.9733 144.361 76.64C146.281 78.32 148.281 78.6133 148.281 78.6133C148.281 78.6133 154.041 77.3333 153.801 76.1066C153.534 74.88 148.321 71.4666 140.921 71.2799C133.534 71.0933 128.721 71.0267 128.721 71.0267Z" fill="#360B1E"/>
<path fill-rule="evenodd" clip-rule="evenodd" d="M137.721 79.6404C137.721 79.6404 145.454 79.2137 148.174 78.2137C150.907 77.227 153.641 75.4404 153.801 76.2671C153.947 77.1071 149.694 79.3337 144.987 79.9737C140.267 80.6271 137.721 79.6404 137.721 79.6404Z" fill="#360B1E"/>
<path d="M198.867 70.5605C198.293 70.5605 197.72 70.5205 197.147 70.4138C189.52 69.1205 183.307 59.6138 180.32 55.0405C179.947 54.4805 179.64 54.0005 179.387 53.6272C177.293 50.5872 174.453 50.6272 168.24 50.7072C166.493 50.7338 164.507 50.7606 162.227 50.7206C151.32 50.4939 150.28 33.0672 150.253 32.3339C150.227 31.8939 150.56 31.5338 150.987 31.5072C151.427 31.4805 151.787 31.8139 151.813 32.2539C151.813 32.4139 152.8 48.9605 162.267 49.1471C164.507 49.2005 166.48 49.1738 168.227 49.1471C174.587 49.0671 178.107 49.0138 180.667 52.7471C180.933 53.1205 181.253 53.6139 181.627 54.1872C184.493 58.5739 190.453 67.6938 197.413 68.8805C199.933 69.3071 202.4 68.6139 204.76 66.8005C205.093 66.5339 205.587 66.6005 205.853 66.9471C206.107 67.2805 206.053 67.7738 205.707 68.0405C203.52 69.7205 201.227 70.5605 198.867 70.5605Z" fill="#360B1E"/>
<path fill-rule="evenodd" clip-rule="evenodd" d="M154.001 76.1064C154.001 76.1064 151.121 68.2664 143.321 67.1064C135.535 65.933 127.735 67.5198 127.735 67.5198L124.895 68.4531C124.895 68.4531 125.721 69.4397 127.748 69.413C131.108 69.3597 137.255 68.3064 140.655 68.5997C148.415 69.2797 152.455 74.3997 152.455 75.813C152.455 77.2397 154.001 76.1064 154.001 76.1064Z" fill="#360B1E"/>
<path fill-rule="evenodd" clip-rule="evenodd" d="M157.534 69.7872C157.96 71.0939 149.92 63.6005 142.107 62.1738C136.414 61.1471 129.667 61.9739 130.08 60.7872C130.227 60.3739 129.054 59.4804 130.6 59.2138C133.387 58.7471 140.093 59.2939 144.48 60.9205C151.307 63.4672 156.987 68.1472 157.534 69.7872Z" fill="#360B1E"/>
<path fill-rule="evenodd" clip-rule="evenodd" d="M153.947 95.3604L166.574 94.4803C166.574 94.4803 163.854 92.7469 160.401 92.4803C156.961 92.2136 153.947 95.3604 153.947 95.3604Z" fill="#FC9F07"/>
<path fill-rule="evenodd" clip-rule="evenodd" d="M128.48 177.16L226.96 162.453L260.894 164.92L257.307 220.027L247.294 312.307L135.32 323.146C135.32 323.146 130.347 290.04 126.654 287.28C122.947 284.52 106.747 273.28 110.054 256.987C113.054 242.227 121.814 229.267 121.307 220.653C120.8 212.04 113.44 184.12 113.44 184.12L128.48 177.16Z" fill="#360B1E"/>
<path fill-rule="evenodd" clip-rule="evenodd" d="M145.32 202.707C144.107 203.16 143.227 204.333 143.227 205.707C143.227 207.493 144.667 208.96 146.453 208.96C147.827 208.96 148.987 208.093 149.453 206.893C148.92 207.413 148.213 207.707 147.413 207.707C145.8 207.707 144.48 206.387 144.48 204.773C144.48 203.96 144.8 203.24 145.32 202.707Z" fill="#FC9F07"/>
<path fill-rule="evenodd" clip-rule="evenodd" d="M139.107 242.813C137.894 243.28 137.014 244.44 137.014 245.826C137.014 247.6 138.454 249.066 140.227 249.066C141.6 249.066 142.76 248.213 143.227 247C142.694 247.52 142 247.826 141.2 247.826C139.574 247.826 138.267 246.506 138.267 244.88C138.267 244.066 138.574 243.346 139.107 242.813Z" fill="#FC9F07"/>
<path fill-rule="evenodd" clip-rule="evenodd" d="M213.08 187.493C213.08 185.706 214.507 184.266 216.293 184.266C218.08 184.266 219.533 185.706 219.533 187.493C219.533 189.28 218.08 190.72 216.293 190.72C214.507 190.72 213.08 189.28 213.08 187.493Z" fill="#FC9F07"/>
<path fill-rule="evenodd" clip-rule="evenodd" d="M213.08 187.493C213.08 185.706 214.507 184.266 216.293 184.266C218.08 184.266 219.533 185.706 219.533 187.493C219.533 189.28 218.08 190.72 216.293 190.72C214.507 190.72 213.08 189.28 213.08 187.493Z" fill="#FC9F07"/>
<path fill-rule="evenodd" clip-rule="evenodd" d="M126.814 287.227C126.814 287.227 168.588 289.454 183.188 287.494C197.775 285.52 151.695 304.774 147.801 309.56C143.868 314.347 135.188 321.627 135.188 321.627C135.188 321.627 133.175 306.814 131.001 298.68C128.828 290.534 126.814 287.227 126.814 287.227Z" fill="black"/>
<path fill-rule="evenodd" clip-rule="evenodd" d="M123.867 189.587C123.867 187.8 125.307 186.36 127.094 186.36C128.894 186.36 130.321 187.8 130.321 189.587C130.321 191.374 128.894 192.813 127.094 192.813C125.307 192.813 123.867 191.374 123.867 189.587Z" fill="#FC9F07"/>
<path fill-rule="evenodd" clip-rule="evenodd" d="M170.174 192.813C170.174 191.027 171.601 189.587 173.387 189.587C175.174 189.587 176.627 191.027 176.627 192.813C176.627 194.6 175.174 196.04 173.387 196.04C171.601 196.04 170.174 194.6 170.174 192.813Z" fill="#FC9F07"/>
<path fill-rule="evenodd" clip-rule="evenodd" d="M145.32 202.707C144.107 203.16 143.227 204.333 143.227 205.707C143.227 207.493 144.667 208.96 146.453 208.96C147.827 208.96 148.987 208.093 149.453 206.893C148.92 207.413 148.213 207.707 147.413 207.707C145.8 207.707 144.48 206.387 144.48 204.773C144.48 203.96 144.8 203.24 145.32 202.707Z" fill="#FC9F07"/>
<path fill-rule="evenodd" clip-rule="evenodd" d="M189.761 221.454C188.548 221.92 187.668 223.08 187.668 224.467C187.668 226.24 189.108 227.707 190.895 227.707C192.268 227.707 193.441 226.854 193.908 225.64C193.375 226.16 192.655 226.467 191.855 226.467C190.228 226.467 188.921 225.147 188.921 223.52C188.921 222.707 189.228 221.987 189.761 221.454Z" fill="#FC9F07"/>
<path fill-rule="evenodd" clip-rule="evenodd" d="M192.893 186.867C191.653 187.32 190.773 188.493 190.773 189.867C190.773 191.653 192.213 193.12 194 193.12C195.373 193.12 196.547 192.253 197.013 191.053C196.48 191.573 195.774 191.88 194.987 191.88C193.36 191.88 192.027 190.547 192.027 188.933C192.027 188.12 192.347 187.4 192.893 186.867Z" fill="#FC9F07"/>
<path fill-rule="evenodd" clip-rule="evenodd" d="M175.72 252.294C174.494 252.76 173.627 253.92 173.627 255.307C173.627 257.08 175.054 258.547 176.84 258.547C178.214 258.547 179.374 257.694 179.84 256.48C179.32 257 178.6 257.307 177.814 257.307C176.187 257.307 174.867 255.987 174.867 254.36C174.867 253.547 175.187 252.827 175.72 252.294Z" fill="#FC9F07"/>
<path fill-rule="evenodd" clip-rule="evenodd" d="M139.107 242.813C137.894 243.28 137.014 244.44 137.014 245.826C137.014 247.6 138.454 249.066 140.227 249.066C141.6 249.066 142.76 248.213 143.227 247C142.694 247.52 142 247.826 141.2 247.826C139.574 247.826 138.267 246.506 138.267 244.88C138.267 244.066 138.574 243.346 139.107 242.813Z" fill="#FC9F07"/>
<path fill-rule="evenodd" clip-rule="evenodd" d="M145.32 270.947C144.107 271.413 143.227 272.573 143.227 273.947C143.227 275.733 144.667 277.2 146.453 277.2C147.827 277.2 148.987 276.334 149.453 275.134C148.92 275.654 148.213 275.96 147.413 275.96C145.8 275.96 144.48 274.64 144.48 273.013C144.48 272.2 144.8 271.48 145.32 270.947Z" fill="#FC9F07"/>
<path fill-rule="evenodd" clip-rule="evenodd" d="M145.32 299.08C144.107 299.546 143.227 300.706 143.227 302.08C143.227 303.866 144.667 305.333 146.453 305.333C147.827 305.333 148.987 304.466 149.453 303.266C148.92 303.786 148.213 304.08 147.413 304.08C145.8 304.08 144.48 302.773 144.48 301.146C144.48 300.333 144.8 299.613 145.32 299.08Z" fill="#FC9F07"/>
<path fill-rule="evenodd" clip-rule="evenodd" d="M189.761 274.08C188.548 274.534 187.668 275.694 187.668 277.08C187.668 278.867 189.108 280.32 190.895 280.32C192.268 280.32 193.441 279.467 193.908 278.267C193.375 278.774 192.655 279.08 191.855 279.08C190.228 279.08 188.921 277.76 188.921 276.134C188.921 275.32 189.228 274.614 189.761 274.08Z" fill="#FC9F07"/>
<path fill-rule="evenodd" clip-rule="evenodd" d="M167.107 286.573C165.894 287.039 165.014 288.2 165.014 289.586C165.014 291.36 166.44 292.826 168.227 292.826C169.587 292.826 170.76 291.973 171.227 290.76C170.694 291.28 170 291.586 169.2 291.586C167.574 291.586 166.254 290.266 166.254 288.639C166.254 287.826 166.574 287.106 167.107 286.573Z" fill="#FC9F07"/>
<path fill-rule="evenodd" clip-rule="evenodd" d="M151.773 223.84C151.773 222.053 153.227 220.613 155.013 220.613C156.8 220.613 158.227 222.053 158.227 223.84C158.227 225.626 156.8 227.066 155.013 227.066C153.227 227.066 151.773 225.626 151.773 223.84Z" fill="#FC9F07"/>
<path fill-rule="evenodd" clip-rule="evenodd" d="M155.014 316.653C155.014 314.867 156.454 313.427 158.227 313.427C160.014 313.427 161.467 314.867 161.467 316.653C161.467 318.427 160.014 319.88 158.227 319.88C156.454 319.88 155.014 318.427 155.014 316.653Z" fill="#FC9F07"/>
<path fill-rule="evenodd" clip-rule="evenodd" d="M124.107 261.974C124.107 260.2 125.547 258.747 127.321 258.747C129.107 258.747 130.561 260.2 130.561 261.974C130.561 263.76 129.107 265.2 127.321 265.2C125.547 265.2 124.107 263.76 124.107 261.974Z" fill="#FC9F07"/>
<path fill-rule="evenodd" clip-rule="evenodd" d="M178.107 299.387C178.107 297.6 179.561 296.16 181.347 296.16C183.121 296.16 184.561 297.6 184.561 299.387C184.561 301.16 183.121 302.613 181.347 302.613C179.561 302.613 178.107 301.16 178.107 299.387Z" fill="#FC9F07"/>
<path fill-rule="evenodd" clip-rule="evenodd" d="M203.387 297.893C203.387 296.12 204.827 294.667 206.6 294.667C208.4 294.667 209.84 296.12 209.84 297.893C209.84 299.68 208.4 301.12 206.6 301.12C204.827 301.12 203.387 299.68 203.387 297.893Z" fill="#FC9F07"/>
<path fill-rule="evenodd" clip-rule="evenodd" d="M123.867 189.587C123.867 187.8 125.307 186.36 127.094 186.36C128.894 186.36 130.321 187.8 130.321 189.587C130.321 191.374 128.894 192.813 127.094 192.813C125.307 192.813 123.867 191.374 123.867 189.587Z" fill="#FC9F07"/>
<path fill-rule="evenodd" clip-rule="evenodd" d="M194.254 250.933C194.254 249.147 195.68 247.707 197.48 247.707C199.267 247.707 200.694 249.147 200.694 250.933C200.694 252.72 199.267 254.16 197.48 254.16C195.68 254.16 194.254 252.72 194.254 250.933Z" fill="#FC9F07"/>
<path fill-rule="evenodd" clip-rule="evenodd" d="M162.414 346.426C161.2 346.893 160.32 348.053 160.32 349.44C160.32 351.226 161.76 352.68 163.547 352.68C164.907 352.68 166.08 351.826 166.547 350.626C166.014 351.133 165.307 351.44 164.507 351.44C162.894 351.44 161.574 350.12 161.574 348.493C161.574 347.68 161.894 346.96 162.414 346.426Z" fill="#FC9F07"/>
<path fill-rule="evenodd" clip-rule="evenodd" d="M206.853 365.186C205.64 365.653 204.76 366.813 204.76 368.186C204.76 369.973 206.2 371.439 207.986 371.439C209.36 371.439 210.506 370.573 210.986 369.373C210.453 369.893 209.746 370.199 208.946 370.199C207.32 370.199 206.013 368.88 206.013 367.253C206.013 366.44 206.32 365.72 206.853 365.186Z" fill="#FC9F07"/>
<path fill-rule="evenodd" clip-rule="evenodd" d="M209.961 330.6C208.747 331.053 207.867 332.213 207.867 333.6C207.867 335.387 209.307 336.84 211.094 336.84C212.467 336.84 213.627 335.987 214.094 334.787C213.574 335.293 212.854 335.6 212.054 335.6C210.441 335.6 209.121 334.28 209.121 332.653C209.121 331.84 209.441 331.12 209.961 330.6Z" fill="#FC9F07"/>
<path fill-rule="evenodd" clip-rule="evenodd" d="M192.814 396.027C191.587 396.494 190.721 397.654 190.721 399.027C190.721 400.814 192.147 402.28 193.934 402.28C195.307 402.28 196.467 401.414 196.934 400.214C196.401 400.734 195.694 401.027 194.907 401.027C193.281 401.027 191.961 399.72 191.961 398.094C191.961 397.28 192.281 396.56 192.814 396.027Z" fill="#FC9F07"/>
<path fill-rule="evenodd" clip-rule="evenodd" d="M156.201 386.546C154.987 387.013 154.107 388.173 154.107 389.546C154.107 391.333 155.547 392.8 157.321 392.8C158.681 392.8 159.854 391.933 160.321 390.733C159.801 391.253 159.094 391.546 158.294 391.546C156.667 391.546 155.347 390.226 155.347 388.613C155.347 387.8 155.667 387.08 156.201 386.546Z" fill="#FC9F07"/>
<path fill-rule="evenodd" clip-rule="evenodd" d="M162.414 414.68C161.2 415.134 160.32 416.294 160.32 417.68C160.32 419.467 161.76 420.934 163.547 420.934C164.907 420.934 166.08 420.067 166.547 418.867C166.014 419.374 165.307 419.68 164.507 419.68C162.894 419.68 161.574 418.36 161.574 416.747C161.574 415.934 161.894 415.214 162.414 414.68Z" fill="#FC9F07"/>
<path fill-rule="evenodd" clip-rule="evenodd" d="M162.414 442.814C161.2 443.267 160.32 444.427 160.32 445.814C160.32 447.6 161.76 449.054 163.547 449.054C164.907 449.054 166.08 448.2 166.547 447C166.014 447.507 165.307 447.814 164.507 447.814C162.894 447.814 161.574 446.494 161.574 444.867C161.574 444.054 161.894 443.347 162.414 442.814Z" fill="#FC9F07"/>
<path fill-rule="evenodd" clip-rule="evenodd" d="M206.853 417.8C205.64 418.267 204.76 419.427 204.76 420.814C204.76 422.587 206.2 424.054 207.986 424.054C209.36 424.054 210.506 423.2 210.986 421.987C210.453 422.507 209.746 422.814 208.946 422.814C207.32 422.814 206.013 421.494 206.013 419.867C206.013 419.054 206.32 418.334 206.853 417.8Z" fill="#FC9F07"/>
<path fill-rule="evenodd" clip-rule="evenodd" d="M184.187 430.307C182.96 430.76 182.094 431.934 182.094 433.307C182.094 435.094 183.534 436.561 185.307 436.561C186.68 436.561 187.854 435.694 188.32 434.494C187.8 435.014 187.094 435.307 186.28 435.307C184.667 435.307 183.347 433.987 183.347 432.374C183.347 431.56 183.654 430.84 184.187 430.307Z" fill="#FC9F07"/>
<path fill-rule="evenodd" clip-rule="evenodd" d="M168.867 367.573C168.867 365.786 170.32 364.346 172.107 364.346C173.894 364.346 175.321 365.786 175.321 367.573C175.321 369.346 173.894 370.8 172.107 370.8C170.32 370.8 168.867 369.346 168.867 367.573Z" fill="#FC9F07"/>
<path fill-rule="evenodd" clip-rule="evenodd" d="M172.107 460.373C172.107 458.6 173.547 457.147 175.321 457.147C177.107 457.147 178.561 458.6 178.561 460.373C178.561 462.16 177.107 463.613 175.321 463.613C173.547 463.613 172.107 462.16 172.107 460.373Z" fill="#FC9F07"/>
<path fill-rule="evenodd" clip-rule="evenodd" d="M141.201 405.707C141.201 403.92 142.641 402.48 144.414 402.48C146.201 402.48 147.655 403.92 147.655 405.707C147.655 407.494 146.201 408.934 144.414 408.934C142.641 408.934 141.201 407.494 141.201 405.707Z" fill="#FC9F07"/>
<path fill-rule="evenodd" clip-rule="evenodd" d="M195.201 443.106C195.201 441.333 196.654 439.88 198.441 439.88C200.214 439.88 201.655 441.333 201.655 443.106C201.655 444.893 200.214 446.333 198.441 446.333C196.654 446.333 195.201 444.893 195.201 443.106Z" fill="#FC9F07"/>
<path fill-rule="evenodd" clip-rule="evenodd" d="M220.48 441.627C220.48 439.84 221.921 438.4 223.694 438.4C225.481 438.4 226.934 439.84 226.934 441.627C226.934 443.413 225.481 444.854 223.694 444.854C221.921 444.854 220.48 443.413 220.48 441.627Z" fill="#FC9F07"/>
<path fill-rule="evenodd" clip-rule="evenodd" d="M140.961 333.32C140.961 331.534 142.401 330.094 144.188 330.094C145.961 330.094 147.414 331.534 147.414 333.32C147.414 335.094 145.961 336.547 144.188 336.547C142.401 336.547 140.961 335.094 140.961 333.32Z" fill="#FC9F07"/>
<path fill-rule="evenodd" clip-rule="evenodd" d="M211.348 394.667C211.348 392.88 212.774 391.44 214.561 391.44C216.348 391.44 217.801 392.88 217.801 394.667C217.801 396.44 216.348 397.894 214.561 397.894C212.774 397.894 211.348 396.44 211.348 394.667Z" fill="#FC9F07"/>
<path fill-rule="evenodd" clip-rule="evenodd" d="M146.041 505.68C144.827 506.147 143.947 507.307 143.947 508.68C143.947 510.467 145.387 511.934 147.174 511.934C148.547 511.934 149.721 511.08 150.187 509.867C149.654 510.387 148.947 510.694 148.134 510.694C146.534 510.694 145.201 509.374 145.201 507.747C145.201 506.934 145.507 506.214 146.041 505.68Z" fill="#FC9F07"/>
<path fill-rule="evenodd" clip-rule="evenodd" d="M190.494 524.439C189.28 524.893 188.4 526.053 188.4 527.439C188.4 529.226 189.84 530.688 191.627 530.688C192.987 530.688 194.147 529.826 194.627 528.626C194.094 529.133 193.387 529.439 192.587 529.439C190.96 529.439 189.64 528.12 189.64 526.493C189.64 525.693 189.96 524.973 190.494 524.439Z" fill="#FC9F07"/>
<path fill-rule="evenodd" clip-rule="evenodd" d="M193.601 489.84C192.388 490.307 191.508 491.467 191.508 492.84C191.508 494.627 192.948 496.094 194.735 496.094C196.095 496.094 197.268 495.24 197.735 494.027C197.201 494.547 196.495 494.854 195.695 494.854C194.081 494.854 192.748 493.534 192.748 491.907C192.748 491.094 193.081 490.374 193.601 489.84Z" fill="#FC9F07"/>
<path fill-rule="evenodd" clip-rule="evenodd" d="M176.455 555.276C175.228 555.736 174.361 556.898 174.361 558.28C174.361 560.061 175.775 561.526 177.561 561.526C178.935 561.526 180.108 560.666 180.575 559.462C180.041 559.978 179.348 560.281 178.548 560.281C176.921 560.281 175.588 558.962 175.588 557.338C175.588 556.526 175.921 555.806 176.455 555.276Z" fill="#FC9F07"/>
<path fill-rule="evenodd" clip-rule="evenodd" d="M139.828 545.793C138.601 546.254 137.734 547.417 137.734 548.798C137.734 550.581 139.174 552.045 140.948 552.045C142.321 552.045 143.481 551.186 143.948 549.981C143.441 550.497 142.721 550.801 141.921 550.801C140.294 550.801 138.988 549.481 138.988 547.858C138.988 547.045 139.294 546.326 139.828 545.793Z" fill="#FC9F07"/>
<path fill-rule="evenodd" clip-rule="evenodd" d="M146.041 573.925C144.827 574.386 143.947 575.549 143.947 576.929C143.947 578.713 145.387 580.176 147.174 580.176C148.547 580.176 149.721 579.317 150.187 578.112C149.654 578.628 148.947 578.933 148.134 578.933C146.534 578.933 145.201 577.612 145.201 575.989C145.201 575.176 145.507 574.457 146.041 573.925Z" fill="#FC9F07"/>
<path fill-rule="evenodd" clip-rule="evenodd" d="M146.041 602.056C144.827 602.517 143.947 603.68 143.947 605.061C143.947 606.844 145.387 608.308 147.174 608.308C148.547 608.308 149.721 607.448 150.187 606.244C149.654 606.76 148.947 607.064 148.134 607.064C146.534 607.064 145.201 605.744 145.201 604.12C145.201 603.308 145.507 602.589 146.041 602.056Z" fill="#FC9F07"/>
<path fill-rule="evenodd" clip-rule="evenodd" d="M190.494 577.052C189.28 577.512 188.4 578.674 188.4 580.054C188.4 581.837 189.84 583.304 191.627 583.304C192.987 583.304 194.147 582.442 194.627 581.238C194.094 581.754 193.387 582.057 192.587 582.057C190.96 582.057 189.64 580.738 189.64 579.113C189.64 578.304 189.96 577.582 190.494 577.052Z" fill="#FC9F07"/>
<path fill-rule="evenodd" clip-rule="evenodd" d="M167.828 589.554C166.601 590.015 165.734 591.179 165.734 592.558C165.734 594.34 167.174 595.806 168.948 595.806C170.308 595.806 171.481 594.946 171.948 593.743C171.414 594.258 170.721 594.562 169.921 594.562C168.294 594.562 166.988 593.243 166.988 591.618C166.988 590.806 167.294 590.086 167.828 589.554Z" fill="#FC9F07"/>
<path fill-rule="evenodd" clip-rule="evenodd" d="M152.508 526.813C152.508 525.04 153.948 523.587 155.735 523.587C157.508 523.587 158.961 525.04 158.961 526.813C158.961 528.6 157.508 530.04 155.735 530.04C153.948 530.04 152.508 528.6 152.508 526.813Z" fill="#FC9F07"/>
<path fill-rule="evenodd" clip-rule="evenodd" d="M155.734 619.628C155.734 617.845 157.188 616.4 158.961 616.4C160.748 616.4 162.188 617.845 162.188 619.628C162.188 621.409 160.748 622.854 158.961 622.854C157.188 622.854 155.734 621.409 155.734 619.628Z" fill="#FC9F07"/>
<path fill-rule="evenodd" clip-rule="evenodd" d="M124.828 564.955C124.828 563.172 126.281 561.727 128.055 561.727C129.841 561.727 131.281 563.172 131.281 564.955C131.281 566.736 129.841 568.182 128.055 568.182C126.281 568.182 124.828 566.736 124.828 564.955Z" fill="#FC9F07"/>
<path fill-rule="evenodd" clip-rule="evenodd" d="M178.84 602.361C178.84 600.579 180.28 599.135 182.053 599.135C183.84 599.135 185.293 600.579 185.293 602.361C185.293 604.144 183.84 605.588 182.053 605.588C180.28 605.588 178.84 604.144 178.84 602.361Z" fill="#FC9F07"/>
<path fill-rule="evenodd" clip-rule="evenodd" d="M204.107 600.874C204.107 599.093 205.561 597.648 207.347 597.648C209.121 597.648 210.561 599.093 210.561 600.874C210.561 602.658 209.121 604.104 207.347 604.104C205.561 604.104 204.107 602.658 204.107 600.874Z" fill="#FC9F07"/>
<path fill-rule="evenodd" clip-rule="evenodd" d="M124.588 492.56C124.588 490.787 126.041 489.334 127.828 489.334C129.601 489.334 131.041 490.787 131.041 492.56C131.041 494.347 129.601 495.787 127.828 495.787C126.041 495.787 124.588 494.347 124.588 492.56Z" fill="#FC9F07"/>
<path fill-rule="evenodd" clip-rule="evenodd" d="M194.961 553.911C194.961 552.128 196.414 550.683 198.201 550.683C199.988 550.683 201.414 552.128 201.414 553.911C201.414 555.692 199.988 557.138 198.201 557.138C196.414 557.138 194.961 555.692 194.961 553.911Z" fill="#FC9F07"/>
<path fill-rule="evenodd" clip-rule="evenodd" d="M208.147 134.08C208.147 134.08 202.227 147.24 193.681 163.96C185.147 180.68 200.801 207.027 200.801 207.027L205.174 197.054C205.174 197.054 197.667 220.507 200.014 226.04C202.347 231.56 204.907 241.694 205.227 250.014C205.547 258.334 197.054 275.974 197.054 275.974C197.054 275.974 225.307 256.56 232.441 241.4C239.547 226.24 253.827 161.187 248.801 143.08C243.774 124.96 223.961 118.867 208.147 134.08Z" fill="#FC9F07"/>
<path fill-rule="evenodd" clip-rule="evenodd" d="M235.906 127.12C235.906 127.12 235.68 134.266 236.64 142.053C237.48 148.84 239.653 155.946 238 161.426C234.96 171.426 223.866 196.64 223.866 196.64L234.68 185.746C234.68 185.746 223.733 217.08 221.386 222.306C219.026 227.546 215.08 250.546 215.08 250.546C215.08 250.546 210.533 261.066 215.586 257.026C220.653 252.986 252.013 193.4 251.253 185.093C250.48 176.8 251.866 143.733 247.173 137.093C242.466 130.466 243.12 131.106 235.906 127.12Z" fill="#12130F"/>
<path fill-rule="evenodd" clip-rule="evenodd" d="M248.56 117.84C248.56 117.84 238.294 136.24 240.307 145.307C242.32 154.387 239.294 169.16 235.294 177.387C231.294 185.613 203.84 285.853 216.28 308.24C228.693 330.64 252.64 319.68 256.987 304.693C261.307 289.72 254.92 228.92 256.28 209.16C257.64 189.413 262.76 153.093 265.827 148.96C268.907 144.813 286.054 131.173 285.987 125.613C285.907 120.053 286.187 70.8667 282.934 70.8C279.68 70.7333 276.187 87.4134 276.747 90.36C277.32 93.3067 277.08 113.8 275.2 115.907C273.307 118.027 264.6 119.387 264.6 119.387C264.6 119.387 257.374 128.467 258.4 125.187C259.44 121.907 262.4 99.2667 261.56 95.3333C260.734 91.3867 256.76 96.3199 256.187 102.547C255.6 108.76 249.32 115.707 248.56 117.84Z" fill="#FFCDB2"/>
<path fill-rule="evenodd" clip-rule="evenodd" d="M265.173 103.533L335.026 91.9463C336.96 91.6263 338.773 92.933 339.106 94.8664C339.413 96.7864 338.12 98.613 336.186 98.933L266.32 110.52C264.4 110.84 262.573 109.546 262.266 107.613C261.933 105.68 263.253 103.853 265.173 103.533Z" fill="#360B1E"/>
<path fill-rule="evenodd" clip-rule="evenodd" d="M216.213 140.186C216.213 140.186 198 160.48 197.92 172.92C197.84 185.36 200.653 196.76 200.653 196.76C200.653 196.76 199.053 181.653 201.493 171.32C203.946 160.986 216.213 140.186 216.213 140.186Z" fill="white"/>
<path fill-rule="evenodd" clip-rule="evenodd" d="M207.013 199.934C207.013 199.934 201.693 215.24 204.053 222.387C206.4 229.52 209.626 245.094 209.626 245.094C209.626 245.094 212.773 232.76 215.413 227.814C213.893 229.427 210 234.787 210 234.787C210 234.787 207.546 226.467 206.013 221.36C204.48 216.267 207.013 199.934 207.013 199.934Z" fill="white"/>
<path fill-rule="evenodd" clip-rule="evenodd" d="M149.307 194.174C149.307 194.174 153.267 220.947 154.96 228.547C156.667 236.16 155.533 242.707 156.907 243.28C158.28 243.84 159.493 242.707 159.493 242.707C159.493 242.707 160.213 243.774 161.387 243.574C162.573 243.374 162.96 242.214 162.96 242.214C162.96 242.214 164.44 243.68 165.493 242.574C166.56 241.48 164.44 239.854 164.36 237.627C164.267 235.387 157.453 217.934 159.227 213.494C161.013 209.067 172.667 214.267 173.507 217.56C174.36 220.854 177.387 236.947 177.387 236.947C177.387 236.947 175.573 239.974 176.907 239.96C178.227 239.947 179.627 238.48 179.627 238.48C179.627 238.48 179.347 240.094 181.013 240.214C182.68 240.32 182.96 238.334 182.96 238.334C182.96 238.334 183.653 240.44 185.147 240.12C186.667 239.8 185.467 235.987 184.96 235.187C184.453 234.387 180.627 198.014 179.467 194.427C178.293 190.84 149.307 194.174 149.307 194.174Z" fill="#FC9F07"/>
<path fill-rule="evenodd" clip-rule="evenodd" d="M185.814 76.4267C185.814 75.7334 186.388 75.16 187.121 75.16C187.841 75.16 188.414 75.7334 188.414 76.4267C188.414 77.12 187.841 77.6934 187.121 77.6934C186.388 77.6934 185.814 77.12 185.814 76.4267Z" fill="white"/>
<path fill-rule="evenodd" clip-rule="evenodd" d="M144.76 143.28C144.76 143.28 134.627 166.986 141.627 180.6C148.627 194.213 159.374 226.506 163.947 227.066C168.507 227.613 182.12 202.533 183.547 188.213C184.96 173.893 172.32 150.133 164.854 143.813C157.374 137.493 150.507 135.92 144.76 143.28Z" fill="#FC9F07"/>
<path fill-rule="evenodd" clip-rule="evenodd" d="M172.268 217.946C172.268 217.946 179.561 205.2 181.748 197.653C183.948 190.106 182.481 188.32 182.481 188.32C182.481 188.32 181.214 196.146 179.374 201.573C178.094 205.333 172.268 217.946 172.268 217.946Z" fill="#2C2C2C"/>
<path fill-rule="evenodd" clip-rule="evenodd" d="M143.721 180.773C143.721 180.773 145.361 194.12 144.854 196.627C144.361 199.133 144.401 201.28 144.401 201.28C144.401 201.28 147.947 196.533 148.681 194.44C149.401 192.347 150.681 195.813 150.681 197.08C150.681 198.36 148.494 206.333 148.907 207.16C149.307 207.973 150.401 211.307 150.401 211.307C150.401 211.307 150.641 206.427 152.321 203.28C154.014 200.133 145.574 177.947 143.721 180.773Z" fill="#FC9F07"/>
<path fill-rule="evenodd" clip-rule="evenodd" d="M262.601 125.333C262.601 125.333 265.667 111.213 266.854 107.626C268.054 104.053 267.721 102.44 267.721 102.44C267.721 102.44 259.387 96.3196 256.214 91.773C253.041 87.2263 249.014 82.2397 250.547 81.6264C252.081 80.9997 263.814 92.0397 268.641 93.9197C273.467 95.8131 279.667 98.093 279.294 99.733C278.921 101.373 274.281 116.453 276.361 119.666C278.441 122.866 262.601 125.333 262.601 125.333Z" fill="#FFCDB2"/>
<path d="M208.494 135.026L208.4 135.013C207.974 134.96 207.667 134.573 207.72 134.146C209.56 119.613 206.2 92.7331 206.16 92.4531C206.107 92.0264 206.414 91.6397 206.84 91.5864C207.254 91.5331 207.654 91.8397 207.707 92.2663C207.747 92.533 211.134 119.613 209.267 134.346C209.227 134.733 208.88 135.026 208.494 135.026Z" fill="#360B1E"/>
<path d="M210.468 94.3066C209.694 94.3066 208.934 94.1867 208.214 93.9201C203.468 92.2001 201.908 85.4933 201.841 85.2133C201.748 84.7866 202.014 84.3733 202.441 84.2799C202.854 84.1733 203.268 84.44 203.374 84.8667C203.388 84.92 204.814 91.0267 208.748 92.4534C210.908 93.2267 213.494 92.4667 216.454 90.1867C216.801 89.9334 217.294 89.9867 217.561 90.3333C217.814 90.68 217.748 91.16 217.414 91.4267C214.921 93.3467 212.588 94.3066 210.468 94.3066Z" fill="#360B1E"/>
<path d="M196.68 197.92C196.4 197.92 196.134 197.76 196 197.507C195.8 197.147 191.307 188.533 190.494 176.96C189.787 166.84 196.987 153.68 202.773 143.107C203.707 141.387 204.587 139.773 205.387 138.267C210.987 127.6 216.64 125.96 216.88 125.893C217.293 125.787 217.733 126.027 217.84 126.44C217.96 126.853 217.72 127.28 217.307 127.4C217.213 127.427 212 129.053 206.76 139C205.974 140.507 205.08 142.133 204.134 143.853C198.747 153.707 191.374 167.187 192.054 176.84C192.854 188.08 197.333 196.68 197.373 196.773C197.573 197.147 197.427 197.627 197.054 197.827C196.934 197.893 196.813 197.92 196.68 197.92Z" fill="#360B1E"/>
<path fill-rule="evenodd" clip-rule="evenodd" d="M179.014 98.7072C179.014 98.2272 179.374 97.8405 179.8 97.8405C180.227 97.8405 180.574 98.2272 180.574 98.7072C180.574 99.1738 180.227 99.5605 179.8 99.5605C179.374 99.5605 179.014 99.1738 179.014 98.7072Z" fill="#360B1E"/>
<path d="M95.2531 291.293H95.2264C94.7997 291.28 94.453 290.92 94.4663 290.493C94.533 288.226 93.053 278.4 91.3463 267.013C88.8263 250.16 85.6796 229.2 84.7463 215.56C83.133 191.84 137.253 171.053 139.56 170.173C139.973 170.026 140.413 170.226 140.573 170.626C140.72 171.026 140.52 171.48 140.12 171.64C139.56 171.84 84.773 192.88 86.3063 215.453C87.2263 229.026 90.373 249.96 92.893 266.773C94.6797 278.706 96.093 288.133 96.0264 290.546C96.013 290.96 95.6664 291.293 95.2531 291.293Z" fill="#360B1E"/>
<path fill-rule="evenodd" clip-rule="evenodd" d="M335.027 91.9465L329.533 92.8533C329.893 93.7733 330.293 94.8666 330.4 96.4266C330.507 97.7732 330.44 98.9066 330.36 99.9199L336.173 98.9465C338.107 98.6265 339.4 96.7866 339.093 94.8533C338.76 92.9199 336.947 91.6132 335.027 91.9465Z" fill="#FC9F07"/>
<path d="M130.093 231.133L129.8 231.079C129.4 230.919 129.2 230.466 129.36 230.066C129.44 229.879 131.267 225.386 138.973 221.453C146.587 217.573 160.693 217.773 161.293 217.786C161.72 217.8 162.067 218.16 162.053 218.586C162.053 219.013 161.667 219.346 161.267 219.36C161.12 219.346 146.947 219.133 139.68 222.839C132.56 226.479 130.84 230.599 130.813 230.639C130.693 230.946 130.4 231.133 130.093 231.133Z" fill="white"/>
<path d="M134.44 235.307C134.24 235.307 134.053 235.24 133.907 235.107C133.587 234.813 133.573 234.32 133.867 234C134.307 233.52 145 222.187 160.907 220.093C161.333 220.04 161.733 220.333 161.787 220.76C161.84 221.187 161.547 221.587 161.12 221.64C145.773 223.653 135.107 234.947 135 235.067C134.853 235.227 134.64 235.307 134.44 235.307Z" fill="white"/>
<path d="M167.894 219.439C167.548 219.439 167.241 219.226 167.134 218.879C167.014 218.466 167.254 218.04 167.668 217.92C168.388 217.693 185.414 212.693 194.948 216.279C195.348 216.426 195.548 216.879 195.401 217.279C195.254 217.679 194.801 217.893 194.401 217.733C185.361 214.346 168.281 219.359 168.108 219.413L167.894 219.439Z" fill="white"/>
<path d="M192.187 223.587L191.84 223.507C186.92 221.107 167.493 222.08 167.307 222.094C166.867 222.094 166.507 221.773 166.48 221.347C166.453 220.92 166.787 220.547 167.227 220.534C168.04 220.48 187.253 219.52 192.533 222.107C192.92 222.294 193.08 222.76 192.88 223.147C192.747 223.427 192.467 223.587 192.187 223.587Z" fill="white"/>
<path d="M161.654 211.906C161.481 211.906 161.321 211.853 161.174 211.733L157.841 209.133C157.508 208.866 157.441 208.373 157.708 208.04C157.974 207.693 158.468 207.64 158.801 207.906L162.134 210.506C162.481 210.773 162.534 211.266 162.268 211.6C162.121 211.8 161.881 211.906 161.654 211.906Z" fill="#12130F"/>
<path d="M172.868 210.6C172.708 210.6 172.535 210.546 172.388 210.44L169.081 207.826C168.735 207.56 168.681 207.08 168.948 206.733C169.215 206.4 169.708 206.333 170.041 206.6L173.361 209.2C173.695 209.466 173.748 209.96 173.481 210.306C173.335 210.493 173.108 210.6 172.868 210.6Z" fill="#12130F"/>
<path d="M170.28 210.96C170.107 210.96 169.947 210.907 169.8 210.8C169.453 210.533 169.4 210.04 169.667 209.707L172.253 206.373C172.52 206.04 173.013 205.973 173.347 206.24C173.693 206.507 173.747 207 173.493 207.333L170.893 210.667C170.747 210.853 170.507 210.96 170.28 210.96Z" fill="#12130F"/>
<path d="M158.321 212.267C158.161 212.267 157.988 212.213 157.841 212.093C157.508 211.827 157.441 211.347 157.708 211L160.321 207.68C160.588 207.333 161.081 207.28 161.414 207.547C161.761 207.813 161.814 208.293 161.547 208.64L158.934 211.96C158.788 212.16 158.561 212.267 158.321 212.267Z" fill="#12130F"/>
<path d="M248.628 315.413C248.215 315.413 247.881 315.106 247.841 314.693C247.815 314.266 248.135 313.893 248.561 313.853C253.481 313.48 273.948 259.973 280.601 216.04C286.961 174.026 265.161 165.226 264.935 165.146C264.535 165 264.335 164.546 264.481 164.146C264.641 163.733 265.095 163.533 265.495 163.68C266.441 164.04 288.708 172.92 282.148 216.28C275.908 257.493 255.441 314.893 248.681 315.413H248.628Z" fill="#12130F"/>
<path fill-rule="evenodd" clip-rule="evenodd" d="M45.2012 237.787C45.5212 237.92 47.0678 241.694 48.7478 245.707C49.7478 246.6 51.6945 248.614 52.4811 250.854C53.0011 252.32 53.4012 253.774 53.5612 254.867C54.8279 256.214 55.6811 256.32 55.6811 256.32C55.6811 256.32 54.2945 252.827 52.5612 248.614C50.8412 244.414 45.2012 237.787 45.2012 237.787Z" fill="#360B1E"/>
<path fill-rule="evenodd" clip-rule="evenodd" d="M243.734 365.346C243.734 365.346 202.867 481.519 211.854 499.239C220.84 516.959 275.547 643.865 282.867 658.986C290.187 674.106 278.107 697.314 283.64 723.59C289.187 749.869 312.947 798.035 322.494 835.299C324.107 841.557 325.667 848.797 326.507 854.291C328.547 867.57 326.734 871.745 326.187 879.083C325.627 886.795 332.014 889.127 337.32 903.258C342.654 917.391 349.827 928.717 349.827 928.717L376.28 920.45C376.28 920.45 373.667 901.375 362.8 881.339C355.934 868.697 337.907 736.529 331.094 676.407C329.494 662.427 331.36 651.454 330.867 647.798C327.48 622.516 289.827 519.293 277.947 471.76C265.8 423.133 243.734 365.346 243.734 365.346Z" fill="#FFCDB2"/>
<path fill-rule="evenodd" clip-rule="evenodd" d="M243.2 355.813C243.2 355.813 242.587 517.506 248 636.916C253.387 756.32 271.667 953.066 271.667 953.066L194.907 947.772L178.307 437.333L243.2 355.813Z" fill="#360B1E"/>
<path fill-rule="evenodd" clip-rule="evenodd" d="M327.133 871.289C327.133 871.289 341.253 897.774 350.56 906.373C359.853 914.972 367.72 920.873 367.293 908.718C366.853 896.564 359.307 870.894 359.307 870.894C359.307 870.894 371.587 892.382 378.987 916.336C384.12 933.008 393.64 944.241 395.48 945.256C399.72 947.585 406.373 955.748 398.907 958.65C391.44 961.556 354.013 964.938 349.373 956.026C344.747 947.116 345.347 917.21 338.84 911.382C332.347 905.556 311.627 888.341 327.133 871.289Z" fill="#F7961E"/>
<path fill-rule="evenodd" clip-rule="evenodd" d="M322.734 886.481C322.734 886.481 330.054 899.138 330.948 907.882C331.854 916.626 331.814 958.858 331.814 958.858L337.148 957.868C337.148 957.868 333.094 907.706 336.454 906.321C339.814 904.937 322.734 886.481 322.734 886.481Z" fill="#F7961E"/>
<path fill-rule="evenodd" clip-rule="evenodd" d="M86.4414 299.174C86.4414 299.174 117.348 365.174 128.348 355.667C139.348 346.16 136.188 305.174 129.855 291.174C123.508 277.187 86.4414 299.174 86.4414 299.174Z" fill="#FFCDB2"/>
<path fill-rule="evenodd" clip-rule="evenodd" d="M0.759766 233.694L66.3865 279.667L103.453 217.974L0.759766 233.694Z" fill="white"/>
<path fill-rule="evenodd" clip-rule="evenodd" d="M22.9609 239.507L63.4943 269.094L90.2543 229.027L22.9609 239.507Z" fill="#FC9F07"/>
<path fill-rule="evenodd" clip-rule="evenodd" d="M86.6543 228.093L65.0009 263.96L89.0009 225.613L80.6009 226.373L63.5742 262.12L81.6809 229.573L82.9876 229.36L76.2142 243.613L86.6543 228.093Z" fill="white"/>
<path d="M58.4802 274.439C58.3202 274.439 58.1735 274.399 58.0402 274.306L6.26687 238.16C5.90687 237.92 5.82687 237.426 6.06687 237.079C6.32021 236.719 6.80023 236.639 7.16023 236.879L58.9335 273.026C59.2802 273.266 59.3736 273.759 59.1203 274.106C58.9736 274.333 58.7335 274.439 58.4802 274.439Z" fill="#360B1E"/>
<path fill-rule="evenodd" clip-rule="evenodd" d="M27.7461 242.094L62.5061 267.813L65.6928 260.467L27.7461 242.094Z" fill="#360B1E"/>
<path fill-rule="evenodd" clip-rule="evenodd" d="M31.7745 246.426C30.8678 246.319 30.0811 246.773 29.5078 248.039C29.5078 248.039 35.2145 260.479 36.6811 264.226C38.1345 267.973 38.5479 277.346 44.0546 279.573C49.5612 281.813 54.1878 282.786 58.0411 285.066C61.9078 287.346 63.9479 288.199 66.2945 290.506C68.6545 292.813 70.5345 293.413 74.6279 295.119C78.7212 296.826 88.4412 297.986 88.1345 303.893C87.4678 316.853 110.281 329.759 110.908 314.959C111.628 298.253 119.201 287.613 107.908 277.839C96.6011 268.066 94.8412 269.253 88.8546 264.959C82.8946 260.679 79.8279 257.213 79.8279 257.213C79.8279 257.213 78.6412 258.573 77.4945 261.026C76.3479 263.479 73.9212 267.746 70.1879 270.799C66.4412 273.866 63.1078 274.786 63.1078 274.786C63.1078 274.786 56.0412 267.213 54.8678 264.866C53.6945 262.533 54.1345 255.973 51.2279 251.493C48.3079 247.013 41.3078 243.706 42.8678 248.279C44.4145 252.839 46.6411 265.093 46.6411 265.093C46.6411 265.093 44.2812 260.706 42.9612 259.159C41.8945 257.893 35.6811 246.879 31.7745 246.426Z" fill="#FFCDB2"/>
<path fill-rule="evenodd" clip-rule="evenodd" d="M63.2266 274.694C63.2266 274.694 74.0265 274.107 78.7332 274.88C83.4399 275.654 87.5865 276.667 90.8398 277.84C94.0932 279.014 100.627 285.32 100.627 285.32C100.627 285.32 98.8398 278.44 94.8398 273.107C90.8398 267.787 78.3199 259.44 78.3199 259.44C78.3199 259.44 75.8532 263.667 73.3732 267.747C70.9198 271.774 63.2266 274.694 63.2266 274.694Z" fill="#FC9F07"/>
<path fill-rule="evenodd" clip-rule="evenodd" d="M72.8144 282.12C72.8144 282.12 61.6945 268.413 60.8945 266.493C60.0545 264.573 69.5345 255.333 70.1211 253.373C70.7345 251.427 74.3078 253.84 73.2945 257.653C72.2811 261.453 69.4411 266.72 69.4411 266.72C69.4411 266.72 78.3878 273.867 81.6278 275.973C84.8545 278.08 72.8144 282.12 72.8144 282.12Z" fill="#FFCDB2"/>
<path d="M72.4942 269.6C72.3609 269.6 72.2142 269.56 72.0942 269.48C71.7209 269.253 71.6009 268.773 71.8275 268.413L102.881 217.533C103.107 217.16 103.587 217.053 103.947 217.28C104.321 217.506 104.441 217.986 104.214 218.346L73.1609 269.226C73.0142 269.466 72.7609 269.6 72.4942 269.6Z" fill="#360B1E"/>
<path d="M73.7607 317.88C73.374 317.88 73.0407 317.587 72.9874 317.2L70.2541 294.52C70.2007 294.08 70.5074 293.693 70.934 293.64C71.374 293.587 71.7474 293.893 71.8007 294.32L74.534 317.013C74.5874 317.44 74.2807 317.827 73.8541 317.88H73.7607Z" fill="#360B1E"/>
<path fill-rule="evenodd" clip-rule="evenodd" d="M173.894 653.737C172.667 654.199 171.801 655.361 171.801 656.743C171.801 658.524 173.227 659.989 175.014 659.989C176.387 659.989 177.561 659.128 178.027 657.925C177.494 658.441 176.801 658.744 176.001 658.744C174.374 658.744 173.041 657.425 173.041 655.8C173.041 654.989 173.361 654.269 173.894 653.737Z" fill="#FC9F07"/>
<path fill-rule="evenodd" clip-rule="evenodd" d="M218.347 672.49C217.12 672.951 216.254 674.115 216.254 675.495C216.254 677.277 217.681 678.742 219.467 678.742C220.827 678.742 222.001 677.882 222.467 676.679C221.934 677.194 221.227 677.498 220.44 677.498C218.814 677.498 217.48 676.18 217.48 674.554C217.48 673.742 217.814 673.023 218.347 672.49Z" fill="#FC9F07"/>
<path fill-rule="evenodd" clip-rule="evenodd" d="M221.455 637.898C220.228 638.36 219.361 639.522 219.361 640.904C219.361 642.684 220.801 644.15 222.575 644.15C223.935 644.15 225.108 643.289 225.575 642.085C225.041 642.601 224.348 642.906 223.548 642.906C221.921 642.906 220.588 641.585 220.588 639.962C220.588 639.15 220.921 638.432 221.455 637.898Z" fill="#FC9F07"/>
<path fill-rule="evenodd" clip-rule="evenodd" d="M204.295 703.33C203.081 703.79 202.201 704.953 202.201 706.334C202.201 708.117 203.628 709.581 205.414 709.581C206.774 709.581 207.948 708.722 208.414 707.517C207.894 708.033 207.188 708.337 206.388 708.337C204.761 708.337 203.441 707.017 203.441 705.393C203.441 704.581 203.761 703.862 204.295 703.33Z" fill="#FC9F07"/>
<path fill-rule="evenodd" clip-rule="evenodd" d="M167.668 693.85C166.454 694.31 165.574 695.473 165.574 696.853C165.574 698.636 167.014 700.1 168.801 700.1C170.174 700.101 171.321 699.241 171.801 698.037C171.281 698.553 170.561 698.856 169.761 698.856C168.134 698.856 166.828 697.537 166.828 695.913C166.828 695.101 167.134 694.381 167.668 693.85Z" fill="#FC9F07"/>
<path fill-rule="evenodd" clip-rule="evenodd" d="M173.894 721.981C172.667 722.442 171.801 723.605 171.801 724.984C171.801 726.768 173.227 728.23 175.014 728.23C176.387 728.23 177.561 727.372 178.027 726.168C177.494 726.684 176.801 726.988 176.001 726.988C174.374 726.988 173.041 725.669 173.041 724.044C173.041 723.233 173.361 722.512 173.894 721.981Z" fill="#FC9F07"/>
<path fill-rule="evenodd" clip-rule="evenodd" d="M173.894 750.112C172.667 750.572 171.801 751.736 171.801 753.116C171.801 754.898 173.227 756.362 175.014 756.362C176.387 756.362 177.561 755.502 178.027 754.3C177.494 754.816 176.801 755.118 176.001 755.118C174.374 755.118 173.041 753.8 173.041 752.174C173.041 751.362 173.361 750.644 173.894 750.112Z" fill="#FC9F07"/>
<path fill-rule="evenodd" clip-rule="evenodd" d="M218.347 725.106C217.12 725.566 216.254 726.729 216.254 728.11C216.254 729.892 217.681 731.358 219.467 731.358C220.827 731.358 222.001 730.498 222.467 729.293C221.934 729.809 221.227 730.113 220.44 730.113C218.814 730.113 217.48 728.794 217.48 727.17C217.48 726.358 217.814 725.638 218.347 725.106Z" fill="#FC9F07"/>
<path fill-rule="evenodd" clip-rule="evenodd" d="M195.668 737.609C194.454 738.071 193.574 739.233 193.574 740.613C193.574 742.395 195.014 743.861 196.801 743.861C198.174 743.861 199.321 743 199.801 741.797C199.268 742.312 198.561 742.616 197.761 742.616C196.134 742.616 194.828 741.297 194.828 739.672C194.828 738.861 195.134 738.14 195.668 737.609Z" fill="#FC9F07"/>
<path fill-rule="evenodd" clip-rule="evenodd" d="M180.361 674.875C180.361 673.092 181.801 671.647 183.575 671.647C185.361 671.647 186.815 673.092 186.815 674.875C186.815 676.656 185.361 678.102 183.575 678.102C181.801 678.102 180.361 676.656 180.361 674.875Z" fill="#FC9F07"/>
<path fill-rule="evenodd" clip-rule="evenodd" d="M183.574 767.682C183.574 765.9 185.028 764.454 186.814 764.454C188.588 764.454 190.028 765.9 190.028 767.682C190.028 769.465 188.588 770.909 186.814 770.909C185.028 770.909 183.574 769.465 183.574 767.682Z" fill="#FC9F07"/>
<path fill-rule="evenodd" clip-rule="evenodd" d="M152.668 713.01C152.668 711.227 154.121 709.783 155.908 709.783C157.681 709.783 159.121 711.227 159.121 713.01C159.121 714.792 157.681 716.236 155.908 716.236C154.121 716.236 152.668 714.792 152.668 713.01Z" fill="#FC9F07"/>
<path fill-rule="evenodd" clip-rule="evenodd" d="M206.68 750.417C206.68 748.635 208.12 747.19 209.906 747.19C211.68 747.19 213.133 748.635 213.133 750.417C213.133 752.199 211.68 753.645 209.906 753.645C208.12 753.645 206.68 752.199 206.68 750.417Z" fill="#FC9F07"/>
<path fill-rule="evenodd" clip-rule="evenodd" d="M231.947 748.932C231.947 747.148 233.401 745.702 235.187 745.702C236.961 745.702 238.401 747.148 238.401 748.932C238.401 750.713 236.961 752.158 235.187 752.158C233.401 752.158 231.947 750.713 231.947 748.932Z" fill="#FC9F07"/>
<path fill-rule="evenodd" clip-rule="evenodd" d="M152.441 640.619C152.441 638.836 153.895 637.391 155.668 637.391C157.455 637.391 158.895 638.836 158.895 640.619C158.895 642.4 157.455 643.846 155.668 643.846C153.895 643.846 152.441 642.4 152.441 640.619Z" fill="#FC9F07"/>
<path fill-rule="evenodd" clip-rule="evenodd" d="M222.814 701.966C222.814 700.183 224.268 698.739 226.041 698.739C227.828 698.739 229.268 700.183 229.268 701.966C229.268 703.75 227.828 705.192 226.041 705.192C224.268 705.192 222.814 703.75 222.814 701.966Z" fill="#FC9F07"/>
<path fill-rule="evenodd" clip-rule="evenodd" d="M160.48 811.545C159.267 812.007 158.387 813.169 158.387 814.549C158.387 816.332 159.813 817.796 161.587 817.796C162.96 817.796 164.133 816.936 164.6 815.733C164.08 816.249 163.373 816.552 162.573 816.552C160.947 816.552 159.627 815.233 159.627 813.608C159.627 812.797 159.947 812.077 160.48 811.545Z" fill="#FC9F07"/>
<path fill-rule="evenodd" clip-rule="evenodd" d="M204.921 830.299C203.695 830.76 202.828 831.921 202.828 833.304C202.828 835.085 204.268 836.551 206.041 836.551C207.401 836.551 208.575 835.691 209.041 834.487C208.508 835.001 207.815 835.307 207.015 835.307C205.388 835.307 204.055 833.987 204.055 832.363C204.055 831.551 204.388 830.832 204.921 830.299Z" fill="#FC9F07"/>
<path fill-rule="evenodd" clip-rule="evenodd" d="M208.027 795.706C206.814 796.166 205.934 797.33 205.934 798.71C205.934 800.492 207.374 801.957 209.147 801.957C210.507 801.957 211.68 801.097 212.147 799.893C211.627 800.409 210.92 800.713 210.12 800.713C208.494 800.713 207.187 799.393 207.187 797.769C207.187 796.958 207.494 796.237 208.027 795.706Z" fill="#FC9F07"/>
<path fill-rule="evenodd" clip-rule="evenodd" d="M190.867 861.138C189.653 861.599 188.773 862.762 188.773 864.143C188.773 865.924 190.213 867.39 192 867.39C193.36 867.39 194.533 866.528 195 865.326C194.467 865.84 193.76 866.146 192.96 866.146C191.347 866.146 190.013 864.826 190.013 863.202C190.013 862.39 190.347 861.671 190.867 861.138Z" fill="#FC9F07"/>
<path fill-rule="evenodd" clip-rule="evenodd" d="M154.253 851.656C153.027 852.118 152.146 853.282 152.146 854.662C152.146 856.444 153.587 857.908 155.373 857.908C156.747 857.908 157.92 857.05 158.387 855.846C157.853 856.362 157.133 856.664 156.346 856.664C154.72 856.664 153.4 855.346 153.4 853.722C153.4 852.908 153.72 852.19 154.253 851.656Z" fill="#FC9F07"/>
<path fill-rule="evenodd" clip-rule="evenodd" d="M160.48 879.788C159.267 880.25 158.387 881.414 158.387 882.794C158.387 884.576 159.813 886.039 161.587 886.039C162.96 886.039 164.133 885.18 164.6 883.976C164.08 884.492 163.373 884.796 162.573 884.796C160.947 884.796 159.627 883.475 159.627 881.852C159.627 881.039 159.947 880.32 160.48 879.788Z" fill="#FC9F07"/>
<path fill-rule="evenodd" clip-rule="evenodd" d="M160.48 907.919C159.267 908.38 158.387 909.542 158.387 910.923C158.387 912.707 159.813 914.171 161.587 914.171C162.96 914.171 164.133 913.311 164.6 912.108C164.08 912.624 163.373 912.927 162.573 912.927C160.947 912.927 159.627 911.607 159.627 909.983C159.627 909.171 159.947 908.452 160.48 907.919Z" fill="#FC9F07"/>
<path fill-rule="evenodd" clip-rule="evenodd" d="M204.921 882.914C203.695 883.374 202.828 884.537 202.828 885.918C202.828 887.7 204.268 889.165 206.041 889.165C207.401 889.165 208.575 888.305 209.041 887.101C208.508 887.617 207.815 887.92 207.015 887.92C205.388 887.92 204.055 886.601 204.055 884.977C204.055 884.165 204.388 883.445 204.921 882.914Z" fill="#FC9F07"/>
<path fill-rule="evenodd" clip-rule="evenodd" d="M182.253 895.417C181.027 895.879 180.146 897.04 180.146 898.42C180.146 900.203 181.587 901.668 183.373 901.668C184.747 901.668 185.907 900.808 186.373 899.605C185.84 900.121 185.133 900.423 184.346 900.423C182.72 900.423 181.4 899.105 181.4 897.48C181.4 896.669 181.72 895.948 182.253 895.417Z" fill="#FC9F07"/>
<path fill-rule="evenodd" clip-rule="evenodd" d="M166.934 832.683C166.934 830.9 168.374 829.455 170.147 829.455C171.934 829.455 173.387 830.9 173.387 832.683C173.387 834.464 171.934 835.909 170.147 835.909C168.374 835.909 166.934 834.464 166.934 832.683Z" fill="#FC9F07"/>
<path fill-rule="evenodd" clip-rule="evenodd" d="M170.146 925.49C170.146 923.708 171.6 922.262 173.387 922.262C175.173 922.262 176.6 923.708 176.6 925.49C176.6 927.272 175.173 928.717 173.387 928.717C171.6 928.717 170.146 927.272 170.146 925.49Z" fill="#FC9F07"/>
<path fill-rule="evenodd" clip-rule="evenodd" d="M139.254 870.817C139.254 869.035 140.694 867.589 142.48 867.589C144.267 867.589 145.694 869.035 145.694 870.817C145.694 872.6 144.267 874.044 142.48 874.044C140.694 874.044 139.254 872.6 139.254 870.817Z" fill="#FC9F07"/>
<path fill-rule="evenodd" clip-rule="evenodd" d="M193.268 908.224C193.268 906.443 194.694 904.997 196.481 904.997C198.268 904.997 199.721 906.443 199.721 908.224C199.721 910.007 198.268 911.452 196.481 911.452C194.694 911.452 193.268 910.007 193.268 908.224Z" fill="#FC9F07"/>
<path fill-rule="evenodd" clip-rule="evenodd" d="M218.533 906.739C218.533 904.957 219.987 903.512 221.76 903.512C223.547 903.512 224.987 904.957 224.987 906.739C224.987 908.521 223.547 909.967 221.76 909.967C219.987 909.967 218.533 908.521 218.533 906.739Z" fill="#FC9F07"/>
<path fill-rule="evenodd" clip-rule="evenodd" d="M139.014 798.425C139.014 796.644 140.467 795.199 142.254 795.199C144.027 795.199 145.467 796.644 145.467 798.425C145.467 800.208 144.027 801.653 142.254 801.653C140.467 801.653 139.014 800.208 139.014 798.425Z" fill="#FC9F07"/>
<path fill-rule="evenodd" clip-rule="evenodd" d="M209.387 859.773C209.387 857.991 210.84 856.545 212.627 856.545C214.4 856.545 215.84 857.991 215.84 859.773C215.84 861.555 214.4 863 212.627 863C210.84 863 209.387 861.555 209.387 859.773Z" fill="#FC9F07"/>
</svg>
